<svg width="111" height="117" viewBox="0 0 111 117" fill="none" xmlns="http://www.w3.org/2000/svg">
<path d="M75.8066 59.405C78.3155 60.4099 79.654 63.2892 80.4355 65.7386C80.82 66.9281 81.2276 68.1283 81.7082 69.2919C81.9744 69.9333 82.2335 70.5658 82.5468 71.184C82.6869 71.4588 83.1257 72.0421 82.9579 72.3156C82.7901 72.5891 82.6749 72.3454 82.4067 72.166C80.1062 70.6285 80.0596 67.3556 79.2284 65.0265C79.0179 64.4805 78.7595 63.9543 78.4561 63.4539C78.2018 63.0003 78.0488 62.4727 77.7669 62.0485C77.1593 61.2754 76.3393 60.6966 75.4074 60.3829C75.5393 60.2401 75.6405 60.0719 75.7049 59.8885C75.762 59.7331 75.7963 59.5702 75.8066 59.405Z" fill="#634C3B"/>
<path d="M73.1782 58.306C73.5725 58.2965 74.4439 58.2258 74.7667 58.6464C75.5934 59.7222 74.0569 60.2754 73.3582 60.288C71.9152 60.3162 70.4717 60.2541 69.0364 60.102C67.6903 59.9544 66.3528 59.5808 65.0103 59.4376C63.6678 59.2945 62.4079 59.0266 61.1904 59.1851L61.1682 59.2029C60.6291 58.4889 59.8656 57.9768 59.0004 57.7489C59.0509 57.5842 59.0934 57.4185 59.1315 57.2565C59.3313 57.3788 59.5428 57.4808 59.763 57.5609C60.3476 57.7627 60.9477 57.9166 61.5573 58.0211C62.8498 58.2581 64.1572 58.4055 65.47 58.4623C66.8462 58.5199 68.2046 58.5918 69.5709 58.5551C70.7859 58.5302 71.9668 58.3353 73.1782 58.306Z" fill="#634C3B"/>
<path d="M74.7346 46.4028C74.8424 46.4552 75.2521 46.6014 75.2825 46.694C75.3701 46.9671 74.8379 47.0507 74.708 47.0526C73.0077 47.3684 71.2628 47.3573 69.5666 47.0201C68.4287 46.7858 67.2026 46.5054 66.1438 46.8434C66.0625 46.4814 65.8967 46.1437 65.6599 45.8579C65.6122 45.7891 65.5598 45.7238 65.503 45.6623C66.354 45.3783 67.2463 45.2377 68.1434 45.2463C69.0192 45.1623 69.9015 45.1747 70.7746 45.2834C71.7478 45.3864 72.7065 45.5976 73.6328 45.9131C73.9802 46.0728 74.3685 46.2289 74.7346 46.4028Z" fill="#634C3B"/>
<path d="M63.7865 46.6377C64.2645 46.0495 65.1427 45.8052 65.446 46.8845C65.5602 47.4415 65.518 48.0193 65.3238 48.5537C64.9861 49.5168 64.5382 50.4377 63.9891 51.2981C63.4201 52.3062 62.6619 53.1949 61.756 53.9156C61.3216 54.2899 60.8468 54.6145 60.3403 54.8835C59.9516 55.0638 59.5414 55.181 59.1322 55.3267C58.9834 54.8292 58.7636 54.3559 58.4795 53.9213C59.8201 54.0074 61.1974 53.5381 61.7868 52.4148C62.2205 51.5451 62.5574 50.6303 62.7913 49.6869C63.0657 48.6264 63.1094 47.4879 63.7865 46.6377Z" fill="#634C3B"/>
<path d="M56.411 83.3276C58.5091 84.6402 61.6897 85.3984 62.6922 87.9774C62.8092 88.2781 63.0089 88.454 62.7188 88.5479C62.4288 88.6418 61.9447 88.1022 61.7031 87.9014C61.1675 87.4616 60.6062 87.0716 60.0377 86.6728C59.0104 85.9479 57.9226 85.2935 56.8446 84.6604C54.6405 83.3525 52.1018 81.4362 51.6644 78.7691C51.8308 78.8003 52.0009 78.8067 52.1691 78.788C52.3619 78.7639 52.5479 78.7016 52.7163 78.6047C52.8206 79.5824 53.208 80.5083 53.8311 81.269C54.1885 81.6325 54.666 81.8998 55.0537 82.2463C55.4736 82.6458 55.9278 83.0076 56.411 83.3276Z" fill="#634C3B"/>
<path d="M53.188 62.0255C53.3589 62.0199 53.5298 62.0143 53.7015 62.0007C53.7345 62.8954 54.0674 63.753 54.6468 64.4356C54.2284 65.5898 54.2144 66.9749 54.0435 68.2373C53.8727 69.4998 53.9674 70.9656 53.8198 72.3117C53.6572 73.7459 53.4051 75.1685 53.0649 76.5711C52.8879 77.2612 52.0327 78.6271 51.1616 77.5869C50.8298 77.1735 51.0743 76.3488 51.1734 75.9624C51.4646 74.7861 51.9062 73.6791 52.2018 72.4992C52.5292 71.1769 52.7677 69.8529 52.9953 68.4792C53.2243 67.1852 53.3637 65.877 53.4124 64.5638C53.4425 63.9461 53.4222 63.3269 53.3519 62.7124C53.3231 62.4781 53.2681 62.2476 53.188 62.0255Z" fill="#634C3B"/>
<path d="M50.0732 60.6664C50.4324 61.041 50.8457 61.3596 51.2994 61.6117C51.073 61.9761 50.8652 62.3547 50.6049 62.6951C50.2326 63.1312 49.8128 63.5244 49.3533 63.8674C48.4549 64.5944 47.4244 65.1409 46.3186 65.4767C45.3587 65.8287 44.361 66.0677 43.3457 66.1887C42.782 66.2624 42.2088 66.1785 41.6897 65.9463C40.6841 65.4306 41.1128 64.6262 41.8084 64.2727C42.7779 63.7871 43.906 64 44.9963 63.9654C45.9678 63.9401 46.9337 63.8094 47.8771 63.5758C49.1059 63.2402 49.8669 61.9939 50.0732 60.6664Z" fill="#634C3B"/>
<path d="M40.526 65.7255C40.5737 65.7943 40.6262 65.8596 40.683 65.9211C40.9107 66.2141 41.2045 66.4491 41.5403 66.607C40.9738 67.5585 40.9818 68.8162 40.9711 69.9867C40.9334 71.7158 40.5661 73.4217 39.8889 75.013C39.8348 75.1368 39.6619 75.6409 39.4143 75.4962C39.3225 75.4456 39.2685 75.0139 39.2443 74.9018C39.1538 74.5067 39.0891 74.0983 39.0182 73.7094C38.9102 72.7354 38.9132 71.7524 39.0273 70.7791C39.1071 69.9043 39.2847 69.0411 39.5568 68.2059C39.8253 67.3839 40.0116 66.3867 40.526 65.7255Z" fill="#634C3B"/>
<path d="M32.3122 49.3779C32.4133 49.8275 32.5991 50.2538 32.8597 50.634C32.3402 50.4807 31.7976 50.4212 31.2572 50.4583C30.3311 50.3949 29.4102 50.2695 28.5008 50.0831C27.996 49.9912 27.4913 50.0089 26.9803 49.9366C26.4035 49.8173 25.8402 49.6401 25.299 49.4077C24.5322 49.15 23.7801 48.851 23.0457 48.5119C22.8829 48.4513 22.7296 48.3676 22.5905 48.2634C22.5191 48.1745 22.4791 48.1701 22.4711 48.1692C22.4899 48.1596 22.5065 48.1463 22.52 48.13C22.6264 47.8984 23.5574 47.8383 23.8013 47.8326C24.748 47.7629 25.6983 47.7547 26.6461 47.808C27.7504 47.9178 28.8386 48.1527 29.8898 48.5082C30.4589 48.6801 30.9622 48.9339 31.5063 49.1476C31.7717 49.2051 32.0441 49.2715 32.3122 49.3779Z" fill="#634C3B"/>
<path d="M42.8031 52.389C42.7607 52.4271 42.7161 52.4628 42.6698 52.4961C42.4545 52.6103 42.2268 52.6907 42.0017 52.7836C41.1952 53.0976 40.3241 53.2095 39.4645 53.1096C37.5539 52.8961 34.891 52.5189 33.7354 50.5232C33.606 50.2982 33.4936 50.0669 33.3766 49.8392C33.2597 49.6115 33.0698 49.4569 33.2246 49.3766C33.4817 49.2507 34.5407 49.7236 34.7874 49.8033C35.6637 50.094 36.5266 50.3589 37.4189 50.6149C38.5053 50.9124 40.2435 51.403 41.286 50.8807C41.734 51.4383 42.2429 51.9442 42.8031 52.389Z" fill="#634C3B"/>
<path d="M52.1788 24.3028C52.1996 24.2927 52.2178 24.278 52.2321 24.26C52.2321 24.26 52.2269 24.308 52.2938 24.4005C52.3654 24.5589 52.4139 24.7266 52.4378 24.8988C52.6121 25.6887 52.7411 26.488 52.8241 27.2926C52.9337 27.8714 52.9847 28.4597 52.9761 29.0486C52.936 29.5632 52.8138 30.0485 52.7897 30.5648C52.7767 31.493 52.6995 32.4193 52.5587 33.3369C52.4054 33.8564 52.3459 34.3991 52.383 34.9394C52.0683 34.6027 51.6925 34.3289 51.2754 34.1328C51.2296 33.848 51.2283 33.5641 51.1869 33.2757C51.1006 32.6946 50.9574 32.1518 50.9085 31.5627C50.7907 30.458 50.7986 29.3436 50.9321 28.2407C51.084 27.3051 51.2965 26.3804 51.5681 25.4724C51.6657 25.2479 51.9296 24.3565 52.1788 24.3028Z" fill="#634C3B"/>
<path d="M52.1083 35.781C53.8152 37.3344 53.6108 40.0122 53.3919 41.9343C53.3046 42.7955 53.0065 43.622 52.524 44.3407C52.389 44.5367 52.2567 44.7452 52.1029 44.927C52.0585 44.9626 52.0096 45.0019 51.9651 45.0376C51.6393 44.3935 51.2419 43.7882 50.7804 43.2332C51.5161 42.3287 51.4352 40.5156 51.3588 39.4004C51.3165 38.4917 51.2493 37.5883 51.1367 36.6556C51.1123 36.3975 50.8801 35.2612 51.0587 35.0375C51.1617 34.9109 51.292 35.1279 51.4774 35.2861C51.6628 35.4443 51.9167 35.6059 52.1083 35.781Z" fill="#634C3B"/>
<path d="M43.5824 34.3354C43.718 34.5043 43.8757 34.6554 44.0193 34.8252C44.0106 35.0313 43.9485 35.2317 43.839 35.4066C43.7296 35.5815 43.5766 35.725 43.395 35.823C43.0966 35.9521 42.7744 36.0169 42.4493 36.0134C42.1242 36.0099 41.8035 35.9381 41.5079 35.8026C40.757 35.3022 40.1944 34.5657 39.9089 33.7096C39.8682 33.4328 39.8889 33.1505 39.9694 32.8826C40.0499 32.6147 40.1883 32.3678 40.3748 32.1592C41.586 32.6493 42.6794 33.3911 43.5824 34.3354Z" fill="#634C3B"/>
<path d="M34.3655 38.1576C35.1384 38.6225 35.7364 39.3293 36.0667 40.1686C36.1341 40.4874 36.1339 40.8167 36.0661 41.1354C35.9984 41.4541 35.8646 41.755 35.6733 42.0188C35.5383 42.1749 35.3651 42.2931 35.1706 42.3621C34.9761 42.431 34.7671 42.4482 34.5639 42.4121C34.4248 42.2387 34.2893 42.0698 34.1804 41.8795C33.4567 40.792 32.9696 39.5644 32.751 38.2766C32.9949 38.1397 33.266 38.0581 33.545 38.0375C33.824 38.017 34.1041 38.058 34.3655 38.1576Z" fill="#634C3B"/>
<path d="M66.6975 63.3526C68.9137 64.6677 70.8183 66.4479 72.2799 68.5704C73.6185 70.5124 74.4927 72.7362 74.8351 75.0699C75.1278 77.3927 73.8791 78.7599 72.7376 80.2971C70.9932 81.0829 69.3843 82.0012 67.1756 81.2157C64.971 80.3777 62.9903 79.0407 61.3886 77.3094C59.6297 75.4259 58.3026 73.1815 57.4999 70.7326C57.1387 69.6918 56.8857 68.6166 56.7449 67.5239C56.6711 66.9766 56.6151 66.4515 56.5422 65.8962L56.4991 65.6239C56.6615 65.6529 56.8282 65.6462 56.9878 65.6045C57.6169 65.8138 58.301 65.7849 58.9103 65.5234C59.5641 65.1843 60.1311 64.6993 60.5673 64.106C61.0036 63.5126 61.2974 62.8268 61.4261 62.1016C61.5748 62.0158 61.6983 61.8925 61.7843 61.744C61.8703 61.5954 61.9158 61.4269 61.9162 61.2553L62.1728 61.3564C62.6858 61.5586 63.1951 61.7199 63.7179 61.9069C64.7593 62.2823 65.7581 62.7669 66.6975 63.3526Z" fill="#896E59"/>
<path d="M58.7398 58.4988C59.3186 58.7335 59.8182 59.1287 60.1799 59.6378C60.3743 60.1264 60.5171 60.6339 60.6058 61.1522C60.4569 61.5494 60.3551 61.9599 60.2053 62.3651C59.8987 63.1166 59.4047 63.7771 58.7705 64.2836C58.559 64.4485 58.3147 64.5663 58.054 64.6293C57.7933 64.6924 57.5222 64.6991 57.2587 64.649C56.7 64.235 55.5352 63.8397 55.2855 63.565C54.8641 63.0961 54.5845 62.5171 54.4793 61.8955L54.5372 61.8856C55.3128 61.9983 56.1019 61.8074 56.7403 61.3528C57.6971 60.6419 58.3984 59.6408 58.7398 58.4988Z" fill="#634C3B"/>
<path d="M55.0215 52.8083C55.8799 53.243 56.6293 53.8656 57.2139 54.6299C57.4727 54.9967 57.6394 55.4205 57.7 55.8653C57.7606 56.3102 57.7133 56.7631 57.5621 57.1858C57.3431 57.7005 57.2485 58.2596 57.2858 58.8178C56.8379 59.3766 56.3129 59.8692 55.7267 60.2807C55.537 60.3966 55.3414 60.5024 55.1406 60.5976C54.5945 60.4215 54.0128 60.3856 53.4492 60.4932C53.0033 60.551 52.5501 60.5002 52.128 60.3452C51.706 60.1902 51.3276 59.9356 51.025 59.6031C50.4057 58.8667 49.9603 58.0003 49.7217 57.0681C49.5257 56.3707 49.4382 55.6473 49.4623 54.9233C49.8916 54.8045 50.2756 54.5599 50.565 54.2212L50.6539 54.1498C51.1121 53.81 51.5513 53.4453 51.9697 53.0575C52.393 52.8539 52.7395 52.5195 52.9581 52.1037C53.6775 52.2331 54.3732 52.4707 55.0215 52.8083Z" fill="#896E59"/>
<path d="M44.5231 35.4805C45.2385 36.4995 45.6799 37.6507 45.3523 38.827C44.9352 40.3381 43.6933 41.4223 42.656 42.4519C42.5971 42.5052 42.5532 42.5732 42.529 42.6489C42.4482 42.6572 42.3709 42.6864 42.3048 42.7337C41.0892 43.5411 39.7661 44.515 38.1818 44.5805C36.9625 44.6455 35.9343 43.9651 35.0944 43.046C35.4462 43.0521 35.789 42.9348 36.0633 42.7143C36.3803 42.4011 36.6195 42.018 36.7615 41.5956C36.9036 41.1732 36.9446 40.7233 36.8813 40.2822C36.7658 39.1546 35.8859 38.2676 34.9823 37.5968C34.6419 37.3629 34.2557 37.2041 33.8492 37.1308C33.4427 37.0576 33.0253 37.0717 32.6247 37.1721L32.612 36.9923C32.5592 36.1505 32.5677 35.3059 32.6377 34.4652C32.7206 33.9991 32.8955 33.5542 33.1521 33.1563C33.4087 32.7584 33.7419 32.4156 34.1324 32.1479C34.8794 31.6699 35.7424 31.4043 36.6289 31.3796C37.1675 31.3861 37.7042 31.445 38.2314 31.5553C38.3311 31.5703 38.4353 31.5817 38.5519 31.5904C38.7692 31.6426 38.9775 31.702 39.1788 31.7524L39.3515 31.8038C39.1667 32.1731 39.0625 32.5776 39.0459 32.9903C39.0293 33.403 39.1007 33.8145 39.2553 34.1975C39.7188 35.2213 40.3897 36.276 41.4655 36.6332C41.8824 36.7906 42.3304 36.848 42.7736 36.8008C43.2167 36.7536 43.6426 36.6032 44.0171 36.3615C44.2828 36.1354 44.4617 35.824 44.5231 35.4805Z" fill="#896E59"/>
<path d="M47.8542 42.9651C49.0246 43.5548 50.0055 44.4618 50.685 45.5824C51.5218 46.6453 52.1133 47.88 52.4171 49.1982C52.5005 50.3775 52.1289 51.5439 51.3787 52.4576C51.1031 52.7152 50.8382 52.9862 50.5431 53.2376L50.383 53.366C50.3235 53.3581 50.263 53.3684 50.2095 53.3957C49.148 53.9414 47.9172 54.0576 46.7723 53.7202C45.5513 53.138 44.474 52.2931 43.6177 51.2458C42.6709 50.3397 41.9981 49.1855 41.6759 47.9151C41.4638 46.9397 41.3176 45.9512 41.2381 44.9561C41.8628 44.5539 42.4439 44.0877 42.9719 43.565C43.0335 43.5106 43.078 43.4394 43.0997 43.3601C43.1802 43.3573 43.2579 43.3305 43.323 43.2832C43.9477 42.881 44.5288 42.4148 45.0568 41.8921C46.0123 42.1866 46.9469 42.545 47.8542 42.9651Z" fill="#634C3B"/>
<g style="mix-blend-mode:multiply" opacity="0.2">
<path d="M43.8544 38.9547C43.3344 39.2913 42.8661 39.7015 42.464 40.1726C40.7147 40.6336 38.7996 41.5345 37.3837 39.9157C36.6571 39.0369 36.0692 38.0523 35.6402 36.9959C35.4035 36.4551 35.1668 35.8777 34.971 35.2968C34.7431 34.8111 34.5894 34.2941 34.5148 33.7629C34.5418 33.5164 34.4698 33.2692 34.3146 33.0758C34.1594 32.8824 33.9338 32.7586 33.6873 32.7315C33.4408 32.7045 33.1936 32.7765 33.0002 32.9317C32.8068 33.0869 32.6829 33.3126 32.6559 33.5591C32.498 34.3679 32.523 35.2017 32.7289 35.9997C32.3491 37.1519 32.3843 38.4007 32.8284 39.5297C33.196 40.8162 33.7362 42.047 34.4342 43.1885C35.8783 45.2888 38.7346 45.1966 40.9535 44.483C40.9137 44.5427 40.8784 44.6052 40.8479 44.6701C40.3049 45.8877 40.7135 47.7448 41.1781 48.9431C41.6646 50.2518 42.4613 51.423 43.5 52.356C44.5152 53.266 45.5 54.12 46.9129 54.287C48.0658 54.4215 49.4814 54.6741 50.2951 53.5389C50.4378 53.3289 50.5319 53.0897 50.5706 52.8388C50.6093 52.5879 50.5917 52.3316 50.5189 52.0883C50.4462 51.8451 50.3203 51.6211 50.1502 51.4326C49.9801 51.2442 49.7702 51.0959 49.5357 50.9987C47.9147 50.2898 46.627 48.6485 45.7383 47.1767C45.2948 46.451 44.9679 45.661 44.5324 44.9362C44.095 44.2371 43.6992 43.5127 43.3472 42.7669C43.6316 42.5407 43.8689 42.2609 44.0456 41.9435C44.1335 41.7763 44.188 41.5936 44.206 41.4056C44.6321 40.9631 44.9012 40.3929 44.9718 39.7827C44.9842 39.6436 44.9607 39.5037 44.9035 39.3764C44.8463 39.249 44.7574 39.1385 44.6452 39.0554C44.533 38.9723 44.4014 38.9194 44.2629 38.9018C44.1245 38.8841 43.9838 38.9023 43.8544 38.9547Z" fill="#88524C"/>
</g>
<g style="mix-blend-mode:multiply" opacity="0.2">
<path d="M42.6291 38.0379C41.3823 37.0225 40.3497 35.7696 39.5911 34.3519C39.5586 34.2762 39.4973 34.2167 39.4208 34.1862C39.3443 34.1558 39.2588 34.157 39.1832 34.1896C39.1076 34.2221 39.048 34.2834 39.0176 34.3599C38.9871 34.4364 38.9883 34.5219 39.0209 34.5975C39.6464 36.2878 40.0983 38.5267 42.1045 39.0142C42.2283 39.0468 42.3594 39.0367 42.4768 38.9857C42.5942 38.9346 42.691 38.8456 42.7516 38.7328C42.8122 38.6201 42.833 38.4902 42.8108 38.3641C42.7886 38.238 42.7246 38.1231 42.6291 38.0379Z" fill="#88524C"/>
</g>
<g style="mix-blend-mode:multiply" opacity="0.2">
<path d="M72.7635 78.5444C72.2582 78.1606 71.6819 77.8703 71.1775 77.4785C70.5226 76.981 69.8943 76.4621 69.2775 75.912C68.1305 74.8043 67.0934 73.588 66.1808 72.2804C65.1545 70.9121 64.2188 69.4782 63.3796 67.9878C62.5451 66.4652 61.8173 64.8569 60.094 64.1936C60.0343 64.1751 59.9711 64.1716 59.9097 64.1833C59.8484 64.1949 59.7909 64.2215 59.7422 64.2606C59.6935 64.2996 59.6551 64.35 59.6304 64.4074C59.6057 64.4647 59.5955 64.5273 59.6006 64.5895C59.5782 64.5661 59.558 64.5408 59.5399 64.5139C59.482 64.1403 59.3463 63.7831 59.1416 63.4652C58.9369 63.1473 58.6677 62.876 58.3516 62.6687C58.0914 62.4536 57.1755 61.8951 57.1705 61.4972C57.1822 61.3175 57.153 61.1374 57.0851 60.9706C57.0171 60.8038 56.9123 60.6545 56.7783 60.5341C56.6444 60.4136 56.4849 60.3251 56.3119 60.2752C56.1388 60.2253 55.9567 60.2153 55.7792 60.2459C55.8262 59.9976 55.7918 59.7407 55.6811 59.5135C55.15 58.4782 54.0136 58.1185 53.2461 57.3167C52.8522 56.8994 52.5189 56.4289 52.256 55.9189C52.1623 55.7383 52.0908 55.5399 51.9891 55.3585C51.8873 55.177 51.4809 54.8527 51.4433 54.6783C51.4106 54.4565 51.2912 54.2567 51.1112 54.1229C50.9312 53.9891 50.7055 53.9323 50.4836 53.9649C50.2617 53.9976 50.0619 54.1171 49.9282 54.2971C49.7944 54.477 49.7376 54.7028 49.7702 54.9246C49.7955 55.1747 49.609 55.4705 49.5649 55.7252C49.5032 56.1389 49.4939 56.5588 49.5373 56.9749C49.6907 57.8795 50.0602 58.7337 50.6144 59.4648C51.5775 60.6651 53.2182 62.0086 54.8142 61.3929C54.6591 61.9752 54.6429 62.5858 54.767 63.1754C54.8911 63.7651 55.1519 64.3173 55.5285 64.7877C55.7712 65.1021 56.0668 65.3719 56.402 65.5849C56.239 66.3778 56.3257 67.2017 56.6502 67.9433C56.5649 68.7374 56.5819 69.5391 56.7009 70.3288C56.9892 72.1582 57.7209 73.8893 58.832 75.3709C59.9255 76.8131 61.1446 78.1556 62.4749 79.3827C63.1122 79.9675 63.7895 80.5202 64.4543 81.039C65.226 81.6547 66.1473 82.2382 67.1688 81.9813C67.4607 81.9057 67.7237 81.7456 67.9247 81.5208C68.2462 81.6575 68.5766 81.7869 68.9168 81.9013C69.8765 82.2737 70.912 82.4081 71.9349 82.293C72.3594 82.2523 72.7601 82.0781 73.0795 81.7955C73.3988 81.5129 73.6204 81.1364 73.7125 80.72C73.8045 80.3036 73.7623 79.8688 73.5918 79.4779C73.4213 79.087 73.1313 78.7602 72.7635 78.5444Z" fill="#88524C"/>
</g>
<g style="mix-blend-mode:multiply" opacity="0.2">
<path d="M53.0361 68.3661C52.707 69.7774 52.6192 71.207 52.3827 72.6245C52.1674 73.9226 52.1124 75.2747 51.5899 76.4905C51.4045 76.9243 52.0778 77.1806 52.2668 76.7512C52.7991 75.5933 52.8827 74.2767 53.106 73.016C53.4201 71.5069 53.5952 69.9721 53.629 68.4311C53.6376 68.3524 53.6146 68.2736 53.5651 68.2119C53.5156 68.1502 53.4437 68.1107 53.365 68.1021C53.2864 68.0935 53.2076 68.1165 53.1459 68.166C53.0842 68.2155 53.0447 68.2874 53.0361 68.3661Z" fill="#88524C"/>
</g>
<g style="mix-blend-mode:multiply" opacity="0.2">
<path d="M48.0428 63.6913C46.2286 63.5978 44.7163 64.8551 42.9901 65.2537C42.7276 65.3182 42.6775 65.7749 43.0024 65.7699C44.8503 65.8639 46.6846 65.4091 48.2745 64.4627C48.3426 64.4089 48.3929 64.3358 48.419 64.253C48.4451 64.1702 48.4457 64.0814 48.4207 63.9983C48.3957 63.9151 48.3464 63.8414 48.279 63.7867C48.2116 63.7319 48.1293 63.6987 48.0428 63.6913Z" fill="#88524C"/>
</g>
<g style="mix-blend-mode:multiply" opacity="0.2">
<path d="M39.8139 68.7814C39.4406 69.5477 39.2615 70.3941 39.2923 71.246C39.3099 72.055 39.496 72.8515 39.8387 73.5845C39.8724 73.6488 39.9252 73.7012 39.9897 73.7345C40.0543 73.7678 40.1276 73.7804 40.1996 73.7706C40.2716 73.7608 40.3388 73.729 40.392 73.6796C40.4453 73.6302 40.4821 73.5655 40.4973 73.4945C40.6065 72.7199 40.73 71.9631 40.7796 71.178C40.8139 70.4177 40.8053 69.656 40.7541 68.8966C40.7444 68.3564 40.0074 68.385 39.8139 68.7814Z" fill="#88524C"/>
</g>
<g style="mix-blend-mode:multiply" opacity="0.2">
<path d="M64.7864 46.873C64.4878 47.371 64.2324 47.8937 64.0232 48.4354C63.6448 49.2586 63.2133 50.0564 62.7315 50.8237C62.2973 51.5302 61.8399 52.226 61.3941 52.9272C60.8941 53.7157 60.2216 54.5988 59.2721 54.7907C59.2098 54.8073 59.1559 54.8463 59.1206 54.9002C59.0853 54.9541 59.071 55.0191 59.0806 55.0828C59.0902 55.1465 59.1228 55.2045 59.1724 55.2457C59.222 55.2868 59.285 55.3083 59.3494 55.3059C61.304 55.2648 62.3247 53.2036 63.2875 51.7807C63.8616 50.9492 64.3893 50.0867 64.8681 49.197C65.1912 48.5797 65.7295 47.7751 65.6929 47.0738C65.6786 46.9739 65.6343 46.8807 65.5657 46.8067C65.4972 46.7327 65.4077 46.6813 65.3092 46.6595C65.2107 46.6377 65.1078 46.6464 65.0144 46.6846C64.921 46.7227 64.8415 46.7885 64.7864 46.873Z" fill="#88524C"/>
</g>
<g style="mix-blend-mode:multiply" opacity="0.2">
<path d="M71.8764 46.4016C71.2091 45.9433 70.3067 46.0754 69.5419 45.9875C69.1058 45.927 68.6639 45.9208 68.2263 45.969C67.7164 46.0347 67.3019 46.3015 66.8071 46.377C66.7538 46.3882 66.706 46.4177 66.6722 46.4605C66.6383 46.5032 66.6204 46.5564 66.6217 46.6109C66.6229 46.6654 66.6432 46.7178 66.679 46.759C66.7148 46.8001 66.7638 46.8274 66.8176 46.8362C67.2102 46.8793 67.5795 46.7657 67.9738 46.7927C68.3682 46.8197 68.8595 46.8128 69.3163 46.8994C70.0719 47.0277 70.8378 47.0859 71.6041 47.0732C71.9602 47.0798 72.2195 46.6379 71.8764 46.4016Z" fill="#88524C"/>
</g>
<g style="mix-blend-mode:multiply" opacity="0.2">
<path d="M51.8571 37.5171C51.4811 38.4327 51.6037 39.4962 51.5615 40.4727C51.539 40.973 51.5736 41.4714 51.5797 41.9708C51.589 42.2921 51.7474 42.8446 51.5288 43.1004C51.3102 43.3562 51.6356 43.6797 51.9033 43.5672C52.7742 43.2045 52.841 42.0036 52.9324 41.2068C53.1122 39.9738 53.3649 38.6676 52.8914 37.5129C52.8453 37.4144 52.772 37.3312 52.6802 37.273C52.5883 37.2148 52.4817 37.1842 52.373 37.1846C52.2642 37.185 52.1579 37.2166 52.0665 37.2755C51.9751 37.3344 51.9024 37.4182 51.8571 37.5171Z" fill="#88524C"/>
</g>
<g style="mix-blend-mode:multiply" opacity="0.2">
<path d="M51.6841 26.8919C51.5702 28.116 51.3165 29.3207 51.207 30.5412C51.1498 31.7548 51.1804 32.9708 51.2986 34.1799C51.3442 34.8742 52.2768 34.725 52.4033 34.1632C52.6185 32.9401 52.6895 31.6961 52.615 30.4564C52.7018 29.2619 52.6483 28.0613 52.4559 26.8793C52.3547 26.4708 51.7271 26.4264 51.6841 26.8919Z" fill="#88524C"/>
</g>
<g style="mix-blend-mode:multiply" opacity="0.2">
<path d="M71.2859 58.9621C70.1323 58.9816 69.0098 58.9031 67.8623 58.8665C66.7149 58.8299 65.7347 58.7102 64.6559 58.7501C63.5772 58.7899 62.68 58.874 61.6521 58.9681C61.2943 59.014 61.289 59.6175 61.6584 59.6134C63.5878 59.6378 65.5146 59.7651 67.4305 59.9949C68.4089 60.094 69.422 60.2457 70.4003 60.2719C71.2465 60.3749 72.0984 60.4236 72.9507 60.4177C73.0316 60.4016 73.1079 60.3682 73.1746 60.3198C73.2412 60.2713 73.2966 60.209 73.3368 60.1371C73.3771 60.0652 73.4013 59.9855 73.4077 59.9033C73.4142 59.8212 73.4028 59.7386 73.3742 59.6613C73.0661 58.9586 71.9882 58.9539 71.2859 58.9621Z" fill="#88524C"/>
</g>
<path opacity="0.2" d="M40.2827 33.0735C39.0406 32.236 37.8349 31.9173 36.4876 32.7426C34.9749 33.6714 36.3581 36.1057 37.9223 35.669C38.1703 35.9034 38.4318 36.123 38.7057 36.3265C39.2866 36.8719 39.8155 37.4701 40.2856 38.1134C41.1954 39.4294 43.1191 38.3389 42.9898 36.93C42.8048 35.1786 41.71 34.0328 40.2827 33.0735Z" fill="white"/>
<path opacity="0.2" d="M47.1306 43.6115C46.7921 43.3804 46.378 43.2879 45.9735 43.3529C45.5689 43.4179 45.2046 43.6355 44.9556 43.9609C44.7175 44.297 44.6208 44.7131 44.6861 45.1197C44.7514 45.5264 44.9736 45.8913 45.305 46.1359C46.3163 46.786 46.8743 47.9824 47.6812 48.8695C47.9442 49.1973 48.3266 49.4071 48.7443 49.4529C49.1621 49.4987 49.5809 49.3767 49.9086 49.1137C50.2364 48.8507 50.4463 48.4683 50.492 48.0506C50.5378 47.6329 50.4158 47.2141 50.1528 46.8863C49.3313 45.6529 48.4606 44.3492 47.1306 43.6115Z" fill="white"/>
<path opacity="0.2" d="M54.5946 53.0048C54.2782 52.7106 53.944 52.4307 53.632 52.133C53.4237 51.8894 53.1304 51.7343 52.8119 51.6994C52.4933 51.6645 52.1734 51.7523 51.9173 51.945C51.6676 52.1491 51.508 52.4432 51.4728 52.7639C51.4377 53.0845 51.5298 53.4062 51.7293 53.6596C52.3482 54.457 53.0652 55.1731 53.8634 55.791C54.0657 55.9553 54.3181 56.0453 54.5786 56.046C54.8392 56.0468 55.0921 55.9583 55.2954 55.7952C55.4986 55.6321 55.6398 55.4044 55.6955 55.1498C55.7513 54.8953 55.7181 54.6294 55.6015 54.3963C55.3768 53.8615 55.0323 53.3854 54.5946 53.0048Z" fill="white"/>
<path opacity="0.2" d="M67.8487 67.2007C66.2174 65.5866 64.5827 64.0411 62.9781 62.4421C62.7388 62.162 62.4016 61.9838 62.0354 61.9436C61.6692 61.9034 61.3014 62.0044 61.0071 62.226C60.7183 62.4596 60.5336 62.7978 60.4932 63.167C60.4527 63.5362 60.5597 63.9064 60.791 64.197C62.3466 65.8352 63.88 67.4913 65.3548 69.2018C66.8295 70.9122 68.1383 72.9166 69.9774 74.2616C70.2415 74.4387 70.5553 74.5269 70.873 74.5133C71.1907 74.4997 71.4957 74.3851 71.7437 74.1861C71.9918 73.9871 72.1698 73.7141 72.2519 73.4069C72.334 73.0997 72.3158 72.7743 72.2001 72.4781C71.2714 70.3734 69.4648 68.805 67.8487 67.2007Z" fill="white"/>
<path d="M87.6239 46.6199C87.9426 46.6346 88.0545 47.0928 87.7324 47.1467C85.4003 47.4722 83.0418 47.5681 80.691 47.4329C79.6733 47.481 78.6537 47.472 77.637 47.4062C77.1865 47.3365 76.672 47.3328 76.2383 47.2204C76.1978 47.2126 76.1584 47.2001 76.1208 47.1832C76.0646 47.3043 75.9812 47.4107 75.8771 47.4943C75.773 47.5778 75.651 47.6361 75.5207 47.6647C75.0548 47.7289 74.5842 47.752 74.1144 47.7336C73.5741 47.7797 73.042 47.8633 72.5089 47.9184C71.5151 47.9659 70.5194 47.8772 69.5497 47.6547C68.5106 47.4435 67.2277 47.2745 66.3106 47.6888C66.281 47.7024 66.25 47.7126 66.2181 47.7192C66.1159 49.0946 65.2093 50.5602 64.7023 51.4493C64.106 52.5227 63.358 53.5044 62.4812 54.3641C62.0725 54.7632 61.6258 55.1216 61.1476 55.4342C60.5524 55.7455 59.9337 56.0098 59.2973 56.2246C59.3005 56.2448 59.2996 56.2653 59.2947 56.2851C59.2909 56.4007 59.281 56.516 59.265 56.6306C60.0084 56.7648 60.7615 56.8109 61.4934 56.9397C62.8075 57.153 64.1335 57.2848 65.4639 57.3345C66.7742 57.4011 68.0704 57.523 69.3718 57.5238C70.5272 57.5247 71.6521 57.3967 72.7967 57.3479C73.5672 57.2428 74.3512 57.3797 75.0404 57.7398C75.244 57.8874 75.4153 58.0751 75.5436 58.2914C75.6719 58.5077 75.7545 58.7479 75.7864 58.9974C78.2894 59.6124 79.7894 62.1648 80.7746 64.4946C81.382 65.9802 81.8178 67.516 82.4279 69.014C82.77 69.8502 83.1895 70.6463 83.561 71.4736C83.7985 71.8757 83.8832 72.3498 83.7998 72.8093C83.767 72.917 83.7133 73.0172 83.6417 73.1041C83.9735 73.5176 84.2225 73.9827 84.556 74.4166C85.046 75.0166 85.5775 75.5816 86.1465 76.1073C87.4111 77.2744 88.7959 78.3042 90.2775 79.1794C91.6942 80.0888 93.1356 80.9198 94.6108 81.7019C95.9796 82.4823 97.3997 83.169 98.8614 83.7572C99.2275 83.8947 99.1009 84.42 98.7528 84.3778C97.2207 84.1895 95.5913 83.2608 94.1643 82.557C92.6914 81.8132 91.2619 80.9865 89.8827 80.0807C87.119 78.2938 84.6076 76.2386 83.0269 73.2759C82.6291 73.1522 82.2586 72.9533 81.9357 72.6901C80.7746 71.8532 80.2158 70.7379 79.7091 69.4052C79.1525 67.9373 78.9945 66.4199 78.3924 64.9592C78.0994 64.2297 77.6267 63.5494 77.2794 62.8343C76.7628 61.9781 75.9435 61.3471 74.9838 61.0663C74.9206 61.0473 74.8618 61.016 74.8108 60.9742C74.7597 60.9324 74.7173 60.881 74.6862 60.8228C74.3756 60.9253 74.0493 60.9719 73.7224 60.9604C72.599 60.9264 71.4175 60.7199 70.2824 60.6076C68.7815 60.4674 67.2724 60.2533 65.7787 60.1584C64.4098 59.9813 63.0278 59.9262 61.6492 59.9935C62.2492 60.0978 62.8415 60.2427 63.422 60.4271C64.6906 60.7581 65.9107 61.2531 67.0514 61.8994C69.7374 63.3613 72.0384 65.4393 73.7655 67.9629C75.3141 70.2937 76.4708 73.0193 76.6047 75.718C76.7011 77.0452 76.3566 78.367 75.6248 79.4784C74.6005 81.0505 73.1006 82.254 71.3439 82.9134C70.1003 83.387 68.7352 83.4369 67.4605 83.0552C64.8594 82.3362 62.4491 80.6165 60.5093 78.5996C58.4164 76.3699 56.8845 73.6739 56.0401 70.7347C55.6563 69.4811 55.4374 68.1828 55.3891 66.8726C55.3371 66.2658 55.324 65.6563 55.35 65.0479C54.9874 66.3796 54.7418 67.7405 54.6162 69.115C54.3852 70.5939 54.2672 72.1135 54.0833 73.6056C53.947 74.738 53.8954 75.9486 53.678 77.0438C53.6186 77.3637 53.504 77.6708 53.3393 77.9513C53.439 78.0402 53.4997 78.1649 53.508 78.2982C53.5743 79.296 54.0128 80.2325 54.7367 80.9223C55.3596 81.4163 55.9257 82.0217 56.5699 82.4693C57.8655 83.3736 59.3126 83.8566 60.6294 84.7145C61.8128 85.3734 62.763 86.3826 63.3494 87.6035C63.5364 87.9758 63.6503 88.3805 63.6849 88.7958C66.2481 90.9701 67.697 93.8778 68.8426 96.9631C69.4305 98.5049 69.928 100.08 70.3324 101.679C70.7103 103.225 71.2683 105.013 71.1157 106.554C71.0815 106.903 70.5412 106.912 70.4864 106.525C70.2313 104.97 69.8686 103.435 69.4008 101.93C68.957 100.32 68.458 98.7332 67.8771 97.1532C67.3427 95.5171 66.6391 93.9412 65.7776 92.4511C65.3837 91.7843 64.9459 91.1445 64.4672 90.5357C64.1105 90.0911 63.7246 89.765 63.384 89.3588C63.2836 89.4098 63.1742 89.4405 63.0619 89.4491C62.5964 89.4262 62.1535 89.2414 61.8096 88.9267C61.0825 88.3847 60.4007 87.7992 59.6541 87.2875C58.3345 86.3806 56.9296 85.6225 55.6002 84.6943C53.5402 83.2562 51.3689 81.2423 51.3144 78.6335C51.0778 78.5483 50.8611 78.4156 50.6777 78.2435C50.4944 78.0714 50.3483 77.8635 50.2483 77.6327C50.0461 76.8819 50.0823 76.0868 50.3518 75.3574C50.6475 74.2506 51.0207 73.1765 51.2656 72.052C51.5513 70.7778 51.7203 69.4949 51.9276 68.1959C52.1673 66.8863 52.3259 65.5633 52.4025 64.2342C52.4281 63.4829 52.5499 62.7421 52.5835 61.9917C52.4682 61.9825 52.3535 61.9672 52.2399 61.9459L52.1846 61.9317C51.8349 62.5073 51.4414 63.0551 51.0076 63.5704C50.5988 63.9695 50.1522 64.3279 49.674 64.6405C48.6448 65.3101 47.5243 65.8277 46.3472 66.1772C45.3694 66.4795 43.7422 67.0471 42.3773 66.8488C42.364 66.8785 42.3473 66.9066 42.3276 66.9325C41.7288 67.7345 41.6114 69.0271 41.5925 70.0873C41.5996 71.0822 41.4705 72.0734 41.2087 73.0333C41.0581 73.556 40.8497 74.0521 40.6804 74.5606C40.5966 75.0233 40.4721 75.4777 40.3085 75.9186C40.2524 76.0396 40.169 76.1461 40.0649 76.2296C39.9608 76.3132 39.8388 76.3715 39.7084 76.4001C39.7167 76.4405 39.7204 76.4817 39.7193 76.5229C39.735 76.9706 39.6272 77.4737 39.5976 77.9286C39.4433 78.9358 39.2311 79.9332 38.9619 80.9159C38.5845 83.2402 37.98 85.5218 37.1569 87.7279C37.039 88.0272 36.6114 87.8222 36.6706 87.5043C36.871 86.4154 36.9843 85.3453 37.2631 84.2812C37.542 83.2171 37.7151 82.2671 37.9361 81.2494C38.1572 80.2317 38.4325 79.2361 38.6652 78.2237C38.7511 77.5168 38.8821 76.8162 39.0573 76.126C38.5822 75.6158 38.5148 74.6029 38.4276 74.0298C38.2776 72.9058 38.2676 71.7676 38.3978 70.6412C38.4964 69.665 38.7052 68.7032 39.0203 67.7741C39.3065 66.9013 39.5774 65.9093 40.311 65.3573L40.3643 65.3145C39.787 63.7389 42.4456 63.0087 43.5474 62.9065C44.7926 62.7917 46.0359 62.6928 47.2658 62.4952C48.7608 62.2456 49.1153 61.1573 49.4508 59.8724C48.8324 58.9246 48.4308 57.852 48.2748 56.7311C48.21 56.1717 48.2026 55.6071 48.2527 55.0461C47.8312 55.0464 47.4107 55.0044 46.9975 54.9207C45.7285 54.5529 44.5625 53.8948 43.5918 52.9985C42.8479 53.4349 42.0225 53.7143 41.1665 53.8192C40.0121 53.8471 38.8576 53.7653 37.7187 53.575C36.4441 53.4027 35.2351 52.9058 34.2077 52.1319C33.8933 51.8584 33.6034 51.558 33.3412 51.2341C33.3046 51.2711 33.2581 51.2967 33.2072 51.3077C33.1563 51.3187 33.1033 51.3146 33.0547 51.2959C32.3262 51.0255 31.5948 51.1886 30.8745 51.1015C30.3617 51.0453 29.8471 50.9321 29.3343 50.8759C28.1597 50.8128 26.9965 50.6132 25.8682 50.281C24.8494 49.922 23.8643 49.5504 22.8668 49.1451C22.4029 49.0027 21.9885 48.7324 21.6712 48.3653C21.0992 48.6269 20.2863 48.4608 19.6597 48.5178C18.6148 48.5816 17.5894 48.6151 16.5266 48.5838C15.4637 48.5524 14.3599 48.4881 13.2757 48.4665C12.4153 48.4945 11.5558 48.3907 10.7268 48.1587C10.457 48.0683 10.4857 47.6214 10.7456 47.6175C12.6546 47.6105 14.5684 47.6096 16.4869 47.6145C18.1612 47.6156 19.8974 47.3113 21.5927 47.6756C21.8207 47.1492 22.7658 46.9974 23.2232 46.93C24.361 46.8073 25.5082 46.8 26.6475 46.9081C27.935 47.0522 29.196 47.376 30.3936 47.8702C31.0789 48.1046 31.7371 48.4119 32.3568 48.7868C32.5766 48.15 33.6603 48.4716 34.2721 48.6238C35.5668 48.9806 36.843 49.4327 38.1262 49.7842C38.8391 50.0227 39.5925 50.1163 40.3421 50.0596C40.4827 50.0345 40.6126 49.996 40.7461 49.962C40.435 49.3599 40.2174 48.7141 40.1006 48.0465C39.9339 47.2553 39.8714 46.4456 39.9146 45.6381C39.3146 45.8911 38.6685 46.0163 38.0175 46.0058C36.0653 45.9499 34.4326 44.5343 33.3477 42.818C32.1976 41.0399 31.6214 38.9515 31.6967 36.8352C31.7175 36.4239 31.7453 35.9851 31.7909 35.5319C30.8966 35.665 29.76 35.1228 29.0044 34.5818C27.7489 33.6819 27.883 32.2736 27.8456 30.9883C27.7945 29.5677 27.7824 27.3852 26.6832 26.2065C26.0798 25.6144 25.3598 25.1544 24.569 24.8557C23.9485 24.6932 23.3618 24.4216 22.8365 24.0535C22.6974 23.8802 22.7744 23.5845 22.9998 23.7106C23.5343 24.0125 24.1487 24.1406 24.6965 24.3953C25.2579 24.6402 25.7887 24.9501 26.2778 25.3187C27.1123 25.9736 27.726 26.8687 28.036 27.8833C28.2756 28.6004 28.4717 29.3313 28.6231 30.0721C28.7389 30.7538 28.7408 31.4392 28.8967 32.1252C29.2452 33.7162 30.6832 34.0239 31.9284 34.5375C31.9764 34.2338 32.0459 33.9338 32.1362 33.6399C32.3465 32.7133 32.9057 31.9034 33.6978 31.3785C33.9921 31.192 34.304 31.0347 34.629 30.909C35.3013 30.6239 36.0292 30.4944 36.7585 30.5302C36.6779 30.193 36.6392 29.8441 36.5773 29.5211C36.5742 29.1934 36.5224 28.868 36.4237 28.5556C36.2238 28.1971 35.7661 28.1186 35.4429 28.0345C34.1739 27.6881 32.9819 27.1049 31.9297 26.3154C29.6271 24.575 30.2122 21.716 30.4243 19.4121C30.4383 19.2474 30.6849 19.2906 30.6825 19.4607C30.6465 20.9224 30.7858 22.3832 31.0974 23.8119C31.4958 25.3921 33.3313 26.0677 34.6485 26.5527C35.5685 26.8887 36.927 26.9971 37.379 28.0886C37.6232 28.8955 37.7094 29.742 37.6327 30.5815C38.1704 30.6323 38.6922 30.7179 39.173 30.8071C41.2563 31.1906 43.1717 32.2044 44.6603 33.7116C46.0964 35.1462 47.1246 37.0469 46.7562 38.9647C46.6266 39.603 46.3643 40.2069 45.9862 40.7372C46.7823 40.8661 47.5583 41.0984 48.2943 41.4281C48.9219 41.6844 49.5057 42.037 50.0245 42.4733C50.0866 42.3503 50.1568 42.2283 50.2073 42.1C50.4271 41.3809 50.499 40.6247 50.4186 39.8771C50.3712 38.534 50.2064 37.1901 50.1208 35.8631C50.0896 35.2231 50.0123 34.116 50.6905 34.0322C50.4587 33.346 50.3013 32.6369 50.221 31.917C49.9981 30.6408 49.9551 29.3396 50.0934 28.0514C50.2347 26.9158 50.4905 25.7974 50.8567 24.7133C51.0217 24.2813 51.3746 23.3916 51.9424 23.2795C51.9585 21.5419 52.6273 19.9165 52.989 18.2817C53.3969 16.4101 53.8111 14.5432 54.2315 12.681C54.2925 12.4201 54.7341 12.4969 54.7639 12.78C54.8127 13.6395 54.7278 14.5015 54.5121 15.335C54.3027 16.3945 54.1361 17.4709 53.9222 18.534C53.7083 19.5972 53.4677 20.5722 53.1789 21.5784C53.008 22.176 52.9807 23.0163 52.5943 23.5091C52.8839 23.8984 53.058 24.3615 53.0964 24.8453C53.276 25.907 53.412 26.9598 53.555 28.0215C53.637 29.195 53.5799 30.3741 53.3848 31.5341C53.3321 32.0514 53.3311 32.5783 53.2758 33.0831C53.2003 33.8087 52.8826 34.4874 52.9932 35.2536C53.0004 35.3061 52.9923 35.3595 52.9698 35.4074C52.9473 35.4553 52.9113 35.4956 52.8663 35.5235C53.128 35.848 53.3586 36.1963 53.555 36.564C54.0869 37.7337 54.3115 39.0198 54.2076 40.3006C54.1427 41.4534 53.9725 42.5978 53.6989 43.7194C53.4103 44.5341 52.9572 45.2807 52.3678 45.9128C53.0374 47.0526 53.4275 48.3347 53.5064 49.6542C53.4986 50.0756 53.4485 50.4953 53.3569 50.9068C53.9163 50.9804 54.4672 51.1087 55.0015 51.2898C56.0595 51.6889 57.0177 52.3143 57.809 53.122C59.1316 53.0765 60.2797 52.9591 60.8429 51.5572C61.3023 50.3994 61.6682 49.207 62.0501 48.0164C62.3975 46.9557 63.6828 44.514 65.0905 45.4306L65.1439 45.3878C65.8417 44.7913 66.8653 44.7373 67.7873 44.6478C68.7627 44.5413 69.7469 44.5458 70.7212 44.6613C71.8504 44.7771 72.9609 45.0323 74.0273 45.4211C74.5679 45.6304 75.5421 45.9156 75.9373 46.4901C76.6476 46.4697 77.3586 46.4949 78.0657 46.5653C79.1044 46.5576 80.1351 46.5124 81.1775 46.5091C82.2198 46.5058 83.2488 46.5497 84.2831 46.5091C85.3174 46.4684 86.5174 46.5797 87.6239 46.6199ZM75.2727 46.7091C75.2387 46.6121 74.8291 46.4659 74.7249 46.418C74.3588 46.244 73.974 46.0924 73.6097 45.9389C72.6834 45.6234 71.7247 45.4122 70.7515 45.3093C69.8784 45.2006 68.9961 45.1881 68.1203 45.2722C67.2232 45.2635 66.3309 45.4041 65.4799 45.6882C65.5367 45.7496 65.5891 45.815 65.6368 45.8838C65.8735 46.1695 66.0394 46.5072 66.1207 46.8693C67.1723 46.5224 68.3984 46.8028 69.5435 47.0459C71.2397 47.3832 72.9845 47.3942 74.6849 47.0785C74.8397 47.0346 75.3737 46.9716 75.286 46.6984L75.2727 46.7091ZM52.226 24.2796C52.2116 24.2977 52.1934 24.3123 52.1726 24.3224C51.9235 24.3761 51.6631 25.272 51.6047 25.5088C51.333 26.4169 51.1206 27.3416 50.9687 28.2771C50.8352 29.38 50.8272 30.4945 50.9451 31.5991C50.994 32.1883 51.1283 32.7382 51.2235 33.3122C51.2649 33.6005 51.2662 33.8845 51.312 34.1692C51.729 34.3654 52.1049 34.6391 52.4196 34.9759C52.3825 34.4355 52.442 33.8929 52.5953 33.3734C52.7361 32.4558 52.8132 31.5295 52.8262 30.6012C52.8504 30.0849 52.9725 29.5996 53.0127 29.0851C53.0212 28.4961 52.9703 27.9078 52.8606 27.3291C52.7777 26.5244 52.6487 25.7251 52.4744 24.9352C52.4504 24.7631 52.4019 24.5953 52.3303 24.437C52.2376 24.3214 52.2375 24.2849 52.2429 24.2733L52.226 24.2796ZM80.4399 65.735C79.6406 63.2999 78.3199 60.4063 75.811 59.4014C75.8054 59.5706 75.7748 59.7381 75.72 59.8983C75.6556 60.0816 75.5544 60.2499 75.4226 60.3927C76.3544 60.7063 77.1745 61.2852 77.782 62.0583C78.0639 62.4824 78.2169 63.0101 78.4713 63.4637C78.7746 63.964 79.033 64.4903 79.2435 65.0363C80.0747 67.3654 80.1213 70.6383 82.4218 72.1757C82.69 72.3551 82.8185 72.5882 82.973 72.3254C83.1275 72.0626 82.7056 71.473 82.5619 71.1937C82.2486 70.5756 81.9895 69.9431 81.7234 69.3017C81.2321 68.1248 80.8244 66.9246 80.4399 65.735ZM65.4282 46.8988C65.1427 45.8052 64.2645 46.0495 63.7687 46.652C63.0845 47.4932 63.0479 48.6407 62.778 49.6976C62.5441 50.641 62.2072 51.5558 61.7734 52.4255C61.2018 53.5346 59.7997 54.0093 58.4662 53.932C58.7503 54.3666 58.9701 54.8399 59.1189 55.3374C59.5281 55.1917 59.9383 55.0745 60.327 54.8942C60.8334 54.6252 61.3083 54.3006 61.7427 53.9263C62.6485 53.2056 63.4068 52.3169 63.9758 51.3088C64.5249 50.4484 64.9728 49.5275 65.3105 48.5644C65.5025 48.0306 65.5432 47.4542 65.4282 46.8988ZM74.7667 58.6464C74.435 58.2329 73.5725 58.2965 73.1782 58.306C71.9668 58.3353 70.7859 58.5302 69.5745 58.5596C68.2082 58.5963 66.864 58.5421 65.4736 58.4667C64.1607 58.4099 62.8534 58.2625 61.5608 58.0256C60.9512 57.9211 60.3512 57.7672 59.7666 57.5653C59.5464 57.4852 59.3348 57.3833 59.135 57.2609C59.097 57.423 59.0545 57.5886 59.004 57.7534C59.8692 57.9813 60.6327 58.4933 61.1718 59.2073L61.194 59.1895C62.4115 59.0311 63.7667 59.3175 65.0139 59.4421C66.2611 59.5667 67.6939 59.9589 69.04 60.1065C70.4753 60.2585 71.9187 60.3207 73.3618 60.2925C74.057 60.2754 75.5934 59.7222 74.7667 58.6464ZM53.4008 41.9272C53.6108 40.0122 53.8151 37.3344 52.1172 35.7738C51.9256 35.5988 51.7242 35.4389 51.5272 35.2754C51.3303 35.1119 51.2205 34.893 51.1085 35.0267C50.9299 35.2504 51.1621 36.3868 51.1865 36.6449C51.2849 37.5598 51.352 38.4631 51.4086 39.3897C51.4681 40.5111 51.5659 42.3179 50.8302 43.2225C51.2917 43.7775 51.6892 44.3827 52.015 45.0268C52.0594 44.9911 52.1083 44.9519 52.1528 44.9162C52.3065 44.7344 52.4388 44.5259 52.5738 44.3299C53.0413 43.6084 53.3252 42.7835 53.4008 41.9272ZM72.2799 68.5704C70.8183 66.4479 68.9137 64.6677 66.6975 63.3526C65.7609 62.7722 64.7658 62.2921 63.7286 61.9203C63.2147 61.7261 62.7098 61.5613 62.1835 61.3698L61.9269 61.2687C61.9265 61.4403 61.881 61.6088 61.795 61.7573C61.7089 61.9058 61.5854 62.0292 61.4368 62.115C61.3081 62.8401 61.0143 63.5259 60.578 64.1193C60.1418 64.7127 59.5748 65.1977 58.921 65.5367C58.3117 65.7983 57.6276 65.8271 56.9984 65.6178C56.8389 65.6596 56.6722 65.6662 56.5098 65.6372L56.5529 65.9096C56.6436 66.4506 56.6862 66.9864 56.7556 67.5373C56.8964 68.6299 57.1494 69.7052 57.5106 70.746C58.3133 73.1948 59.6404 75.4393 61.3993 77.3228C63.001 79.054 64.9817 80.391 67.1863 81.2291C69.395 82.0145 71.0003 81.0918 72.7483 80.3104C73.8934 78.7777 75.1385 77.406 74.8458 75.0832C74.5022 72.744 73.6241 70.5154 72.2799 68.5704ZM44.0193 34.8252C43.8802 34.6518 43.7446 34.4829 43.5824 34.3354C42.6793 33.3911 41.586 32.6493 40.3748 32.1593C40.1883 32.3678 40.0499 32.6147 39.9694 32.8826C39.8889 33.1505 39.8682 33.4329 39.9089 33.7096C40.1943 34.5657 40.757 35.3022 41.5079 35.8026C41.8035 35.9381 42.1242 36.0099 42.4493 36.0134C42.7744 36.0169 43.0966 35.9521 43.395 35.823C43.5766 35.725 43.7296 35.5815 43.839 35.4066C43.9484 35.2317 44.0105 35.0313 44.0193 34.8252ZM45.3523 38.827C45.6799 37.6507 45.2385 36.4995 44.5231 35.4805C44.4529 35.8253 44.2641 36.1345 43.9895 36.3545C43.615 36.5961 43.1891 36.7465 42.746 36.7937C42.3028 36.8409 41.8548 36.7835 41.4379 36.6261C40.3621 36.269 39.6912 35.2142 39.2277 34.1904C39.0731 33.8074 39.0017 33.3959 39.0183 32.9832C39.0349 32.5705 39.1391 32.1661 39.3239 31.7967L39.1512 31.7453C38.9499 31.6949 38.7416 31.6356 38.5243 31.5834C38.4077 31.5746 38.3035 31.5632 38.2038 31.5482C37.6766 31.4379 37.1399 31.3791 36.6013 31.3725C35.7148 31.3972 34.8518 31.6628 34.1048 32.1408C33.7143 32.4086 33.3811 32.7514 33.1245 33.1492C32.8679 33.5471 32.693 33.992 32.6101 34.4582C32.5401 35.2988 32.5315 36.1434 32.5844 36.9852L32.5971 37.165C32.9977 37.0646 33.4151 37.0505 33.8216 37.1238C34.2281 37.197 34.6144 37.3558 34.9548 37.5898C35.8583 38.2605 36.7382 39.1475 36.8537 40.2751C36.917 40.7163 36.876 41.1661 36.7339 41.5885C36.5919 42.0109 36.3527 42.3941 36.0357 42.7073C35.7614 42.9277 35.4186 43.045 35.0668 43.0389C35.9067 43.9581 36.9348 44.6384 38.1542 44.5734C39.7243 44.4901 41.0473 43.5162 42.2772 42.7267C42.3433 42.6794 42.4206 42.6501 42.5014 42.6418C42.5256 42.5661 42.5695 42.4981 42.6284 42.4449C43.6933 41.4223 44.9352 40.3382 45.3523 38.827ZM50.6895 45.5788C50.01 44.4582 49.029 43.5512 47.8586 42.9615C46.9524 42.5431 46.019 42.1862 45.0648 41.893C44.5368 42.4157 43.9557 42.8819 43.3311 43.2841C43.2659 43.3314 43.1882 43.3582 43.1078 43.361C43.086 43.4403 43.0416 43.5115 42.9799 43.5659C42.4519 44.0886 41.8708 44.5548 41.2462 44.957C41.3256 45.9521 41.4719 46.9406 41.684 47.916C42.0061 49.1864 42.6789 50.3405 43.6257 51.2467C44.482 52.294 45.5593 53.1389 46.7803 53.7211C47.9252 54.0585 49.156 53.9423 50.2175 53.3966C50.271 53.3693 50.3315 53.359 50.391 53.3669L50.5511 53.2385C50.8489 52.9995 51.1066 52.7197 51.3867 52.4584C52.1369 51.5448 52.5085 50.3784 52.4251 49.1991C52.1209 47.879 51.5282 46.6427 50.6895 45.5788ZM57.2183 54.6263C56.6337 53.8621 55.8844 53.2394 55.026 52.8047C54.3865 52.4649 53.6996 52.2229 52.9883 52.0867C52.7698 52.5025 52.4232 52.8369 51.9999 53.0406C51.5815 53.4284 51.1423 53.793 50.6841 54.1329L50.5952 54.2042C50.3059 54.543 49.9218 54.7875 49.4925 54.9064C49.4685 55.6304 49.556 56.3538 49.752 57.0512C49.9905 57.9833 50.436 58.8497 51.0552 59.5861C51.3578 59.9187 51.7362 60.1733 52.1583 60.3282C52.5803 60.4832 53.0335 60.534 53.4794 60.4763C54.0431 60.3686 54.6247 60.4045 55.1708 60.5806C55.3716 60.4854 55.5673 60.3797 55.7569 60.2638C56.3432 59.8523 56.8681 59.3597 57.3161 58.8008C57.2787 58.2427 57.3734 57.6836 57.5923 57.1688C57.7389 56.7458 57.7818 56.2938 57.7175 55.8508C57.6532 55.4078 57.4835 54.9866 57.2228 54.6227L57.2183 54.6263ZM60.1755 59.6414C59.8138 59.1323 59.3141 58.7371 58.7354 58.5023C58.394 59.6443 57.6926 60.6454 56.7359 61.3563C56.0975 61.811 55.3083 62.0018 54.5327 61.8892L54.4749 61.899C54.5801 62.5207 54.8596 63.0997 55.2811 63.5686C55.5236 63.8709 56.6956 64.2386 57.2543 64.6526C57.5178 64.7026 57.7889 64.6959 58.0496 64.6329C58.3103 64.5699 58.5545 64.4521 58.7661 64.2872C59.4003 63.7807 59.8942 63.1202 60.2008 62.3687C60.3507 61.9635 60.4524 61.553 60.6014 61.1558C60.5143 60.6365 60.3731 60.1277 60.1799 59.6378L60.1755 59.6414ZM36.0623 40.1722C35.7319 39.3329 35.1339 38.626 34.361 38.1612C34.0996 38.0615 33.8195 38.0205 33.5405 38.0411C33.2615 38.0616 32.9904 38.1433 32.7465 38.2801C32.9652 39.568 33.4522 40.7955 34.1759 41.8831C34.3115 42.052 34.447 42.2209 34.5594 42.4157C34.7626 42.4518 34.9716 42.4346 35.1661 42.3656C35.3606 42.2967 35.5338 42.1784 35.6689 42.0224C35.8613 41.7585 35.9962 41.4571 36.0648 41.1378C36.1333 40.8184 36.134 40.4882 36.0667 40.1686L36.0623 40.1722ZM53.7006 62.0087C53.5289 62.0223 53.358 62.0279 53.1871 62.0335C53.2657 62.2544 53.3195 62.4833 53.3474 62.716C53.4178 63.3305 53.438 63.9496 53.4079 64.5674C53.3592 65.8806 53.2198 67.1888 52.9908 68.4827C52.7489 69.8387 52.5248 71.1805 52.1974 72.5028C51.9018 73.6826 51.4601 74.7897 51.169 75.966C51.0698 76.3524 50.8165 77.1842 51.1571 77.5905C52.0283 78.6306 52.8968 77.2541 53.0605 76.5747C53.4007 75.172 53.6528 73.7494 53.8153 72.3153C53.9629 70.9692 53.8879 69.5825 54.0391 68.2409C54.1902 66.8992 54.2017 65.6112 54.6424 64.4392C54.0661 63.7558 53.736 62.8986 53.7051 62.0052L53.7006 62.0087ZM51.2816 61.626C50.8279 61.3739 50.4146 61.0553 50.0554 60.6807C49.8491 62.0081 49.0881 63.2545 47.8637 63.5865C46.9204 63.8201 45.9545 63.9508 44.983 63.9761C43.8926 64.0107 42.7645 63.7978 41.795 64.2834C41.1172 64.6226 40.6885 65.427 41.6764 65.957C42.1954 66.1892 42.7686 66.2731 43.3324 66.1994C44.3476 66.0784 45.3453 65.8394 46.3052 65.4874C47.4111 65.1516 48.4416 64.6051 49.34 63.8781C49.7995 63.5351 50.2193 63.1419 50.5916 62.7058C50.8652 62.3547 51.0729 61.9761 51.2816 61.626ZM42.796 52.4167C42.2366 51.9603 41.7304 51.4424 41.2868 50.8727C40.2221 51.4128 38.4964 50.9195 37.4198 50.6068C36.5417 50.3687 35.6788 50.1038 34.7883 49.7953C34.5416 49.7156 33.4825 49.2427 33.2255 49.3686C33.0796 49.4418 33.2632 49.616 33.3775 49.8312C33.4917 50.0464 33.6069 50.2902 33.7363 50.5152C34.883 52.5181 37.5459 52.8952 39.4653 53.1016C40.325 53.2015 41.1961 53.0896 42.0026 52.7756C42.2276 52.6827 42.4554 52.6023 42.6706 52.488C42.7198 52.462 42.7676 52.4334 42.8138 52.4024L42.796 52.4167ZM32.8419 50.6482C32.5814 50.2681 32.3956 49.8418 32.2945 49.3922C32.0264 49.2857 31.7539 49.2194 31.4814 49.1165C30.9328 48.9064 30.4339 48.649 29.8649 48.4771C28.8136 48.1216 27.7254 47.8867 26.6211 47.7768C25.6733 47.7236 24.7231 47.7318 23.7763 47.8015C23.5432 47.8205 22.6122 47.8806 22.495 48.0988C22.4816 48.1151 22.4649 48.1285 22.4461 48.1381C22.4461 48.1381 22.4897 48.1469 22.5655 48.2323C22.7046 48.3364 22.8579 48.4202 23.0207 48.4808C23.7551 48.8199 24.5073 49.1189 25.274 49.3766C25.8153 49.609 26.3785 49.7862 26.9553 49.9055C27.4664 49.9778 27.9711 49.9601 28.4759 50.052C29.3853 50.2384 30.3061 50.3637 31.2323 50.4272C31.7828 50.3971 32.3342 50.4672 32.8597 50.634L32.8419 50.6482ZM62.71 87.9996C61.7075 85.4206 58.5269 84.6624 56.4288 83.3499C55.9414 83.0261 55.4836 82.6598 55.0608 82.2552C54.6731 81.9087 54.1956 81.6414 53.8382 81.2779C53.2151 80.5172 52.8277 79.5913 52.7234 78.6136C52.5551 78.7105 52.369 78.7728 52.1763 78.7969C52.008 78.8156 51.8379 78.8093 51.6715 78.778C52.1089 81.4451 54.6299 83.3756 56.8517 84.6693C57.9297 85.3024 59.0175 85.9568 60.0448 86.6817C60.6133 87.0805 61.1746 87.4705 61.7103 87.9103C61.9482 88.1067 62.4225 88.6614 62.7259 88.5568C63.0293 88.4522 62.8092 88.2781 62.71 87.9996ZM40.6875 65.954C40.6307 65.8925 40.5782 65.8272 40.5305 65.7584C40.0161 66.4196 39.812 67.4311 39.5523 68.246C39.2802 69.0812 39.1027 69.9443 39.0229 70.8192C38.9088 71.7924 38.9058 72.7755 39.0138 73.7495C39.0714 74.149 39.136 74.5575 39.2399 74.9419C39.2676 75.0584 39.3217 75.4901 39.4098 75.5362C39.6531 75.6845 39.8544 75.1795 39.8845 75.0531C40.5617 73.4618 40.929 71.7558 40.9667 70.0268C40.9846 68.8652 40.9765 67.6074 41.5359 66.6471C41.1936 66.482 40.8964 66.2366 40.6696 65.9318L40.6875 65.954Z" fill="black"/>
</svg>
