<svg width="98" height="85" viewBox="0 0 98 85" fill="none" xmlns="http://www.w3.org/2000/svg">
<path d="M8.30052 35.4364H51.3208C59.3548 35.4364 57.9417 29.39 52.9624 24.0414C43.9862 14.3969 42.3708 3.72579 49.3367 0C54.1638 4.25804 77.5593 35.6516 92.0191 35.6516H97.9097V71.5115C97.9097 71.5115 80.7805 84.9953 70.5982 84.9953H44.9045C44.3596 85.0076 43.8166 84.9276 43.2987 84.7587C41.9808 84.4222 40.8078 83.6707 39.9548 82.6166C39.1019 81.5625 38.6148 80.2622 38.5664 78.9102C38.5179 77.5581 38.9107 76.2267 39.686 75.1149C40.4613 74.0031 41.5776 73.1705 42.8681 72.7416H41.1551C39.6535 72.7465 38.1991 72.2199 37.0523 71.256C35.9054 70.2921 35.141 68.9539 34.8957 67.4808C34.6505 66.0077 34.9405 64.4959 35.7137 63.2159C36.487 61.936 37.6932 60.9715 39.1163 60.495H35.7999C34.2993 60.4988 32.8463 59.9718 31.7005 59.0083C30.5547 58.0448 29.7908 56.7075 29.5454 55.2355C29.3 53.7635 29.5891 52.2527 30.3609 50.9731C31.1328 49.6935 32.3371 48.7286 33.7587 48.2507H8.30291C4.80095 48.2507 0.00241072 45.4262 0.00241072 41.9441C0.00241072 38.462 4.79857 35.4364 8.30052 35.4364Z" fill="black"/>
</svg>
