<svg width="119" height="119" viewBox="0 0 119 119" fill="none" xmlns="http://www.w3.org/2000/svg">
<path d="M88.2622 88.7996C105.085 72.2595 105.782 45.6768 89.8208 29.4255C73.8591 13.1743 47.2823 13.4084 30.4598 29.9485C13.6374 46.4886 12.9395 73.0714 28.9012 89.3226C44.8628 105.574 71.4397 105.34 88.2622 88.7996Z" fill="#1C75BC"/>
<path d="M88.2622 88.7996C105.085 72.2595 105.782 45.6768 89.8208 29.4255C73.8591 13.1743 47.2823 13.4084 30.4598 29.9485C13.6374 46.4886 12.9395 73.0714 28.9012 89.3226C44.8628 105.574 71.4397 105.34 88.2622 88.7996Z" fill="#1C75BC"/>
<g style="mix-blend-mode:multiply" opacity="0.5">
<path d="M58.2391 90.4394C68.5357 90.3549 78.474 86.6467 86.3116 79.965C94.1491 73.2832 99.3858 64.0542 101.103 53.8962C101.658 59.9134 100.951 65.9801 99.0297 71.7088C97.1082 77.4375 94.0135 82.7022 89.9435 87.1667C85.8734 91.6312 80.9176 95.1972 75.3923 97.6371C69.867 100.077 63.8937 101.337 57.8542 101.337C52.4012 101.375 46.9973 100.305 41.9706 98.1899C36.9438 96.0749 32.3992 92.9598 28.6127 89.0336C24.8262 85.1073 21.8769 80.4521 19.9438 75.3504C18.0107 70.2487 17.1343 64.8072 17.3676 59.3562C17.4219 57.5258 17.6035 55.7014 17.9111 53.8962C18.8305 63.9366 23.4861 73.2652 30.9553 80.0334C38.4245 86.8016 48.1622 90.5156 58.2391 90.4394Z" fill="#1C75BC"/>
</g>
<path d="M16.3259 59.3562C15.874 67.8082 18.0184 76.1961 22.471 83.3929C26.9236 90.5897 33.4711 96.2506 41.2338 99.6149C69.2211 111.486 101.579 90.1449 102.235 59.3562C102.456 51.0287 100.156 42.8288 95.6389 35.831C91.1216 28.8333 84.597 23.3639 76.9199 20.1396C49.5439 8.81193 17.6392 29.2018 16.3259 59.3562ZM18.3865 59.3562C18.7577 48.3019 23.3677 37.8148 31.2601 30.0701C39.1524 22.3254 49.7216 17.9176 60.7752 17.7608C67.5083 17.7833 74.1257 19.5141 80.0083 22.7914C85.891 26.0688 90.8467 30.7855 94.4118 36.5004C97.9769 42.2153 100.035 48.7415 100.393 55.4687C100.752 62.1959 99.3989 68.9041 96.4612 74.9658C91.8339 84.8767 83.6319 92.6703 73.5008 96.783C46.7589 107.59 17.594 87.97 18.3865 59.3562Z" fill="#1C75BC"/>
<g style="mix-blend-mode:multiply">
<path d="M16.3259 59.3562C15.874 67.8082 18.0184 76.1961 22.471 83.3929C26.9236 90.5897 33.4711 96.2506 41.2338 99.6149C69.2211 111.486 101.579 90.1449 102.235 59.3562C102.456 51.0287 100.156 42.8288 95.6389 35.831C91.1216 28.8333 84.597 23.3639 76.9199 20.1396C49.5439 8.81193 17.6392 29.2018 16.3259 59.3562ZM18.3865 59.3562C18.7577 48.3019 23.3677 37.8148 31.2601 30.0701C39.1524 22.3254 49.7216 17.9176 60.7752 17.7608C67.5083 17.7833 74.1257 19.5141 80.0083 22.7914C85.891 26.0688 90.8467 30.7855 94.4118 36.5004C97.9769 42.2153 100.035 48.7415 100.393 55.4687C100.752 62.1959 99.3989 68.9041 96.4612 74.9658C91.8339 84.8767 83.6319 92.6703 73.5008 96.783C46.7589 107.59 17.594 87.97 18.3865 59.3562Z" fill="#1C75BC"/>
</g>
<path d="M82.2403 82.6915C95.5662 69.5892 96.1155 48.5281 83.4672 35.6502C70.8188 22.7724 49.7624 22.9543 36.4364 36.0566C23.1105 49.1589 22.5611 70.22 35.2095 83.0979C47.8579 95.9757 68.9143 95.7938 82.2403 82.6915Z" fill="#262262"/>
<path d="M82.2403 82.6915C95.5662 69.5892 96.1155 48.5281 83.4672 35.6502C70.8188 22.7724 49.7624 22.9543 36.4364 36.0566C23.1105 49.1589 22.5611 70.22 35.2095 83.0979C47.8579 95.9757 68.9143 95.7938 82.2403 82.6915Z" fill="#262262"/>
<g style="mix-blend-mode:multiply" opacity="0.6">
<path d="M58.3523 86.8372C66.7522 86.7732 74.8439 83.6638 81.1271 78.0855C87.4103 72.5072 91.4585 64.8386 92.5213 56.5016C92.5213 57.4531 92.5213 58.4047 92.5213 59.3562C92.1494 68.2609 88.368 76.6813 81.9606 82.8728C75.5532 89.0642 67.0107 92.5523 58.1031 92.6144C53.7824 92.6459 49.5003 91.7984 45.517 90.1233C41.5337 88.4482 37.9323 85.9805 34.9314 82.8701C31.9306 79.7596 29.593 76.0713 28.0606 72.0291C26.5283 67.987 25.8331 63.6754 26.0173 59.3562C26.0173 58.4047 26.1306 57.4531 26.2438 56.5016C26.6469 64.7272 30.214 72.478 36.1986 78.1322C42.1831 83.7863 50.1215 86.9056 58.3523 86.8372Z" fill="#262262"/>
</g>
<path d="M25.3608 59.3562C25.1206 64.9174 26.2996 70.4482 28.7869 75.4274C31.2741 80.4066 34.9875 84.6701 39.5771 87.8161C44.1668 90.9621 49.4816 92.887 55.0206 93.4094C60.5595 93.9318 66.1402 93.0344 71.2366 90.8019C105.587 75.6228 97.503 26.6418 60.4809 25.6676C51.4404 25.7536 42.7732 29.287 36.247 35.5471C29.7209 41.8073 25.8275 50.3225 25.3608 59.3562ZM26.7647 59.3562C27.7157 30.2213 63.4019 15.5179 83.3735 36.157C103.345 56.7961 87.2681 91.7761 58.2618 91.7761C54.053 91.7719 49.8878 90.9231 46.0126 89.2801C42.1375 87.6371 38.631 85.2331 35.7007 82.2104C32.7704 79.1877 30.4758 75.6077 28.9526 71.6822C27.4293 67.7567 26.7085 63.5653 26.8326 59.3562H26.7647Z" fill="#262262"/>
<g style="mix-blend-mode:multiply">
<path d="M25.3608 59.3562C25.1206 64.9174 26.2996 70.4482 28.7869 75.4274C31.2741 80.4066 34.9875 84.6701 39.5771 87.8161C44.1668 90.9621 49.4816 92.887 55.0206 93.4094C60.5595 93.9318 66.1402 93.0344 71.2366 90.8019C105.587 75.6228 97.503 26.6418 60.4809 25.6676C51.4404 25.7536 42.7732 29.287 36.247 35.5471C29.7209 41.8073 25.8275 50.3225 25.3608 59.3562ZM26.7647 59.3562C27.7157 30.2213 63.4019 15.5179 83.3735 36.157C103.345 56.7961 87.2681 91.7761 58.2618 91.7761C54.053 91.7719 49.8878 90.9231 46.0126 89.2801C42.1375 87.6371 38.631 85.2331 35.7007 82.2104C32.7704 79.1877 30.4758 75.6077 28.9526 71.6822C27.4293 67.7567 26.7085 63.5653 26.8326 59.3562H26.7647Z" fill="#262262"/>
</g>
<path d="M75.7287 76.0403C85.3084 66.6214 85.7057 51.4835 76.616 42.229C67.5264 32.9744 52.3919 33.1076 42.8121 42.5265C33.2324 51.9455 32.8351 67.0834 41.9248 76.3379C51.0144 85.5925 66.149 85.4592 75.7287 76.0403Z" fill="#2C2B2D"/>
<path d="M59.009 70.7292C64.3221 70.6996 69.4865 68.9709 73.7477 65.7957C78.009 62.6205 81.1438 58.1652 82.6941 53.0806C83.174 55.1363 83.3795 57.2465 83.3054 59.3562C83.0437 65.7561 80.3291 71.8095 75.7249 76.26C71.1207 80.7105 64.9806 83.2164 58.5788 83.2577C55.4725 83.282 52.3937 82.6741 49.5295 81.4711C46.6652 80.268 44.0754 78.4948 41.9173 76.2593C39.7592 74.0238 38.0779 71.3726 36.9756 68.4668C35.8733 65.5611 35.373 62.4614 35.505 59.3562C35.581 57.2265 35.9388 55.1162 36.5693 53.0806C37.7553 58.1322 40.6223 62.6304 44.6997 65.8373C48.7771 69.0441 53.8228 70.7691 59.009 70.7292Z" fill="#231F20"/>
<path d="M32.3576 44.8341C32.3085 45.9807 32.4928 47.1254 32.8992 48.1987C33.3056 49.2719 33.9257 50.2514 34.7218 51.0776C35.518 51.9039 36.4736 52.5597 37.5308 53.0053C38.5879 53.4508 39.7244 53.6769 40.8715 53.6697C43.223 53.6312 45.4708 52.6948 47.1547 51.0522C48.8385 49.4096 49.831 47.185 49.9289 44.8341C49.978 43.6874 49.7938 42.5427 49.3874 41.4695C48.981 40.3962 48.3609 39.4167 47.5647 38.5905C46.7686 37.7642 45.8129 37.1084 44.7558 36.6629C43.6986 36.2173 42.5621 35.9913 41.415 35.9984C39.0636 36.0369 36.8157 36.9733 35.1319 38.6159C33.448 40.2585 32.4555 42.4831 32.3576 44.8341Z" fill="white"/>
<path d="M68.6778 80.0406C68.6503 80.7348 68.7635 81.4275 69.0109 82.0766C69.2583 82.7258 69.6346 83.3182 70.1171 83.8178C70.5996 84.3175 71.1783 84.7142 71.8182 84.9839C72.4582 85.2537 73.1461 85.3909 73.8405 85.3873C75.2755 85.3826 76.6533 84.8241 77.6868 83.828C78.7204 82.8319 79.3298 81.4752 79.3881 80.0406C79.4188 79.3475 79.3085 78.6554 79.0636 78.0063C78.8188 77.3571 78.4446 76.7646 77.9639 76.2646C77.4832 75.7645 76.906 75.3675 76.2672 75.0975C75.6284 74.8275 74.9414 74.6902 74.248 74.6939C72.8108 74.6983 71.4304 75.2561 70.3932 76.2517C69.3561 77.2472 68.7418 78.604 68.6778 80.0406Z" fill="white"/>
</svg>
