<svg width="98" height="85" viewBox="0 0 98 85" fill="none" xmlns="http://www.w3.org/2000/svg">
<path d="M89.6091 35.4364H46.5889C38.5548 35.4364 39.968 29.39 44.9473 24.0414C53.9235 14.3969 55.5388 3.72579 48.573 0C43.7459 4.25804 20.3504 35.6516 5.89052 35.6516H0V71.5115C0 71.5115 17.1291 84.9953 27.3114 84.9953H53.0051C53.5501 85.0076 54.0931 84.9276 54.611 84.7587C55.9289 84.4222 57.1019 83.6707 57.9548 82.6166C58.8078 81.5625 59.2949 80.2622 59.3433 78.9102C59.3918 77.5581 58.999 76.2267 58.2237 75.1149C57.4483 74.0031 56.3321 73.1705 55.0416 72.7416H56.7545C58.2562 72.7465 59.7105 72.2199 60.8574 71.256C62.0042 70.2921 62.7687 68.9539 63.0139 67.4808C63.2592 66.0077 62.9692 64.4959 62.1959 63.2159C61.4226 61.936 60.2165 60.9715 58.7934 60.495H62.1098C63.6103 60.4988 65.0634 59.9718 66.2092 59.0083C67.355 58.0448 68.1188 56.7075 68.3642 55.2355C68.6096 53.7635 68.3206 52.2527 67.5487 50.9731C66.7769 49.6935 65.5725 48.7286 64.151 48.2507H89.6068C93.1087 48.2507 97.9073 45.4262 97.9073 41.9441C97.9073 38.462 93.1111 35.4364 89.6091 35.4364Z" fill="black"/>
</svg>
