<svg width="88" height="90" viewBox="0 0 88 90" fill="none" xmlns="http://www.w3.org/2000/svg">
<path d="M32.0768 84.2436C32.0921 84.4753 32.0813 84.8185 32.5279 84.5619C32.6372 84.453 32.7253 84.3247 32.7878 84.1836C33.0253 83.7103 33.2195 83.2164 33.368 82.708C33.7431 81.6221 33.9857 80.5318 34.2528 79.4177C34.5873 78.1681 34.8355 76.8971 34.9958 75.6135C35.23 73.2672 34.6428 70.9732 34.8947 68.6406C34.8999 68.5966 34.9121 68.5536 34.9309 68.5135C34.7502 67.6566 34.5995 66.7934 34.4788 65.9239L34.3082 66.8083C34.1472 67.4322 34.0261 68.0658 33.9457 68.7051C33.8843 69.9582 33.8944 71.2137 33.9762 72.4657C34.0385 74.8743 33.5232 77.1927 32.9978 79.5266C32.7299 80.7134 32.3872 81.8959 32.174 83.094C32.0968 83.4721 32.0641 83.8579 32.0768 84.2436Z" fill="#4B3B3B"/>
<path d="M15.9559 53.4802C15.3907 53.6146 14.8506 53.8382 14.3557 54.1425C14.8374 54.5296 15.8763 54.4461 16.387 54.3975C17.1084 54.3029 17.8195 54.1412 18.5109 53.9147C20.0076 53.5341 21.4718 53.0359 22.89 52.4247C24.1757 51.7995 25.4114 51.0762 26.586 50.2612C27.226 49.8116 27.831 49.3142 28.396 48.7733C28.6872 48.4664 29.0104 48.1917 29.3602 47.9538C29.1087 47.7555 28.9131 47.495 28.7928 47.1982C28.549 47.3409 28.23 47.5276 28.1798 47.557C27.9109 47.7144 27.6385 47.8739 27.387 48.0692C26.7747 48.495 26.1959 48.9782 25.5983 49.4291C24.4871 50.3392 23.274 51.1172 21.9833 51.7473C20.672 52.2548 19.3149 52.635 17.9308 52.8825C17.2646 53.027 16.6131 53.2543 15.9559 53.4802Z" fill="#4B3B3B"/>
<path d="M37.7311 73.6754C38.7077 75.9195 40.0234 78.3068 42.1447 79.6449C42.6347 79.9878 43.1847 80.2357 43.7661 80.3756C44.6463 80.5391 44.6596 79.6408 44.6018 78.9912C44.4151 77.7007 44.1068 76.4307 43.6812 75.1982C42.9081 72.5703 42.0643 69.9693 41.4142 67.3128C40.8332 64.7832 40.4157 62.2189 40.1644 59.6357C39.8926 57.0416 39.8802 54.4304 39.5991 51.837C39.4641 50.5539 39.2 49.2886 39.0686 48.0034C38.9941 47.3893 38.8806 46.7805 38.7286 46.1809C38.6255 45.8041 38.5608 45.418 38.5352 45.0282C37.2114 44.1672 35.9528 43.2099 34.7697 42.1641L34.8165 42.7046C34.8786 43.4191 34.9299 44.14 34.9756 44.8593C35.072 46.3479 35.1457 47.8305 35.1381 49.3223C35.1276 52.2645 34.9819 55.1895 35.0596 58.1427C35.195 63.4061 35.6017 68.8043 37.7311 73.6754ZM41.9608 77.2257C41.5239 76.5615 41.2098 75.8243 41.0333 75.0491C40.8522 74.1782 40.6164 73.3195 40.3273 72.4782C39.9917 71.5235 39.4617 70.6488 38.7707 69.9094C38.482 69.5971 38.1861 69.289 37.9225 68.962C38.3569 70.1668 38.8967 71.331 39.5355 72.4411C39.5407 72.4581 39.5401 72.4764 39.5336 72.493C39.5272 72.5096 39.5153 72.5235 39.5 72.5325C39.4846 72.5415 39.4666 72.545 39.449 72.5425C39.4314 72.54 39.4151 72.5317 39.4029 72.5188C38.1841 70.6056 37.3237 68.4866 36.8638 66.2654C36.4734 64.1595 36.8449 62.0312 36.7795 59.9132C36.7449 58.7686 36.3755 57.743 36.2082 56.6184C36.0767 55.6105 36.0612 54.5908 36.162 53.5794C36.2498 52.5124 36.3562 51.4442 36.3336 50.3697C36.3144 49.7514 36.2513 49.1353 36.1448 48.526C35.9844 47.9551 35.8615 47.3742 35.7768 46.7872C35.6272 46.0419 35.6731 45.2705 35.9101 44.5481C35.975 44.4042 36.2215 44.4717 36.2113 44.6269C36.1846 45.004 36.1779 45.3823 36.1912 45.7601C36.6211 46.1251 37.0178 46.5275 37.3765 46.9627C37.668 47.4614 37.882 48.0016 38.011 48.5647C38.0509 48.6906 37.8566 48.7369 37.8152 48.6168C37.6508 48.0168 37.3709 47.4547 36.991 46.9621C36.8467 46.806 36.7131 46.6435 36.5502 46.4886C36.5397 46.4707 36.3658 46.3462 36.2296 46.2286C36.2533 46.5324 36.2921 46.837 36.3374 47.1282C36.3827 47.4193 36.4914 47.7696 36.5514 48.0858C36.7378 48.7612 37.0211 49.406 37.3927 50C37.8901 50.7219 38.3087 51.495 38.6415 52.3061C38.7869 52.7024 38.9684 53.1111 39.0886 53.5221C39.2088 53.933 39.193 54.3418 39.3198 54.7393C39.3222 54.7483 39.3228 54.7577 39.3216 54.7669C39.3204 54.7762 39.3174 54.7851 39.3128 54.7932C39.3081 54.8013 39.3019 54.8084 39.2945 54.814C39.2871 54.8197 39.2787 54.8239 39.2697 54.8263C39.2607 54.8288 39.2513 54.8294 39.242 54.8282C39.2328 54.827 39.2238 54.824 39.2157 54.8193C39.2077 54.8147 39.2006 54.8085 39.1949 54.8011C39.1892 54.7937 39.185 54.7853 39.1826 54.7762C39.0312 54.345 38.9995 53.9208 38.8233 53.48C38.6471 53.0392 38.4334 52.5097 38.227 52.0337C37.8789 51.2171 37.2489 50.5848 36.7774 49.8451C36.8252 50.759 36.8148 51.675 36.7463 52.5876C36.7922 52.9051 36.8715 53.2169 36.9827 53.5178C37.1278 53.8342 37.2954 54.1398 37.4843 54.4323C37.9084 55.0909 38.2612 55.7928 38.5367 56.5261C39.0933 58.1541 39.3869 59.8605 39.4067 61.5809C39.4107 61.67 39.2704 61.6607 39.267 61.5808C39.1259 59.8103 38.8327 57.9363 38.0158 56.3352C37.832 55.9405 37.6202 55.5594 37.382 55.1949C37.1337 54.8828 36.9119 54.5506 36.7188 54.2017C36.6873 54.1479 36.658 54.0977 36.6444 54.0335C36.5834 54.8495 36.6101 55.6698 36.7241 56.4801C36.8822 57.4657 37.3171 58.3566 37.3925 59.357C37.4181 59.7203 37.4241 60.0847 37.4106 60.4486C38.0474 61.7752 38.5824 63.1483 39.0111 64.556C39.5046 66.2213 40.0814 67.8234 40.6786 69.452C40.7215 69.5665 40.5401 69.6101 40.4956 69.5014C39.8857 67.9331 39.265 66.3712 38.759 64.7421C38.4087 63.6091 37.7654 62.5513 37.3529 61.4354C37.2404 62.9453 36.9878 64.4215 37.203 65.932C37.3185 66.7089 37.4924 67.476 37.7231 68.2267C38.8958 69.2105 39.9973 70.3851 40.5631 71.8203C40.8996 72.6921 41.1422 73.5972 41.2869 74.5204C41.3605 74.9587 41.4165 75.3832 41.5364 75.8183C41.6724 76.286 41.8723 76.7326 42.1305 77.1456C42.1411 77.1681 42.1423 77.1939 42.1339 77.2173C42.1255 77.2407 42.1082 77.2599 42.0857 77.2705C42.0632 77.2811 42.0374 77.2824 42.0139 77.274C41.9905 77.2656 41.9714 77.2482 41.9608 77.2257Z" fill="#E2F3F7"/>
<path d="M41.0333 75.0491C41.2098 75.8243 41.5239 76.5615 41.9608 77.2257C41.9724 77.2378 41.9878 77.2456 42.0044 77.2479C42.021 77.2502 42.038 77.2469 42.0524 77.2384C42.0669 77.2299 42.0781 77.2168 42.0843 77.2012C42.0904 77.1855 42.0911 77.1683 42.0862 77.1522C41.8281 76.7393 41.6282 76.2926 41.4922 75.825C41.3827 75.4077 41.3163 74.9653 41.2427 74.5271C41.098 73.6039 40.8554 72.6987 40.5189 71.827C39.9531 70.3917 38.8516 69.2171 37.6789 68.2334C37.4481 67.4826 37.2743 66.7156 37.1588 65.9387C36.9436 64.4282 37.1877 62.9376 37.3086 61.4421C37.7212 62.5579 38.3644 63.6157 38.7148 64.7487C39.2208 66.3778 39.8415 67.9397 40.4514 69.508C40.5102 69.6084 40.6772 69.5731 40.6343 69.4587C40.0371 67.83 39.4532 66.2321 38.9669 64.5626C38.5397 63.1588 38.0068 61.7893 37.3727 60.466C37.3862 60.1021 37.3802 59.7377 37.3546 59.3744C37.2792 58.374 36.8443 57.4831 36.6861 56.4975C36.5722 55.6871 36.5455 54.8669 36.6065 54.0509C36.638 54.1046 36.6673 54.1548 36.6809 54.2191C36.874 54.568 37.0958 54.9002 37.3441 55.2123C37.5823 55.5768 37.7941 55.9579 37.9779 56.3526C38.7948 57.9537 39.088 59.8277 39.2291 61.5982C39.2367 61.6852 39.3727 61.6874 39.3687 61.5983C39.349 59.8779 39.0553 58.1715 38.4988 56.5435C38.2233 55.8102 37.8705 55.1083 37.4464 54.4497C37.2575 54.1572 37.0899 53.8516 36.9448 53.5352C36.8335 53.2343 36.7543 52.9225 36.7083 52.605C36.7768 51.6925 36.7872 50.7764 36.7395 49.8625C37.2109 50.6022 37.841 51.2345 38.1891 52.0511C38.3955 52.5271 38.5897 53.0151 38.7854 53.4974C38.9811 53.9797 38.9933 54.3624 39.1446 54.7936C39.1495 54.8118 39.1615 54.8273 39.1778 54.8367C39.1941 54.8461 39.2135 54.8487 39.2317 54.8437C39.2499 54.8388 39.2654 54.8269 39.2748 54.8106C39.2842 54.7942 39.2867 54.7749 39.2818 54.7567C39.1652 54.3436 39.1867 53.9363 39.0507 53.5395C38.9146 53.1426 38.7636 52.7449 38.6036 52.3235C38.2708 51.5124 37.8521 50.7393 37.3548 50.0174C36.9832 49.4234 36.6998 48.7786 36.5135 48.1032C36.4535 47.787 36.3857 47.4657 36.2994 47.1456C36.2131 46.8255 36.2112 46.5426 36.1916 46.246C36.3279 46.3636 36.491 46.4943 36.5123 46.506C36.6689 46.6502 36.8045 46.8162 36.9531 46.9795C37.3329 47.4721 37.6129 48.0342 37.7773 48.6342C37.8187 48.7543 38.013 48.708 37.973 48.5821C37.8441 48.019 37.6301 47.4788 37.3385 46.9801C36.9798 46.5449 36.5832 46.1425 36.1532 45.7775C36.14 45.3997 36.1467 45.0214 36.1734 44.6443C36.1836 44.4891 35.9371 44.4216 35.8721 44.5655C35.6352 45.2879 35.5893 46.0593 35.7389 46.8046C35.8235 47.3916 35.9464 47.9725 36.1069 48.5434C36.2133 49.1527 36.2764 49.7688 36.2957 50.3871C36.3146 51.4637 36.2119 52.5298 36.1241 53.5968C36.0232 54.6083 36.0387 55.6279 36.1703 56.6358C36.3427 57.7526 36.7069 58.786 36.7415 59.9306C36.8069 62.0486 36.4355 64.1769 36.8259 66.2828C37.2858 68.504 38.1462 70.623 39.3649 72.5361C39.3772 72.5491 39.3934 72.5574 39.4111 72.5599C39.4287 72.5624 39.4467 72.5589 39.462 72.5499C39.4774 72.5409 39.4893 72.527 39.4957 72.5104C39.5022 72.4938 39.5028 72.4755 39.4976 72.4585C38.8588 71.3484 38.319 70.1842 37.8846 68.9793C38.1482 69.3064 38.4441 69.6145 38.7328 69.9268C39.4237 70.6662 39.9538 71.5409 40.2894 72.4956C40.5906 73.3303 40.839 74.1832 41.0333 75.0491Z" fill="white"/>
<path d="M16.0964 28.1478C15.7259 28.7401 17.025 29.4958 17.4245 29.7096C17.824 29.9234 18.3389 30.137 18.8069 30.3444C19.614 30.6533 20.3791 31.0625 21.0841 31.5624C21.8998 32.1955 22.67 32.8849 23.3893 33.6256C23.8198 34.0514 24.225 34.5021 24.6029 34.9753C24.6393 34.7662 24.7076 34.5639 24.8053 34.3755C24.3779 33.9085 24.058 33.3208 23.6715 32.8251C23.0515 32.0172 22.3596 31.2671 21.6041 30.5842C20.813 29.8986 19.9508 29.2996 19.0324 28.7973C18.5887 28.5133 18.1129 28.2829 17.615 28.1109C17.2342 28.0113 16.3204 27.7905 16.0964 28.1478Z" fill="#4B3B3B"/>
<path d="M29.7873 46.2742C29.3208 46.5955 29.4088 47.083 29.7709 47.4631C30.4944 48.214 31.6531 47.8582 32.5132 47.5762C33.0579 47.3699 33.6169 47.2035 34.1857 47.0785C34.1881 46.4578 34.1861 45.8348 34.1796 45.2097C34.1806 45.1129 34.1781 45.0181 34.1756 44.9233C34.168 44.9375 34.1566 44.9494 34.1426 44.9575C34.1287 44.9657 34.1128 44.9698 34.0967 44.9695C33.1145 45.0114 32.146 45.2157 31.2305 45.5739C30.7213 45.7442 30.2362 45.9796 29.7873 46.2742Z" fill="#4B3B3B"/>
<path d="M25.6051 36.5642C25.7924 36.8549 26.0494 37.0942 26.3526 37.2605C26.6559 37.4268 26.9958 37.5147 27.3417 37.5162C28.6479 37.6317 29.9619 37.411 31.1587 36.8751C31.0265 36.4185 30.9437 35.9489 30.9117 35.4746C30.1019 35.7985 29.203 35.8229 28.3768 35.5434C27.8897 35.376 27.4166 35.17 26.9622 34.9275C26.622 34.7656 25.9666 34.3695 25.6229 34.6622C25.1323 35.0986 25.3254 36.0781 25.6051 36.5642Z" fill="#4B3B3B"/>
<path d="M19.6825 20.5424C20.4053 20.8216 21.0734 21.2255 21.6565 21.7357C22.104 22.1394 22.5206 22.5762 22.9027 23.0422C23.2789 23.4959 23.5697 24.0091 23.9704 24.4388C24.0938 24.5776 24.2274 24.7069 24.3702 24.8257C24.3009 24.7074 24.2732 24.5696 24.2339 24.453C24.1264 23.9978 23.9774 23.5533 23.7887 23.1252C23.5659 22.6969 23.2735 22.3085 22.9235 21.976C22.2452 21.3792 21.4355 20.951 20.5604 20.7264C20.2722 20.6454 19.9789 20.5839 19.6825 20.5424Z" fill="#4B3B3B"/>
<path d="M40.5025 53.479L40.5938 55.115C40.8302 54.7054 41.0907 54.3102 41.3739 53.9315C41.8139 53.2882 42.3423 52.7099 42.9435 52.2138C42.9215 51.6828 42.9159 51.147 42.9294 50.6192L42.8685 50.6549C42.4461 50.8538 42.0544 51.1123 41.7053 51.4224C41.3367 51.7498 40.9979 52.1092 40.6927 52.4965C40.6184 52.5833 40.5483 52.6773 40.4668 52.7683L40.5025 53.479Z" fill="#4B3B3B"/>
<path d="M27.0233 30.0159C27.2142 30.3262 27.518 30.5504 27.8707 30.6414C28.4662 30.8052 29.0987 30.7726 29.6742 30.5483C30.2088 30.3269 30.29 29.8654 30.3442 29.3331C30.4247 28.6073 30.2959 28.0666 29.6342 27.6597C29.3856 27.5012 29.1023 27.4053 28.8085 27.3803C28.5147 27.3553 28.2192 27.4019 27.9473 27.5161C27.6882 27.6432 27.4655 27.8339 27.3001 28.0705C27.1347 28.307 27.032 28.5817 27.0015 28.8687C26.9546 29.2572 27.1079 29.6343 27.0233 30.0159Z" fill="#FBCA4C"/>
<path d="M46.3164 61.6515C46.9795 63.0615 47.8064 64.3885 48.7799 65.6051C50.9868 65.7572 53.3528 65.359 55.223 64.1631C56.1907 63.5336 57.0786 62.7892 57.8674 61.9462C58.2997 61.5148 58.6761 61.0309 58.9879 60.5057C59.1451 60.2128 59.2671 59.9023 59.3513 59.5806C58.7668 58.1044 58.008 56.7032 57.0911 55.407C57.0188 55.6817 56.927 55.9509 56.8167 56.2126C56.5717 56.7292 56.257 57.2098 55.8814 57.6409C55.0511 58.6026 54.0559 59.4084 52.9426 60.0206C51.8515 60.6644 50.6698 61.1403 49.4371 61.4324C48.8395 61.6025 48.2256 61.7086 47.6056 61.7488C47.1743 61.7429 46.7437 61.7104 46.3164 61.6515Z" fill="#4B3B3B"/>
<path d="M32.8622 38.1161C33.3868 39.3355 34.1461 40.4398 35.0968 41.3662C36.8066 43.0413 38.7762 44.4289 40.9291 45.4752C40.9449 45.4291 40.975 45.3893 41.015 45.3615C41.0551 45.3338 41.1029 45.3195 41.1516 45.3209C41.2685 45.315 41.7268 44.5028 41.7555 44.4861C41.9206 44.0735 42.0316 43.6412 42.0858 43.2001C42.127 42.9498 42.2589 42.4105 42.0741 42.177C41.944 42.0124 41.6384 41.9507 41.4386 41.9136C41.0605 41.8269 40.6685 41.8397 40.2866 41.7793C39.5626 41.6689 38.7625 41.5355 38.253 40.9529C37.69 40.3199 37.7994 39.3558 37.7651 38.5817C37.7604 38.2283 37.8532 37.3509 37.4532 37.1855C37.1376 37.0574 36.7666 37.1061 36.4383 36.9565C35.6123 36.5978 35.7358 36.0441 35.7579 35.2514C35.8054 33.6305 34.2784 34.4425 33.6834 35.2432C33.1759 36.0423 32.9355 36.982 32.9968 37.9266C32.9947 37.9677 32.981 38.0074 32.9572 38.041C32.9333 38.0746 32.9004 38.1006 32.8622 38.1161Z" fill="#4B3B3B"/>
<path d="M49.365 66.3167C49.5746 66.5598 49.7858 66.7972 50.0041 67.0304C50.6634 67.7417 51.3649 68.4128 52.1046 69.0401L52.183 69.0424C54.0732 69.3884 56.025 69.0572 57.6952 68.1068C58.6177 67.5917 59.4266 66.8956 60.0734 66.0601C60.3655 65.668 60.6111 65.2431 60.8052 64.7943C60.6065 63.5802 60.3202 62.382 59.9485 61.2093C59.8139 60.8067 59.6758 60.4063 59.5233 60.0142C59.4835 60.2283 59.4264 60.4388 59.3526 60.6436C59.1327 61.1619 58.8291 61.6404 58.4539 62.0601C57.6304 63.0374 56.6736 63.894 55.6115 64.6048C54.5175 65.3118 53.2951 65.7967 52.014 66.0319C51.144 66.2235 50.2557 66.319 49.365 66.3167Z" fill="#FBCA4C"/>
<path d="M32.3324 36.7753C32.3967 36.959 32.4645 37.1407 32.5339 37.3167C32.6281 35.9813 33.0973 34.6285 34.3464 33.9502C34.5902 33.793 34.8758 33.7132 35.1657 33.7213C35.4557 33.7294 35.7364 33.825 35.971 33.9956C36.6456 34.5971 36.0025 35.8255 36.7007 36.2783C37.2688 36.6485 38.1004 36.3013 38.3235 37.1429C38.5767 38.1018 38.1842 39.1498 38.4568 40.0924C38.774 41.2015 40.3115 41.0572 41.2153 41.1539C41.8208 41.2182 42.6473 41.4131 42.8603 42.0729C42.9428 42.4704 42.9349 42.8813 42.8373 43.2753C42.7874 43.7583 42.6628 44.2306 42.468 44.6754C42.2627 45.1182 41.9319 45.4909 41.5167 45.7473C42.0753 46.0027 42.6376 46.256 43.1896 46.5249C43.7417 46.7937 44.2047 47.264 44.7502 46.9543C44.9937 46.8093 45.1764 46.5809 45.2644 46.3115C44.3862 45.3046 43.7371 43.9903 43.922 42.6451C43.9347 42.3836 44.0183 42.1304 44.164 41.9128C44.3097 41.6953 44.5119 41.5215 44.749 41.4102C44.9903 41.3134 45.2502 41.2715 45.5097 41.2873C45.4485 40.3605 44.5272 39.7158 43.7058 39.4554C42.8843 39.195 42.0541 39.2815 41.3023 38.9755C41.032 38.8742 40.8066 38.6799 40.6668 38.4274C40.5269 38.1749 40.4817 37.8808 40.5392 37.598C40.6238 37.2625 40.7341 36.9341 40.869 36.6155C40.9649 36.3188 41.0074 36.2024 40.8145 35.9303C40.6372 35.7018 40.3975 35.5295 40.1245 35.4341C39.0647 34.9474 37.4263 34.4673 37.5712 32.9963C37.7161 31.5253 39.5415 31.7082 40.5313 32.1492C41.4438 32.5488 42.3748 32.8318 43.3097 33.2038C43.5798 33.3153 43.8374 33.4549 44.0782 33.6204C43.5627 32.6668 42.9334 31.7794 42.2039 30.9776C41.6232 30.3087 40.9435 29.7327 40.1885 29.2695C39.8416 29.0634 39.4279 28.9157 39.038 28.7348C38.5546 28.9071 38.0457 28.9967 37.5326 28.9999C37.0608 29.0162 36.549 29.0462 36.0527 29.0865C36.3794 29.1497 36.6886 29.2828 36.9592 29.4767C37.2297 29.6706 37.4551 29.9207 37.6199 30.2098C37.9448 30.8716 37.5189 31.583 37.0358 32.0487C36.7596 32.3328 36.4263 32.5552 36.058 32.7011C35.6896 32.8471 35.2944 32.9133 34.8986 32.8954C34.0421 32.7807 33.535 32.0378 33.1172 31.3487L32.8866 31.7195C32.6332 32.1657 32.3058 32.5657 31.9184 32.9023C31.8652 33.3213 31.834 33.7428 31.825 34.1651C31.8592 35.0561 32.0304 35.9364 32.3324 36.7753Z" fill="#FBCA4C"/>
<path d="M44.95 57.7055C45.2219 58.8079 45.5733 59.8891 46.0014 60.9407C46.38 60.979 46.7523 61.0065 47.1285 61.0654C47.7737 61.1232 48.424 61.0683 49.0503 60.9032C50.2488 60.6576 51.4027 60.2304 52.4723 59.6365C53.497 59.1058 54.4289 58.4124 55.2316 57.5832C55.9875 56.8611 56.5135 55.932 56.7439 54.9124C56.0821 54.0645 55.3624 53.2635 54.5898 52.5152C54.2978 53.0671 53.9252 53.5723 53.4843 54.0143C52.668 54.8895 51.7054 55.6159 50.6398 56.1607C48.9948 57.0177 46.8738 57.8838 44.95 57.7055Z" fill="#FBCA4C"/>
<path d="M29.5262 31.3233C29.6898 31.7069 29.9618 32.0345 30.3089 32.2658C31.5268 32.8909 33.2539 29.7814 34.1314 29.1426C34.1473 29.129 34.1655 29.1183 34.1852 29.1111L34.6225 28.8551C34.6378 28.8406 34.6562 28.8298 34.6763 28.8236L34.7372 28.7879C35.4784 28.5031 36.2531 28.3149 37.0423 28.228C37.2086 28.2093 37.3723 28.1716 37.5301 28.1158C37.6269 28.0591 37.7273 28.0003 37.845 27.9795C38.1574 27.8882 38.6311 27.9574 38.8942 27.7408C39.0031 27.6517 39.0925 27.5409 39.1566 27.4156C39.2207 27.2903 39.2583 27.153 39.2668 27.0125C39.2363 26.5963 39.0851 26.1981 38.8319 25.8665C38.7474 25.9689 38.6551 26.0662 38.5644 26.1578C38.3072 26.397 37.9844 26.5539 37.6375 26.6087C37.2906 26.6634 36.9352 26.6135 36.6168 26.4651C35.7753 26.154 35.0876 25.7768 34.8368 24.855C34.7477 24.5338 34.7149 24.1996 34.74 23.8673C34.3389 23.8861 33.9411 23.948 33.5532 24.0517C33.4133 24.1192 33.279 24.1978 33.1517 24.2868C33.0406 24.3379 32.944 24.4159 32.8707 24.5138C32.8358 24.5776 32.8293 24.6487 32.7944 24.7125C32.7138 24.8219 32.6196 24.9207 32.5141 25.0065C32.3177 25.2191 32.079 25.3884 31.8134 25.5033C31.5846 25.5807 31.3415 25.6063 31.1016 25.5783C30.8812 25.5887 30.6727 25.6815 30.5174 25.8384C30.2371 26.1258 29.9883 26.4424 29.7755 26.7829C30.0774 26.9242 30.3527 27.1163 30.5894 27.3509C31.2667 28.023 31.259 28.8073 31.1183 29.6934C31.0919 30.0444 30.9611 30.3795 30.7428 30.6557C30.5245 30.9319 30.2287 31.1365 29.8932 31.2432C29.7722 31.2758 29.6497 31.3025 29.5262 31.3233Z" fill="#4B3B3B"/>
<path d="M26.0797 25.1149C25.9204 25.1552 25.7516 25.2204 25.5857 25.2741C26.1075 25.2831 26.6291 25.2437 27.1436 25.1564C27.9278 25.0487 29.1041 24.904 29.8866 25.2787L29.9296 25.2535C29.2543 24.7824 28.2141 24.7897 27.4527 24.9032C26.9891 24.9581 26.5305 25.0051 26.0797 25.1149Z" fill="#4B3B3B"/>
<path d="M44.4041 54.9639C44.5052 55.6218 44.6214 56.2807 44.7743 56.9613C45.0868 56.9853 45.3963 57.0207 45.7013 57.0155C46.2218 56.9788 46.7384 56.8986 47.2456 56.7757C48.215 56.5634 49.1574 56.2426 50.055 55.8195C50.976 55.4187 51.8317 54.8821 52.5936 54.2276C53.0198 53.8724 53.4042 53.4698 53.7393 53.0275C53.94 52.7705 54.125 52.5015 54.2931 52.222C53.6083 51.5784 52.8903 50.9687 52.1641 50.4022C51.818 50.1235 51.4822 49.8869 51.1329 49.6437C51.0825 49.7775 51.0138 49.9036 50.9286 50.0184C50.7129 50.334 50.4752 50.6341 50.2172 50.9162C49.6114 51.5809 48.9006 52.1416 48.1132 52.5761C47.357 52.9873 46.5532 53.3043 45.7199 53.5198C45.2418 53.6434 44.7539 53.7261 44.2617 53.7669C44.2857 54.1861 44.3428 54.5714 44.4041 54.9639Z" fill="#4B3B3B"/>
<path d="M53.2255 69.9435C53.8218 70.403 54.4369 70.8371 55.058 71.2485C56.6955 72.3356 58.3822 73.1532 60.3364 73.2848C61.1805 71.52 61.2913 69.6454 61.1487 67.6833C61.095 66.9831 61.0202 66.2825 60.9242 65.5813C60.7869 65.8455 60.6294 66.0987 60.4529 66.3385C59.7876 67.2475 58.9452 68.0124 57.9764 68.5872C56.6605 69.3815 54.8681 70.0361 53.2255 69.9435Z" fill="#4B3B3B"/>
<path d="M44.2043 53.1508C44.7271 53.1068 45.2445 53.0134 45.7497 52.8718C46.5403 52.6687 47.3038 52.372 48.0241 51.9881C48.6962 51.6087 49.3101 51.1342 49.8468 50.5795C50.1042 50.3268 50.3458 50.0584 50.57 49.7758C50.6504 49.6653 50.7199 49.5472 50.7776 49.4233C50.1799 49.0271 49.5742 48.6501 48.9627 48.2716C48.4545 47.9626 47.9556 47.653 47.4206 47.3886C47.1301 47.2458 46.8431 47.1009 46.5564 46.9318C46.3795 46.8079 46.1929 46.6982 45.9986 46.6038L45.9814 46.6812C45.9236 46.9125 45.7887 47.1171 45.5989 47.2613C45.1804 47.6471 44.6535 47.895 44.0894 47.9716C44.0929 48.1091 44.1135 48.2511 44.1115 48.363C44.1123 48.685 44.0982 49.0061 44.0867 49.3401C44.0553 49.9361 44.081 50.5227 44.1052 51.115C44.1242 51.797 44.156 52.4763 44.2043 53.1508Z" fill="#FBCA4C"/>
<path d="M33.4931 30.9794C33.8015 31.5064 34.1293 32.1568 34.7417 32.3808C35.3541 32.6047 36.0602 32.2732 36.5565 31.896C37.0529 31.5188 37.5483 30.9015 37.1979 30.3028C36.8153 29.7335 36.2342 29.3271 35.5681 29.1631C35.2457 29.2003 34.9255 29.2544 34.6088 29.3251C34.1763 29.8209 33.7848 30.3511 33.4382 30.9104C33.4608 30.9297 33.4794 30.9531 33.4931 30.9794Z" fill="#796463"/>
<path d="M38.3885 32.4602C37.8075 32.8243 37.9872 33.6577 38.3933 34.0553C39.017 34.6769 39.9648 34.8489 40.7273 35.2305C40.8797 35.2869 41.0184 35.375 41.1344 35.4889C41.2503 35.6028 41.3408 35.74 41.3998 35.8914C41.4589 36.0428 41.4852 36.205 41.4771 36.3673C41.4689 36.5296 41.4265 36.6884 41.3525 36.8331C41.2114 37.2334 40.8929 37.7664 41.1199 38.187C41.3468 38.6077 42.1025 38.6322 42.5442 38.6962C43.439 38.827 44.3784 38.9846 45.1145 39.5597C45.3788 39.7721 45.6001 40.033 45.7666 40.3283C45.7358 38.7628 45.2427 37.131 44.8619 35.65C44.7689 35.29 44.6547 34.9357 44.5201 34.5891C44.298 34.3858 44.0566 34.2047 43.7993 34.0484C43.3433 33.8189 42.8646 33.6378 42.371 33.5078C41.9238 33.3605 41.4712 33.2452 41.035 33.0673C40.6193 32.8397 40.1913 32.6355 39.7528 32.4557C39.3565 32.346 38.7694 32.2228 38.3885 32.4602Z" fill="#4B3B3B"/>
<path d="M44.2853 43.4384C44.3046 44.2935 44.8707 44.9729 45.3988 45.612C45.4261 45.2639 45.4193 44.9069 45.4451 44.6222C45.5188 43.679 45.6202 42.734 45.7103 41.7861C45.6603 41.7793 45.6141 41.7557 45.5795 41.719C45.5449 41.6823 45.5239 41.6348 45.5201 41.5845C45.141 41.6413 44.7952 41.8334 44.5468 42.1254C44.3446 42.5321 44.2544 42.9853 44.2853 43.4384Z" fill="#4B3B3B"/>
<path d="M33.3361 23.245L33.3827 23.2178C33.4355 22.3542 34.1376 21.3993 34.6153 20.7683C34.9434 20.3624 35.2331 19.9269 35.4808 19.4675C35.3527 19.5858 35.2168 19.699 35.1001 19.8203C34.7836 20.1595 34.5181 20.5364 34.237 20.9031C33.7858 21.5137 33.2595 22.4235 33.3361 23.245Z" fill="#4B3B3B"/>
<path d="M35.5923 24.1721C35.623 24.9483 36.0314 25.3253 36.7037 25.6105C37.186 25.8095 37.6366 25.9789 38.0914 25.6212C38.5684 25.2274 38.9074 24.6918 39.0591 24.0921C39.1529 23.74 39.1061 23.3653 38.9286 23.047C38.5544 22.934 38.3043 22.6135 37.9497 22.4601C37.6836 22.3469 37.3933 22.3026 37.1056 22.3314C36.8179 22.3602 36.5421 22.461 36.3036 22.6246C36.0681 22.8052 35.8801 23.0405 35.7562 23.3102C35.6322 23.5799 35.5759 23.8758 35.5923 24.1721Z" fill="#FBCA4C"/>
<path d="M49.1506 46.9727L49.0861 47.0105C49.5529 47.2571 50.0174 47.5243 50.4696 47.8035C51.2019 47.5202 51.9703 47.341 52.7523 47.2711C53.2129 47.2141 53.6763 47.1823 54.1404 47.1757C53.6781 46.8848 53.2175 46.5913 52.7586 46.2951C52.5527 46.1654 52.3447 46.032 52.1402 45.8966L51.7926 45.9605C51.3054 46.0364 50.8261 46.1559 50.3603 46.3176C49.9281 46.4776 49.5208 46.6982 49.1506 46.9727Z" fill="#4B3B3B"/>
<path d="M46.3852 40.4476C46.7125 40.6607 47.0175 40.9063 47.2955 41.1806C47.744 41.6067 48.2192 42.0038 48.7182 42.3694C49.7745 43.1132 50.752 43.9609 51.8012 44.7089C53.9285 46.2216 56.1957 47.5129 58.3281 49.0178C60.4563 50.5024 62.4867 52.1226 64.4066 53.8683C66.4119 55.7317 68.2523 57.7492 70.1432 59.7132C71.0093 60.6886 71.9671 61.5786 73.0033 62.3709C73.5378 62.7415 74.3311 63.1676 74.616 62.3221C74.7781 61.7458 74.8325 61.1445 74.7763 60.5485C74.6481 58.0437 73.207 55.7298 71.7321 53.7774C68.5236 49.5379 64.0158 46.5403 59.5025 43.854C56.9719 42.3512 54.3473 41.0333 51.7731 39.604C50.4723 38.8782 49.212 38.0902 47.9612 37.2773C47.3563 36.8853 46.7529 36.4876 46.1603 36.0837C46.0217 35.9867 45.8661 35.8853 45.7119 35.7782C46.0485 37.3164 46.2735 38.8769 46.3852 40.4476ZM47.1759 38.2134C47.0356 38.1464 47.0938 37.9005 47.2511 37.9143C47.9976 38.0597 48.6931 38.3976 49.2688 38.8944C49.7403 39.2548 50.1878 39.6457 50.6083 40.0645C51.0875 40.4556 51.5938 40.8123 52.1235 41.1317C53.0593 41.655 54.0215 42.1296 55.0062 42.5536C55.9352 42.9627 56.8143 43.4768 57.6263 44.0859C58.5157 44.783 59.2384 45.6066 60.2231 46.195C62.0379 47.289 64.0719 48.0093 65.717 49.3807C67.43 50.8679 68.8567 52.6558 69.9265 54.6562C69.9365 54.6733 69.9394 54.6937 69.9343 54.7129C69.9293 54.7321 69.9169 54.7485 69.8998 54.7585C69.8827 54.7685 69.8623 54.7713 69.8431 54.7663C69.8239 54.7613 69.8075 54.7489 69.7975 54.7318C69.1423 53.6313 68.3914 52.5906 67.5535 51.6219C67.7096 52.0119 67.8298 52.4228 67.9608 52.8275C68.2672 53.792 68.7704 54.6824 69.4385 55.4424C70.0306 56.1064 70.6639 56.7324 71.3347 57.3167C71.926 57.8484 72.4152 58.4836 72.7784 59.1911C72.7879 59.2072 72.7905 59.2265 72.7858 59.2446C72.781 59.2627 72.7693 59.2782 72.7531 59.2877C72.737 59.2972 72.7177 59.2998 72.6996 59.2951C72.6815 59.2903 72.666 59.2786 72.6565 59.2624C72.4198 58.8368 72.1272 58.4447 71.7864 58.0967C71.4762 57.797 71.123 57.5225 70.7984 57.2311C70.0645 56.6523 69.393 55.9984 68.7948 55.2802C67.8204 54.0841 67.3355 52.5486 67.0518 51.0444C66.513 50.4728 65.929 49.9454 65.3057 49.4674C64.0939 48.5403 62.6782 48.0212 61.315 47.3945C62.0825 48.3026 62.6934 49.3793 63.5062 50.2416C64.679 51.4804 65.7371 52.7863 66.8059 54.086C66.8646 54.1863 66.7521 54.3148 66.6733 54.2213C65.5456 52.9032 64.4382 51.6117 63.2206 50.3703C62.2046 49.3059 61.2694 48.1673 60.4228 46.9638C60.098 46.8013 59.7822 46.6214 59.4768 46.4249C58.6379 45.8715 58.0739 45.0561 57.292 44.4357C56.6434 43.9376 55.9423 43.5119 55.2012 43.1663C55.2327 43.22 55.2621 43.2702 55.2935 43.324C55.505 43.6622 55.6862 44.0184 55.8348 44.3885C56.0386 44.7734 56.2695 45.1433 56.526 45.4953C57.5257 46.9894 59.0163 48.1625 60.4874 49.1545C60.5595 49.2037 60.4984 49.3213 60.4227 49.2742C58.9298 48.4174 57.5843 47.3264 56.4374 46.0429C55.9363 45.4411 55.4973 44.7902 55.127 44.1002C54.9645 43.7923 54.7801 43.4965 54.5752 43.2151C54.3673 42.9707 54.1342 42.749 53.8799 42.5535C53.0515 42.1648 52.2477 41.7254 51.4733 41.2379C51.8874 42.0111 52.1303 42.8701 52.672 43.5734C52.9895 43.9844 53.3164 44.3947 53.6447 44.7994C53.973 45.204 54.2971 45.4042 54.5954 45.7494C54.6021 45.7559 54.6074 45.7637 54.6111 45.7723C54.6147 45.7808 54.6167 45.79 54.6168 45.7994C54.6169 45.8087 54.6151 45.818 54.6117 45.8266C54.6082 45.8353 54.603 45.8432 54.5965 45.8498C54.59 45.8565 54.5822 45.8618 54.5736 45.8655C54.565 45.8691 54.5558 45.8711 54.5465 45.8712C54.5371 45.8713 54.5279 45.8695 54.5192 45.866C54.5106 45.8626 54.5027 45.8574 54.496 45.8509C54.193 45.547 53.8309 45.3642 53.5479 45.0534C53.2648 44.7425 52.9956 44.414 52.7101 44.0661C52.1632 43.3808 51.6927 42.6377 51.3071 41.8503C50.9724 41.2349 50.5502 40.6714 50.0535 40.1774C49.8041 39.9705 49.5606 39.752 49.3233 39.5219C49.0874 39.3327 48.8371 39.1519 48.5881 38.9896C48.624 39.166 48.6581 39.3722 48.6578 39.3965C48.7069 39.6036 48.7852 39.8032 48.8549 40.0127C49.1003 40.5841 49.4531 41.103 49.8941 41.5414C49.9786 41.6364 49.8431 41.7831 49.7529 41.6867C49.3251 41.2985 48.9588 40.8475 48.6667 40.3491C48.4629 39.8232 48.3061 39.2803 48.1984 38.7268C47.8426 38.5548 47.5105 38.3738 47.1759 38.2134Z" fill="#E2F3F7"/>
<path d="M33.9004 15.5506C34.0209 16.0179 34.2163 16.4627 34.4788 16.8677C34.7597 17.2417 35.0743 17.5893 35.4187 17.9059C35.501 17.9973 35.5933 18.0973 35.6769 18.2072C35.6425 18.0244 35.5964 17.844 35.5388 17.6671C35.3568 17.1094 35.0516 16.6046 34.8439 16.0523C34.6227 15.4916 34.4458 14.9145 34.3147 14.3261C34.1517 13.5683 34.1266 12.7873 34.2407 12.0206C34.1254 12.3024 34.0294 12.5918 33.9534 12.8867C33.7288 13.7584 33.7106 14.6706 33.9004 15.5506Z" fill="#4B3B3B"/>
<path d="M47.2511 37.9143C47.0938 37.9005 47.0356 38.1464 47.1759 38.2134C47.5105 38.3738 47.8534 38.5485 48.1703 38.7528C48.2781 39.3064 48.4348 39.8493 48.6386 40.3751C48.9307 40.8735 49.297 41.3246 49.7248 41.7127C49.815 41.8092 49.9505 41.6624 49.8661 41.5675C49.425 41.1291 49.0722 40.6101 48.8268 40.0388C48.7613 39.8364 48.6851 39.6404 48.6297 39.4225C48.6192 39.4046 48.5959 39.192 48.56 39.0157C48.8132 39.1851 49.0635 39.3659 49.2952 39.548C49.5269 39.73 49.7755 39.9985 50.0254 40.2035C50.5221 40.6975 50.9443 41.261 51.279 41.8763C51.6646 42.6638 52.1351 43.4068 52.682 44.0922C52.9528 44.415 53.2239 44.7713 53.5198 45.0794C53.8157 45.3876 54.1834 45.5718 54.4679 45.8769C54.4814 45.8901 54.4995 45.8974 54.5184 45.8972C54.5372 45.897 54.5552 45.8894 54.5684 45.8759C54.5816 45.8624 54.5889 45.8443 54.5887 45.8254C54.5885 45.8066 54.5808 45.7886 54.5674 45.7754C54.269 45.4302 53.9111 45.197 53.6166 44.8254C53.3221 44.4539 52.9614 44.0104 52.6439 43.5995C52.1022 42.8962 51.8593 42.0372 51.4452 41.264C52.2197 41.7515 53.0234 42.1908 53.8518 42.5796C54.1061 42.7751 54.3392 42.9968 54.5471 43.2411C54.752 43.5226 54.9364 43.8184 55.0989 44.1262C55.4692 44.8163 55.9082 45.4672 56.4094 46.069C57.5562 47.3525 58.9017 48.4434 60.3946 49.3002C60.4703 49.3474 60.5272 49.2226 60.4593 49.1805C58.9882 48.1886 57.4977 47.0155 56.4979 45.5214C56.2438 45.1678 56.0152 44.7965 55.8139 44.4104C55.6653 44.0403 55.4841 43.684 55.2726 43.3459C55.2411 43.2921 55.2118 43.2419 55.1803 43.1881C55.9214 43.5338 56.6225 43.9594 57.271 44.4575C58.053 45.078 58.599 45.9039 59.4559 46.4468C59.7589 46.6476 60.0725 46.832 60.3953 46.9991C61.2419 48.2026 62.1771 49.3412 63.1931 50.4056C64.4036 51.6512 65.5181 52.9385 66.6458 54.2566C66.7067 54.3606 66.8551 54.2112 66.7784 54.1213C65.7096 52.8216 64.6515 51.5157 63.4788 50.2769C62.666 49.4146 62.055 48.3379 61.2876 47.4298C62.6592 48.0709 64.0664 48.5756 65.2782 49.5028C65.9016 49.9808 66.4855 50.5081 67.0244 51.0797C67.308 52.5839 67.7929 54.1194 68.7674 55.3155C69.3655 56.0337 70.037 56.6876 70.771 57.2664C71.1134 57.5473 71.4562 57.8039 71.759 58.1321C72.0997 58.4801 72.3923 58.8721 72.629 59.2977C72.6385 59.3139 72.654 59.3257 72.6721 59.3304C72.6902 59.3351 72.7095 59.3325 72.7257 59.323C72.7418 59.3136 72.7536 59.2981 72.7583 59.2799C72.763 59.2618 72.7604 59.2426 72.7509 59.2264C72.3877 58.519 71.8985 57.8838 71.3072 57.352C70.6364 56.7677 70.0031 56.1417 69.4111 55.4778C68.7429 54.7177 68.2397 53.8273 67.9333 52.8628C67.8024 52.4582 67.6821 52.0472 67.5261 51.6573C68.3639 52.6259 69.1148 53.6666 69.77 54.7671C69.78 54.7842 69.7964 54.7966 69.8156 54.8017C69.8348 54.8067 69.8552 54.8039 69.8723 54.7938C69.8894 54.7838 69.9018 54.7674 69.9069 54.7482C69.9119 54.7291 69.9091 54.7087 69.8991 54.6915C68.8292 52.6911 67.4026 50.9032 65.6895 49.416C64.0444 48.0446 62.0104 47.3244 60.1956 46.2304C59.211 45.6419 58.5011 44.8157 57.5988 44.1212C56.7856 43.5126 55.9053 42.9992 54.9752 42.591C53.9904 42.167 53.0282 41.6924 52.0924 41.1691C51.5628 40.8497 51.0564 40.493 50.5773 40.1019C50.1567 39.6831 49.7093 39.2922 49.2377 38.9318C48.6749 38.4263 47.9903 38.0756 47.2511 37.9143Z" fill="white"/>
<path d="M41.7738 29.1164C42.1717 29.3765 42.5406 29.6786 42.874 30.0174C43.9278 29.235 44.7646 28.1968 45.3054 27.001C45.4725 26.6986 45.5615 26.3594 45.5643 26.0139C45.5672 25.6685 45.4839 25.3278 45.3219 25.0227C45.0386 24.5388 44.2755 23.8929 43.6632 24.1214C43.2397 24.2778 43.2463 25.0537 43.2387 25.4191C43.2273 25.9332 43.1765 26.4457 43.0868 26.952C42.9181 27.8057 42.4531 28.5724 41.7738 29.1164Z" fill="#4B3B3B"/>
<path d="M48.4239 36.5877C48.5089 36.6342 48.5903 36.6828 48.6717 36.7314C49.2192 37.0527 49.7613 37.3595 50.2982 37.6517C50.6861 37.2173 51.1047 36.8113 51.551 36.437C52.218 35.8252 53.1063 34.9827 52.795 33.9905C52.6444 33.4866 52.2588 33.1732 51.7503 33.4228C51.2744 33.6716 50.8325 33.9805 50.4352 34.3418C49.6751 34.9652 49.0229 35.7096 48.5049 36.5451C48.4966 36.559 48.4847 36.5703 48.4704 36.5778C48.4561 36.5854 48.44 36.5888 48.4239 36.5877Z" fill="#4B3B3B"/>
<path d="M43.016 21.5112C43.2555 22.093 43.6113 22.6596 43.8093 23.2609C44.0216 23.2663 44.2316 23.3059 44.4314 23.3781C44.2049 22.8162 44.0116 22.2415 43.8523 21.657C43.5574 20.668 43.3321 19.6595 43.1782 18.639C43.0876 17.7795 43.1053 16.9121 43.2312 16.057C43.283 15.5453 43.3349 15.0337 43.3544 14.5409C43.374 14.0481 43.3407 12.5851 42.6429 12.6182C42.2181 12.6406 41.9668 13.5434 41.8714 13.9314C41.7776 14.4498 41.7455 14.9774 41.776 15.5034C41.7662 16.55 41.8664 17.5949 42.0749 18.6206C42.3009 19.6105 42.6159 20.578 43.016 21.5112Z" fill="#4B3B3B"/>
<path d="M53.4012 33.8667C53.7797 33.6778 54.1776 33.5305 54.5879 33.4272C55.336 33.1991 56.0659 32.915 56.7714 32.5774C58.0571 31.9522 59.2928 31.2289 60.4674 30.4139C61.6946 29.4765 62.8459 28.4437 63.9105 27.3251C64.4466 26.8331 64.9357 26.2922 65.3714 25.7094C65.668 25.2952 66.2494 24.4302 66.1435 23.8135C65.6359 24.096 65.1765 24.4575 64.7826 24.8845C64.2627 25.3324 63.7659 25.8064 63.2939 26.3046C62.3992 27.391 61.4022 28.3889 60.3165 29.2845C59.135 30.1013 57.8627 30.7782 56.5252 31.3016C55.8394 31.602 55.1348 31.87 54.4637 32.1955C54.1787 32.3334 53.9056 32.4836 53.629 32.636C53.5824 32.6632 53.2705 32.8458 53.0159 32.9948C53.2185 33.2466 53.3514 33.5473 53.4012 33.8667Z" fill="#4B3B3B"/>
<path d="M67.4401 47.4238L66.5855 47.1395C67.2814 47.6707 67.9658 48.2231 68.6221 48.8016C68.6663 48.8049 68.7098 48.8152 68.7507 48.8322C70.9079 49.7547 72.6165 51.3826 74.7812 52.3343C75.9794 52.8215 77.2091 53.2274 78.462 53.549C79.5664 53.8651 80.6457 54.196 81.7642 54.3884C82.2802 54.5078 82.8059 54.5803 83.3349 54.6049C83.4886 54.6203 83.6437 54.6062 83.7921 54.5635C84.233 54.3054 83.9299 54.1411 83.7353 54.0143C83.4069 53.8159 83.0558 53.6578 82.6896 53.5435C81.5441 53.1407 80.3596 52.8521 79.1936 52.5046C76.9013 51.8201 74.6275 51.1343 72.5613 49.8987C71.5076 49.2167 70.4167 48.5938 69.2937 48.0331C68.6901 47.7889 68.0709 47.5854 67.4401 47.4238Z" fill="#4B3B3B"/>
<g style="mix-blend-mode:multiply" opacity="0.2">
<path d="M42.1613 28.8655C42.3622 28.4687 42.756 28.2864 43.0063 27.9329C43.2705 27.5265 43.567 27.1421 43.8929 26.7833C44.0183 26.6522 44.1344 26.5216 44.2392 26.3881C44.2975 26.2 44.3388 26.0074 44.3878 25.8198C44.4369 25.6323 44.6127 25.2502 44.567 25.0651C44.5212 24.8801 44.8373 24.7047 44.9312 24.9145C44.9984 25.0292 45.0592 25.1332 45.118 25.2335L45.1682 25.2042C45.3848 25.1303 45.4773 25.4034 45.378 25.5627C45.3611 25.5866 45.3472 25.6125 45.3366 25.6399C45.4165 25.8192 45.468 26.0099 45.4893 26.205C45.5351 26.6767 45.4669 27.1524 45.2905 27.5921C45.1485 28.0523 44.9741 28.5017 44.7687 28.9372C44.6609 29.1562 44.5136 29.3534 44.3342 29.5188C44.1738 29.656 43.9568 29.6964 43.818 29.821C43.754 29.8811 43.6768 29.9255 43.5926 29.9506C43.5085 29.9757 43.4196 29.9808 43.3331 29.9655C43.2467 29.9503 43.1649 29.9151 43.0944 29.8627C43.0239 29.8104 42.9666 29.7423 42.927 29.6639L42.8006 29.6946C42.6933 29.7187 42.5813 29.7117 42.4779 29.6744C42.3744 29.6371 42.2838 29.571 42.2166 29.4839C42.1495 29.3968 42.1086 29.2923 42.0988 29.1828C42.0889 29.0732 42.1106 28.9632 42.1613 28.8655Z" fill="#88524C"/>
</g>
<g style="mix-blend-mode:multiply" opacity="0.2">
<path d="M42.3506 19.8069C42.192 19.1688 42.0971 18.5165 42.0675 17.8597C42.0642 17.2611 42.1841 16.6683 42.4198 16.118C42.4346 16.0615 42.4712 16.0132 42.5216 15.9837C42.572 15.9541 42.6321 15.9459 42.6886 15.9606C42.7452 15.9754 42.7935 16.0121 42.823 16.0625C42.8525 16.1129 42.8608 16.173 42.846 16.2295C42.757 16.5078 42.6991 16.7951 42.6736 17.0861C42.6819 17.3863 42.7241 17.6845 42.7993 17.9752C42.9369 18.6214 43.126 19.2568 43.2965 19.8934C43.4312 20.4114 43.586 20.9224 43.7249 21.4476C43.7564 21.5014 43.7858 21.5515 43.8172 21.6053C44.075 22.0915 44.2874 22.6003 44.4519 23.1254C44.4688 23.1804 44.4665 23.2395 44.4453 23.293C44.4242 23.3465 44.3854 23.3912 44.3355 23.4198C44.3606 23.4628 44.3858 23.5058 44.3823 23.5656C44.5151 23.9981 43.9246 24.1897 43.6903 23.8552C42.8965 22.6882 42.655 21.1738 42.3506 19.8069Z" fill="#88524C"/>
</g>
<g style="mix-blend-mode:multiply" opacity="0.2">
<path d="M26.2007 35.97C26.5879 35.9407 26.9183 36.1516 27.2954 36.1956C27.6725 36.2396 28.1075 36.2016 28.5232 36.2374C29.404 36.3031 30.2796 36.4257 31.1445 36.6042C31.3856 36.646 31.3113 36.9879 31.0952 37.0133C30.6234 37.0296 30.1567 37.2354 29.6822 37.2965C29.2078 37.3576 28.6305 37.3827 28.1001 37.414C27.1912 37.4647 26.4835 37.4891 25.882 36.7246C25.8189 36.6627 25.7759 36.5833 25.7585 36.4967C25.7411 36.4101 25.7503 36.3202 25.7846 36.2389C25.819 36.1575 25.8771 36.0883 25.9513 36.0404C26.0255 35.9924 26.1124 35.9679 26.2007 35.97Z" fill="#88524C"/>
</g>
<g style="mix-blend-mode:multiply" opacity="0.2">
<path d="M21.936 31.7761C21.9114 31.7184 21.9088 31.6538 21.9284 31.5944C21.9481 31.5349 21.9888 31.4846 22.0428 31.4529C22.0969 31.4213 22.1607 31.4104 22.2222 31.4224C22.2836 31.4344 22.3387 31.4684 22.3769 31.518C22.8826 32.1846 23.288 32.91 23.8116 33.5661C24.2784 34.1496 24.8227 34.6685 25.3002 35.2457C25.462 35.4398 25.2118 35.7114 25.025 35.532C23.8072 34.3725 22.6327 33.3609 21.936 31.7761Z" fill="#88524C"/>
</g>
<g style="mix-blend-mode:multiply" opacity="0.2">
<path d="M29.6321 47.0534C30.1737 46.5957 30.8309 46.296 31.5316 46.187C32.0871 46.1156 32.6508 46.1388 33.1986 46.2556C33.4664 46.2841 33.7314 46.3351 33.9906 46.4081C34.6547 46.597 34.3735 47.498 33.7275 47.4141C33.199 47.3335 32.4807 47.6193 31.9633 47.7633C31.3652 47.9544 30.7349 48.0238 30.1095 47.9676C30.0123 47.962 29.9186 47.9289 29.8394 47.8722C29.7602 47.8154 29.6987 47.7374 29.662 47.6472C29.6205 47.6105 29.5867 47.5659 29.5626 47.516C29.5386 47.4661 29.5248 47.4119 29.522 47.3566C29.5192 47.3012 29.5275 47.2459 29.5464 47.1938C29.5653 47.1418 29.5945 47.094 29.6321 47.0534Z" fill="#88524C"/>
</g>
<g style="mix-blend-mode:multiply" opacity="0.2">
<path d="M21.1437 51.974C21.7339 51.5828 22.3455 51.2248 22.9756 50.9017C23.6137 50.5282 24.2589 50.1505 24.9159 49.8092C25.5729 49.468 26.219 49.2149 26.8539 48.877C27.4887 48.5391 28.1947 48.3472 28.8493 48.0266C29.0286 47.9217 29.2006 48.2157 29.013 48.3062C28.392 48.6708 27.798 49.0796 27.2358 49.5295C26.6106 49.958 25.9638 50.3414 25.3093 50.7197C24.0653 51.4479 22.8754 52.3177 21.4909 52.8056C20.9631 52.9894 20.7524 52.2512 21.1437 51.974Z" fill="#88524C"/>
</g>
<g style="mix-blend-mode:multiply" opacity="0.2">
<path d="M45.3104 58.7653C44.5368 57.0641 44.0715 55.239 43.9361 53.3751C43.8189 52.4823 43.7955 51.5797 43.8663 50.6821C44.0001 49.7759 44.2634 48.9431 44.4696 48.0619C44.4731 48.0416 44.481 48.0224 44.4927 48.0055C44.5044 47.9886 44.5197 47.9744 44.5374 47.964C44.5552 47.9536 44.575 47.9472 44.5955 47.9453C44.616 47.9434 44.6366 47.9459 44.656 47.9528C44.5035 47.5607 44.4837 47.091 45.0009 47.029C44.9872 46.9393 44.9945 46.8477 45.0223 46.7613C44.92 46.7494 44.8259 46.6998 44.758 46.6224C44.3429 46.0198 44.0684 45.3317 43.9549 44.6089C43.7575 43.8195 43.6409 43.0118 43.4379 42.221C43.03 40.5437 42.4808 38.904 41.7961 37.3195C41.125 35.8111 39.9664 34.6459 38.7636 33.545C38.1966 32.9992 37.573 32.5156 36.9034 32.1021C36.1367 31.7279 35.4915 31.1444 35.0423 30.4191C34.9771 30.2997 34.9454 30.1648 34.9505 30.0288C34.9556 29.8928 34.9974 29.7607 35.0713 29.6465C35.0598 29.5859 35.0576 29.5239 35.0647 29.4626L34.9099 29.4859C34.5031 29.5555 34.11 30.06 33.7959 30.3209C33.5522 30.5531 33.3567 30.831 33.2206 31.1389C32.9875 31.5374 32.7075 31.9065 32.3866 32.2384C32.2031 32.4155 31.9673 32.5285 31.7144 32.5608C31.4615 32.5931 31.2049 32.5429 30.9828 32.4176C30.7607 32.2923 30.5851 32.0986 30.4819 31.8655C30.3787 31.6323 30.3536 31.372 30.4103 31.1234L30.4525 30.9736C30.2669 31.0047 30.0762 30.9699 29.9136 30.8751C29.7151 30.739 29.5478 30.5624 29.4225 30.357C29.2973 30.1516 29.217 29.9219 29.187 29.6832C29.1517 29.5161 29.1222 29.3505 29.0905 29.1813C29.0764 29.1078 29.0601 29.0306 29.0403 28.9556C29.0204 28.8806 28.9687 28.7183 29.0146 28.8214C28.9364 28.691 28.8873 28.5452 28.8704 28.394C28.8536 28.2429 28.8695 28.0899 28.9171 27.9454C28.9647 27.801 29.0428 27.6685 29.1461 27.5569C29.2495 27.4453 29.3757 27.3573 29.5161 27.2989C29.6565 27.2404 29.8079 27.2129 29.9599 27.2182C30.1119 27.2235 30.261 27.2614 30.397 27.3294C30.533 27.3975 30.6528 27.494 30.7482 27.6125C30.8436 27.7309 30.9123 27.8686 30.9498 28.016C31.0753 28.3823 31.1657 28.7597 31.2197 29.1431L31.2676 29.3894C31.4081 29.1207 31.589 28.8752 31.8041 28.6614C32.0618 28.4191 32.3064 28.2615 32.5483 28.0333C32.7105 27.8742 32.8815 27.7244 33.0604 27.5843C32.9085 27.4115 32.8037 27.2024 32.7562 26.9772C32.7087 26.7521 32.7201 26.5185 32.7893 26.299C32.8358 26.1234 32.9385 25.9678 33.0817 25.8562C33.225 25.7445 33.4009 25.6828 33.5825 25.6807C33.8059 25.69 34.0245 25.7487 34.2225 25.8525C34.4205 25.9562 34.5932 26.1025 34.728 26.2808C34.8292 26.4167 34.9151 26.5634 34.984 26.7182C35.005 26.754 35.089 26.8974 35.0954 26.9659C35.4604 26.9399 35.8317 26.9247 36.1836 26.868C36.6324 26.7838 37.068 26.6405 37.4791 26.4417C37.3769 26.4686 37.2699 26.4719 37.1663 26.4512C37.0627 26.4305 36.9652 26.3864 36.8812 26.3222C36.7972 26.2581 36.729 26.1756 36.6818 26.0811C36.6345 25.9866 36.6095 25.8825 36.6086 25.7768C36.6331 25.2475 36.8551 24.7467 37.2308 24.373C37.5145 24.0625 37.6891 23.6679 37.7281 23.2492C37.7366 23.0746 37.8118 22.91 37.9382 22.7893C38.0647 22.6687 38.2326 22.6012 38.4074 22.6009C38.5822 22.6006 38.7504 22.6675 38.8772 22.7877C39.0041 22.9079 39.0798 23.0723 39.0889 23.2468C39.1627 23.8253 39.1014 24.4131 38.91 24.964C38.7306 25.4764 38.3863 25.9149 37.9312 26.2108C38.1104 26.1059 38.3127 26.0404 38.5088 25.9641C39.8974 25.4256 40.596 27.8854 39.2352 28.2247L38.6221 28.5835C39.0047 28.6229 39.3804 28.712 39.7399 28.8486C41.2533 29.4641 42.5517 30.5123 43.4724 31.862C44.3908 33.2332 45.0324 34.7706 45.3612 36.3878C45.6163 37.3184 45.7912 38.2692 45.884 39.2296C46.1822 39.3091 46.4619 39.4462 46.7074 39.6332C47.1878 39.9441 47.6682 40.2549 48.1521 40.5636C48.2251 40.6056 48.289 40.6616 48.3403 40.7283C48.3917 40.795 48.4293 40.8712 48.4512 40.9525C48.4954 41.1166 48.4726 41.2916 48.3877 41.4389C48.3029 41.5862 48.163 41.6938 47.9989 41.738C47.8347 41.7822 47.6598 41.7593 47.5125 41.6745C47.0517 41.4629 46.5945 41.2492 46.1471 40.9865C46.022 40.9192 45.9019 40.8432 45.7876 40.7589C45.7635 40.8821 45.7344 41.005 45.7003 41.1277C45.6439 41.3095 45.5267 41.4664 45.3684 41.5722C45.7512 43.1497 45.8333 44.7851 45.6105 46.393L45.6209 46.4109L45.6622 46.4156C46.7205 46.6569 47.7453 47.0269 48.7137 47.5173L48.746 47.4984C49.3875 47.0737 50.1163 46.7984 50.8784 46.693C51.2124 46.6467 51.5459 46.567 51.8802 46.5542C52.2291 46.5941 52.5812 46.5976 52.9309 46.5649C53.0413 46.5354 53.1589 46.5509 53.2578 46.6081C53.3567 46.6653 53.4288 46.7594 53.4584 46.8698C53.4879 46.9802 53.4723 47.0978 53.4151 47.1967C53.3579 47.2956 53.2638 47.3678 53.1534 47.3973C52.5318 47.6263 51.9055 47.839 51.2785 48.0424C50.9324 48.1583 50.577 48.2749 50.2121 48.3585C50.8122 48.7341 51.3919 49.1407 51.9565 49.5707C53.8472 51.0202 55.5879 52.6553 57.1528 54.4516C58.7615 56.2871 59.492 58.4971 60.1396 60.8039C60.7273 62.9098 61.7412 65.4641 60.9078 67.6173C60.8913 67.6591 60.8716 67.6996 60.8488 67.7385C60.9602 68.5758 61.0246 69.4187 61.0416 70.2633C61.036 70.7142 60.8931 71.1443 60.8555 71.5899L61.0087 72.049C61.1656 72.4542 61.2712 72.8776 61.3228 73.3091C61.3622 73.5173 61.339 73.7325 61.2561 73.9275C61.1732 74.1225 61.0343 74.2886 60.8571 74.4047L60.8248 74.4236C60.6736 74.51 60.5023 74.5555 60.3281 74.5554C60.1539 74.5554 59.9827 74.5099 59.8315 74.4234C59.6802 74.3369 59.5541 74.2125 59.4657 74.0624C59.3773 73.9122 59.3296 73.7417 59.3273 73.5674C59.3069 73.179 59.2128 72.7979 59.0502 72.4445C58.8694 71.9054 58.6958 71.362 58.5407 70.8175C58.2602 69.7702 57.9205 68.7397 57.5233 67.7309C56.6405 65.639 55.6309 63.5442 54.581 61.5451C52.4226 57.4467 49.5577 53.7858 46.5429 50.2801C45.9942 49.6387 45.3393 48.9968 44.8461 48.294C44.8251 48.2581 44.8041 48.2223 44.7831 48.1864C44.7503 48.6581 44.7678 49.1318 44.8355 49.5997C44.8546 50.0025 44.8358 50.4226 44.8822 50.8142C44.9893 51.6969 45.1584 52.571 45.3882 53.43C45.728 55.1503 46.3137 56.8126 47.1272 58.366C47.9281 59.8935 48.8494 61.3548 49.8825 62.736C50.4397 63.4495 51.025 64.1369 51.5966 64.842C52.1681 65.547 52.7581 66.1932 53.028 67.0653C53.2064 67.625 52.588 67.9582 52.1213 67.7693C51.26 67.3216 50.5101 66.6866 49.9265 65.911C49.3298 65.2206 48.7707 64.4794 48.2165 63.7545C47.0652 62.2048 46.0904 60.5313 45.3104 58.7653ZM37.8491 27.7316C37.8462 27.5457 37.8213 27.5361 37.7752 27.7123L37.8491 27.7316Z" fill="#88524C"/>
</g>
<g style="mix-blend-mode:multiply" opacity="0.2">
<path d="M39.5738 60.814C39.5106 60.5381 39.4167 60.2702 39.294 60.0152C39.206 59.7285 39.1363 59.4365 39.0854 59.1409C38.9813 58.5289 38.9403 57.9077 38.963 57.2873C38.9383 55.9541 38.9249 54.6238 38.8218 53.2884C38.7695 52.6644 38.695 52.0438 38.6632 51.4222C38.5863 50.7308 38.4546 50.0467 38.2693 49.3761C38.1284 48.7078 38.0353 48.0307 37.8943 47.3623C37.7534 46.694 37.8806 45.9986 37.688 45.3653C37.6805 45.3222 37.688 45.2779 37.7092 45.2397C37.7304 45.2015 37.764 45.1717 37.8046 45.1553C37.8451 45.1389 37.89 45.1369 37.9318 45.1496C37.9736 45.1623 38.0098 45.189 38.0343 45.2251C38.1917 45.494 38.4274 45.7074 38.6027 45.9658C38.7692 46.243 38.8932 46.5435 38.9706 46.8575C39.1797 47.5437 39.3626 48.226 39.5394 48.9311C39.7469 49.6254 39.9141 50.331 40.0402 51.0446C40.1301 51.7573 40.1942 52.4754 40.2748 53.1887C40.4654 54.5843 40.5336 55.9939 40.4785 57.4013C40.4566 57.7174 40.4012 58.0338 40.4013 58.3466C40.4015 58.6593 40.4807 59.0414 40.4648 59.3924C40.4694 59.9402 40.3754 60.4843 40.1874 60.9988C40.0359 61.2992 39.6036 61.095 39.5738 60.814Z" fill="#88524C"/>
</g>
<g style="mix-blend-mode:multiply" opacity="0.2">
<path d="M42.8665 75.4922C42.6753 74.9928 42.5056 74.4809 42.338 73.9726C42.0274 73.0473 41.8597 72.0866 41.5584 71.1607C41.2571 70.2349 40.9656 69.26 40.681 68.3051C40.3964 67.3502 40.4031 66.4654 40.1808 65.5511C40.12 65.3075 40.504 65.1165 40.6138 65.3699C41.3508 67.114 41.9592 68.8853 42.5889 70.6682C42.9117 71.5815 43.0737 72.5407 43.3786 73.4645C43.5462 73.9728 43.7174 74.4791 43.9015 74.9826C44.0717 75.4872 44.212 76.0013 44.3215 76.5224C44.3407 76.6056 44.3299 76.6929 44.2909 76.7689C44.2519 76.8448 44.1873 76.9045 44.1085 76.9374C44.0297 76.9702 43.9419 76.9741 43.8605 76.9484C43.7791 76.9226 43.7094 76.8689 43.6638 76.7967C43.3455 76.3963 43.0777 75.9581 42.8665 75.4922Z" fill="#88524C"/>
</g>
<g style="mix-blend-mode:multiply" opacity="0.2">
<path d="M49.7572 41.5542C51.6883 42.8304 53.7249 43.9004 55.6951 45.1201C57.4768 46.2479 59.308 47.3371 60.8874 48.7278C62.5821 50.203 64.1503 51.8176 65.5755 53.5547C67.0272 55.3522 68.4189 57.2281 69.9432 58.9687C70.1184 59.1694 69.8381 59.4634 69.6414 59.2754C66.5406 56.0173 63.4453 52.7031 59.9887 49.8074C58.3352 48.5077 56.5837 47.3381 54.7496 46.3089C52.7819 45.1263 50.7065 44.1463 48.9026 42.709C48.2512 42.2047 49.0739 41.1022 49.7572 41.5542Z" fill="#88524C"/>
</g>
<g style="mix-blend-mode:multiply" opacity="0.2">
<path d="M50.3476 36.9633C50.2081 36.761 50.1433 36.5165 50.1642 36.2717C50.2444 35.9895 50.3688 35.7218 50.5326 35.4785C50.8779 34.9009 51.2093 34.1678 51.8161 33.8559C52.3527 33.5803 53.1536 34.0357 52.9291 34.6965C52.7182 35.2358 52.419 35.7362 52.0439 36.1774C51.8724 36.3825 51.6801 36.5693 51.4701 36.7347C51.3127 36.8605 51.0969 36.9194 50.9467 37.041C50.7965 37.1627 50.4569 37.2074 50.3476 36.9633Z" fill="#88524C"/>
</g>
<g style="mix-blend-mode:multiply" opacity="0.2">
<path d="M53.7789 32.9332C54.2904 32.6723 54.6755 32.2448 55.1765 31.9659C55.6775 31.6871 56.1193 31.4141 56.5778 31.112C57.0363 30.8099 57.5918 30.5665 58.1084 30.2979C58.5987 30.0086 59.1216 29.7785 59.666 29.6123C59.7356 29.5964 59.8082 29.6007 59.8754 29.6247C59.9426 29.6487 60.0015 29.6915 60.0451 29.7479C60.0888 29.8044 60.1154 29.8721 60.1218 29.9432C60.1282 30.0142 60.1141 30.0856 60.0813 30.149C59.4576 31.1638 58.117 31.472 57.1339 32.062C56.1264 32.6136 55.0524 33.0337 53.9379 33.3118C53.7171 33.3785 53.5662 33.0385 53.7789 32.9332Z" fill="#88524C"/>
</g>
<g style="mix-blend-mode:multiply" opacity="0.2">
<path d="M70.8319 49.7318C73.2013 50.5974 75.7461 51.1294 77.8824 52.5261C78.2326 52.7543 78.0371 53.3741 77.5926 53.2396C76.3848 52.8685 75.2177 52.3761 74.1091 51.7699C72.9878 51.17 71.8159 50.7056 70.6767 50.1162C70.4705 50.0107 70.6069 49.6517 70.8319 49.7318Z" fill="#88524C"/>
</g>
<g style="mix-blend-mode:multiply" opacity="0.2">
<path d="M40.6229 53.7503C40.7337 52.9201 41.5035 52.4262 42.1439 51.9743C42.6349 51.6291 43.2802 52.4354 42.8009 52.8171C42.471 53.0462 42.1775 53.3235 41.9299 53.6398C41.6889 53.9927 41.48 54.269 41.0177 54.2604C40.9559 54.259 40.8952 54.2438 40.8401 54.2159C40.7849 54.1881 40.7366 54.1482 40.6988 54.0994C40.661 54.0505 40.6345 53.9938 40.6214 53.9334C40.6083 53.873 40.6088 53.8105 40.6229 53.7503Z" fill="#88524C"/>
</g>
<g style="mix-blend-mode:multiply" opacity="0.2">
<path d="M42.4962 38.1948C42.2801 37.0531 41.9612 35.9332 41.5436 34.8489C41.1844 33.84 40.6194 32.9169 39.8845 32.138C39.5066 31.772 39.0609 31.4793 38.6744 31.1232C38.3527 30.7755 37.9712 30.4886 37.548 30.276C36.6052 29.8989 36.9265 28.392 37.9576 28.6982C38.9887 29.0043 39.8627 29.8067 40.7708 30.4207C41.8463 31.1832 42.7152 32.2013 43.2992 33.3832C43.8827 34.5855 44.3249 35.8514 44.6169 37.1556C44.9236 38.5018 45.2052 39.805 44.963 41.1838C44.9282 41.3089 44.8616 41.4229 44.7697 41.5147C44.6777 41.6064 44.5636 41.6728 44.4384 41.7073C44.3132 41.7418 44.1812 41.7433 44.0552 41.7116C43.9292 41.68 43.8136 41.6162 43.7196 41.5265C42.912 40.5168 42.7364 39.4356 42.4962 38.1948Z" fill="#88524C"/>
</g>
<g style="mix-blend-mode:multiply" opacity="0.2">
<path d="M57.968 65.8101C57.6766 64.9506 57.3058 64.128 56.973 63.288C56.3242 61.5801 55.5706 59.9138 54.7166 58.2986C52.8996 54.9726 50.2225 52.2656 48.0554 49.1637C47.6562 48.5887 48.5319 47.9221 49.0167 48.4133C49.7073 49.1161 50.5223 49.645 51.2684 50.2864C52.0145 50.9278 52.6493 51.5766 53.3204 52.2379C54.7927 53.6611 56.0822 55.262 57.1593 57.0036C58.146 58.715 59.003 60.498 59.7233 62.3375C60.1006 63.1927 60.3725 64.0906 60.5328 65.0115C60.6032 65.4853 60.6877 65.9749 60.7138 66.4554C60.7734 66.9732 60.7341 67.4976 60.598 68.0008C60.5559 68.1472 60.4771 68.2805 60.3689 68.3879C60.2608 68.4952 60.127 68.5731 59.9802 68.6142C59.8335 68.6552 59.6786 68.658 59.5305 68.6223C59.3823 68.5866 59.2458 68.5136 59.1338 68.4102C58.4897 67.7621 58.2593 66.6696 57.968 65.8101Z" fill="#88524C"/>
</g>
<path opacity="0.2" d="M33.3921 33.2574C33.944 31.9717 35.8377 32.8799 35.5669 34.1359C35.534 34.2851 35.7758 34.6489 35.8328 34.7792C36.0174 35.1782 36.2301 35.5636 36.4693 35.9324C36.9913 36.6574 37.5617 37.3462 38.1768 37.9941C38.7728 38.6753 39.3847 39.3423 39.9333 40.0657C40.1292 40.3264 40.3108 40.5955 40.4838 40.8745C40.6567 41.1535 40.8246 41.6377 40.9001 41.7667C40.9829 41.911 41.0267 42.0743 41.0273 42.2406C41.028 42.4069 40.9853 42.5705 40.9037 42.7154C40.822 42.8603 40.7041 42.9814 40.5615 43.067C40.4189 43.1525 40.2565 43.1996 40.0902 43.2035C39.1024 43.3003 38.3286 42.7184 37.7071 42.0185C36.9751 41.1956 36.284 40.3439 35.5873 39.4907C34.3045 37.8831 32.4533 35.4194 33.3921 33.2574Z" fill="white"/>
<path opacity="0.2" d="M48.8309 61.3589C47.5181 58.8931 46.3296 56.3631 45.2697 53.7785C45.1202 53.5005 45.0817 53.1761 45.1621 52.8709C45.2425 52.5656 45.4358 52.3022 45.7029 52.134C45.9784 51.9764 46.3047 51.9332 46.6118 52.0135C46.9189 52.0938 47.1822 52.2913 47.3453 52.5635C47.9695 53.8106 48.5864 55.0619 49.2356 56.2943C49.8848 57.5267 50.6395 58.6926 51.3591 59.8645C52.8108 62.254 54.6542 64.4576 55.5577 67.144C55.8779 68.1021 54.633 68.6479 53.966 68.0757C51.8272 66.2472 50.2008 63.8059 48.8309 61.3589Z" fill="white"/>
<path d="M13.59 53.9362C13.5595 53.9878 13.5437 54.0468 13.544 54.1067C13.5444 54.1667 13.5609 54.2254 13.592 54.2767C14.2968 55.3081 16.144 54.9199 17.1447 54.6807C18.7447 54.2976 20.3319 53.7777 21.892 53.2688C23.3973 52.7698 24.8246 52.0607 26.1316 51.1625C26.7774 50.7363 27.4068 50.315 28.0134 49.83C28.3425 49.57 28.6135 49.2765 28.925 49.0028C29.1668 48.7357 29.4523 48.5116 29.7692 48.3401C29.818 48.3264 29.8625 48.3004 29.8983 48.2645C30.2952 48.4342 30.7313 48.4904 31.1582 48.4271C32.18 48.2516 33.1921 48.0238 34.1906 47.7447C34.1873 48.3146 34.1804 48.8866 34.1585 49.4577C34.0602 52.2828 33.9093 55.1003 33.9548 57.9327C33.97 60.3468 34.1124 62.7585 34.3817 65.1577C34.2255 65.4997 34.1019 65.8557 34.0125 66.2209C33.8559 66.8661 33.6368 67.495 33.5313 68.1535C33.3788 69.4201 33.3342 70.6973 33.3981 71.9714C33.429 73.3689 33.309 74.7656 33.0402 76.1373C32.7592 77.5485 32.4611 78.9551 32.1382 80.3523C31.8438 81.6172 31.3412 83.028 31.4652 84.3417C31.5475 85.2224 32.2679 85.6719 32.9228 84.9324C33.6482 84.1324 33.8498 82.8158 34.1826 81.8221C34.6076 80.5336 34.8591 79.1542 35.1663 77.8289C35.5571 76.3202 35.7697 74.771 35.7997 73.2128C35.8005 72.519 35.7398 71.8265 35.6184 71.1434C35.9063 72.0853 36.2496 73.0094 36.6464 73.9109C37.6698 76.2431 39.0494 78.6411 41.1576 80.1458C41.984 80.7353 43.1138 81.4073 44.1611 81.3381C45.3794 81.2651 45.5972 79.968 45.4947 78.9788C45.2987 77.6914 44.9857 76.4247 44.5596 75.1942C44.1473 73.7991 43.697 72.4214 43.2596 71.0409C42.4439 68.3334 41.8041 65.576 41.3442 62.786C40.9765 60.551 40.7431 58.296 40.6451 56.0331C41.3133 54.941 42.0983 53.9247 42.9862 53.0022L43.0287 53.6175C43.2214 56.066 43.754 58.4758 44.6111 60.7774C45.4996 63.0719 46.7987 65.1853 48.4448 67.0142C50.0733 68.7903 51.8968 70.3773 53.8806 71.7452C55.7293 73.0697 58.0363 74.429 60.4048 74.4625C60.4998 74.5098 60.606 74.5296 60.7116 74.5196C60.8172 74.5097 60.9179 74.4704 61.0024 74.4063C61.0998 74.3632 61.1835 74.2942 61.2444 74.2068C61.3053 74.1194 61.341 74.0169 61.3476 73.9106C62.4744 71.8312 62.4234 69.1704 62.1688 66.8936C61.9474 64.4941 61.4563 62.1271 60.705 59.8375C59.9156 57.5073 58.7102 55.3394 57.1474 53.4392C55.5602 51.5641 53.7183 49.9204 51.6754 48.556L51.1597 48.2178C52.3988 47.8952 53.6693 47.7083 54.9487 47.6604C56.8751 48.8529 58.7282 50.1598 60.4982 51.574C62.6989 53.3457 64.7828 55.2578 66.7369 57.2983C67.7264 58.3555 68.7108 59.4206 69.7218 60.4653C70.5859 61.44 71.5386 62.3325 72.5676 63.1314C73.3835 63.703 74.6104 64.1544 75.2741 63.1258C75.8409 62.2357 75.818 60.9303 75.7085 59.921C75.4251 57.3482 74.0132 54.9691 72.4807 52.9349C71.8861 52.1494 71.2473 51.3985 70.5673 50.6857C71.1068 51.1257 71.682 51.5199 72.2871 51.8642C73.6691 52.5976 75.1325 53.1658 76.6473 53.5571C77.9534 53.9381 79.2792 54.3942 80.6144 54.6523C81.6402 54.8508 82.8905 55.3175 83.9396 55.0788C84.8988 54.859 84.8595 54.0108 84.1382 53.5186C83.0571 52.7652 81.5772 52.5148 80.3301 52.1522C78.9466 51.7539 77.5742 51.3251 76.2133 50.8751C74.8856 50.4379 73.609 49.8587 72.4056 49.1475C71.317 48.4672 70.1721 47.8814 68.9835 47.3964C68.3649 47.1617 67.7021 47.0491 67.0629 46.8697C66.701 46.7675 66.3299 46.701 65.955 46.6711C63.9961 45.261 61.9642 43.9553 59.8677 42.7594C57.4203 41.333 54.8862 40.0873 52.3747 38.7899C51.8696 38.5272 51.3674 38.2532 50.8689 37.977C51.6002 37.2423 52.2943 36.4713 52.9485 35.6671C53.2106 35.3257 53.3737 34.9189 53.4201 34.491C53.4688 34.4772 53.5132 34.4512 53.5491 34.4155C53.8551 34.2226 54.1914 34.0827 54.5439 34.0016C54.9422 33.8599 55.3272 33.7693 55.7115 33.6118C56.4278 33.3224 57.1069 32.9779 57.7911 32.6255C59.2142 31.9256 60.5313 31.0282 61.7034 29.9599C62.9004 28.8309 64.1413 27.7194 65.2587 26.5118C65.9572 25.7564 67.1917 24.3214 66.6459 23.2162C66.6163 23.1641 66.5732 23.1209 66.5211 23.0912C66.469 23.0615 66.4098 23.0465 66.3499 23.0477C65.7955 23.1231 65.2787 23.3701 64.8718 23.7541C64.3104 24.2175 63.751 24.6845 63.2136 25.1724C62.1213 26.168 61.262 27.3641 60.1126 28.3113C58.853 29.2627 57.4737 30.0442 56.0102 30.6356C54.8461 31.163 53.4777 31.6704 52.5795 32.6438C51.923 32.3446 51.1474 32.919 50.568 33.3929C49.5912 34.1909 48.6509 35.2323 48.3601 36.4951C48.3605 36.5067 48.3638 36.518 48.3697 36.528C48.3756 36.538 48.3838 36.5464 48.3937 36.5524C47.8888 36.2656 47.3869 35.9673 46.877 35.6882C46.4459 35.4758 46.0274 35.2386 45.6237 34.9779C45.4925 34.0324 45.1866 33.1195 44.7217 32.2858C44.3581 31.6891 43.9357 31.1301 43.461 30.6172C44.5972 29.6288 45.4947 28.3958 46.0862 27.0109C46.3169 26.4749 46.3669 25.8785 46.2288 25.3116C46.0906 24.7447 45.7716 24.2382 45.3202 23.8686C44.8297 22.9107 44.4289 21.9095 44.1229 20.8777C43.7325 19.8219 43.4777 18.7208 43.3648 17.6009C43.2879 16.0142 44.1486 14.1049 43.3249 12.5992C43.0668 12.1583 42.5146 11.774 42.0346 12.1464C41.5547 12.5188 41.2601 13.4709 41.1827 14.0457C40.9574 15.8492 41.0612 17.6785 41.4889 19.445C41.7973 20.8601 42.3554 22.2089 43.1371 23.4282C42.9379 23.5698 42.7701 23.751 42.6443 23.9605C42.5184 24.17 42.4372 24.4033 42.4058 24.6456C42.2755 25.2947 42.3659 25.9589 42.2541 26.6067C42.1805 27.0288 42.043 27.4371 41.8463 27.8177C41.697 28.1778 41.4879 28.5101 41.228 28.8006C41.0963 28.7236 40.9631 28.6524 40.8279 28.5775C40.5069 28.4063 40.1748 28.2565 39.8339 28.1293C39.985 27.9092 40.082 27.6565 40.1169 27.3918C40.1519 27.1272 40.1238 26.858 40.0349 26.6062C39.8844 26.1171 39.5667 25.6966 39.1373 25.4181C39.2675 25.2058 39.3762 24.9809 39.4616 24.747C39.654 24.4266 39.718 24.0452 39.6406 23.6796C39.6038 23.3727 39.501 23.0774 39.3393 22.8139C39.1776 22.5505 38.9609 22.3252 38.7039 22.1534C38.4514 21.975 38.1597 21.8602 37.8534 21.8186C37.6375 21.7428 37.4144 21.6895 37.1875 21.6596C36.7964 21.6113 36.3997 21.6774 36.0454 21.8498C35.691 22.0222 35.3942 22.2936 35.1908 22.6311C35.0563 22.8373 34.9508 23.061 34.8772 23.296C34.6625 23.2119 34.4363 23.1609 34.2063 23.1448C34.2772 23.0003 34.3555 22.8597 34.441 22.7234C34.8316 22.1819 35.1797 21.6172 35.5915 21.0873C36.1427 20.3844 36.7242 19.3798 36.5249 18.4472C36.2643 17.1798 35.26 16.1794 34.8751 14.9463C34.6452 14.2404 34.5165 13.5055 34.4926 12.7636C34.5381 12.1754 34.622 11.5909 34.7438 11.0137C34.7473 10.9795 34.7374 10.9452 34.7162 10.9182C34.695 10.8911 34.6641 10.8733 34.63 10.8686C34.609 10.8327 34.548 10.8107 34.5289 10.8603C34.5077 10.8695 34.489 10.8835 34.4743 10.9013C34.4596 10.9191 34.4494 10.9402 34.4445 10.9627L34.4109 11.1027C34.2684 11.369 34.0911 11.6172 33.9663 11.8972C33.8504 12.1892 33.7538 12.4885 33.6773 12.7932C33.4351 13.5599 33.3448 14.3664 33.4115 15.1677C33.5097 15.9972 33.8088 16.7903 34.2827 17.4783C34.514 17.8242 34.834 18.0748 35.0648 18.4115C35.1865 18.599 35.2815 18.8027 35.3468 19.0165C35.2933 19.0334 35.2411 19.0543 35.1908 19.0789C34.9674 19.2281 34.7597 19.3996 34.5711 19.5909C34.1802 19.9837 33.8239 20.4096 33.5065 20.8638C32.9987 21.575 32.5488 22.6566 32.7164 23.5596C32.3593 23.8358 32.0476 24.1661 31.7925 24.5385C31.3428 24.578 30.9021 24.6882 30.4866 24.8649C29.7813 24.2766 28.618 24.1393 27.7492 24.2339C27.1989 24.2876 26.6543 24.389 26.1216 24.5369C25.8614 24.6087 25.609 24.7065 25.3683 24.8287C25.3222 24.8607 25.2785 24.896 25.2374 24.9341C25.083 24.7725 24.9518 24.59 24.8479 24.392C24.6632 24.0188 24.6013 23.6171 24.4207 23.2511C24.0511 22.5022 23.5063 21.8536 22.8325 21.3602C22.1679 20.9091 21.4216 20.5923 20.6356 20.4273C20.3315 20.3442 20.022 20.2825 19.7093 20.2427C19.4075 20.2124 19.1008 20.2475 18.7988 20.2414C18.7533 20.2295 18.7094 20.2119 18.6603 20.2022C18.6389 20.1954 18.6163 20.1938 18.5942 20.1975C18.5721 20.2013 18.5512 20.2102 18.5333 20.2236C18.4806 20.2159 18.458 20.2676 18.4909 20.3157C18.4866 20.3322 18.4855 20.3493 18.4878 20.3661C18.4901 20.3829 18.4957 20.3992 18.5043 20.4138C18.5128 20.4285 18.5243 20.4413 18.5378 20.4515C18.5514 20.4618 18.5668 20.4692 18.5833 20.4735C19.1451 20.6529 19.6957 20.8658 20.232 21.1111C20.8674 21.4944 21.4442 21.9674 21.9445 22.5154C22.8249 23.4439 23.2226 24.814 24.1894 25.668C24.9049 26.2984 26.0621 26.2853 26.9484 26.1467C27.6099 26.0434 28.2728 26.0164 28.9382 25.9445C29.0989 25.9367 29.2599 25.9372 29.4205 25.9462C29.3217 26.1535 29.2566 26.3753 29.2275 26.6031C28.9853 26.553 28.7374 26.5361 28.4907 26.5531C28.0968 26.5652 27.7148 26.6911 27.391 26.9157C27.0672 27.1403 26.8153 27.4539 26.666 27.8185C26.581 28.0309 26.5182 28.2516 26.4786 28.4769C26.3537 28.7667 26.3023 29.0828 26.329 29.3972C26.3531 29.7052 26.4431 30.0045 26.593 30.2746C26.7428 30.5448 26.949 30.7797 27.1976 30.9632C27.4802 31.2091 27.8451 31.3392 28.2195 31.3277C28.4639 31.3696 28.7121 31.3856 28.9599 31.3756C28.994 31.886 29.2064 32.3682 29.56 32.7378C29.7337 32.9406 29.9537 33.0984 30.2014 33.1981C30.4491 33.2978 30.7172 33.3363 30.9829 33.3104C30.9281 33.6693 30.8973 34.0314 30.8906 34.3944C30.8861 34.5511 30.8866 34.7 30.8892 34.8525C30.5077 34.9386 30.1143 34.9589 29.7259 34.9125C29.3096 34.8801 28.9003 34.7873 28.5106 34.6372C27.8983 34.4133 27.3562 34.0134 26.73 33.8072C26.5031 33.7169 26.2601 33.674 26.0159 33.6812C25.7718 33.6883 25.5317 33.7454 25.3104 33.8488C24.6296 32.5709 23.7281 31.4234 22.6478 30.4594C21.3205 29.2207 19.7799 28.2325 18.1006 27.5426C17.5615 27.3288 16.587 27.1194 16.0273 27.3556C15.4677 27.5918 15.5216 28.2677 15.7905 28.7024C16.693 30.1619 18.7686 30.3283 20.1322 31.1859C21.0558 31.8303 21.8925 32.591 22.6218 33.4492C23.3689 34.2233 24.0444 35.0635 24.64 35.9595C24.7412 36.5346 25.0272 37.061 25.4546 37.4588C25.882 37.8566 26.4276 38.1041 27.0084 38.1638C28.5043 38.3275 30.0177 38.1492 31.4347 37.6425C31.6512 38.3069 31.9318 38.9486 32.2724 39.5588C32.7731 40.3718 33.4205 41.0847 34.1817 41.6612C34.2103 42.1416 34.211 42.6233 34.1839 43.1039C34.1812 43.683 34.1919 44.2688 34.1985 44.8473C34.1947 44.8357 34.1879 44.8253 34.1789 44.8171C34.1699 44.8089 34.1589 44.8031 34.147 44.8004C32.8999 44.4378 31.5423 44.7416 30.3574 45.2089C29.6641 45.48 28.7907 45.8709 28.7195 46.5961C27.4372 46.9135 26.3285 47.8561 25.2888 48.6043C24.0554 49.594 22.697 50.4168 21.2485 51.0512C19.8634 51.5876 18.3982 51.7569 16.9969 52.2162C16.3083 52.446 15.6237 52.7072 14.9484 52.9677C14.4043 53.1383 13.9286 53.4774 13.59 53.9362ZM32.5279 84.5619C32.0833 84.8221 32.0921 84.4753 32.0768 84.2436C32.065 83.861 32.0979 83.4783 32.1746 83.1033C32.3878 81.9052 32.7305 80.7227 32.9984 79.5359C33.5238 77.202 34.039 74.8836 33.9768 72.4749C33.895 71.223 33.8849 69.9675 33.9463 68.7144C34.0267 68.0751 34.1478 67.4415 34.3088 66.8176L34.4794 65.9332C34.6025 66.8013 34.7532 67.6645 34.9315 68.5228C34.9127 68.5629 34.9005 68.6059 34.8952 68.6499C34.6434 70.9825 35.2263 73.2693 34.9964 75.6228C34.8361 76.9063 34.5879 78.1774 34.2534 79.4269C33.9884 80.5447 33.7521 81.6457 33.3686 82.7173C33.2201 83.2257 33.0259 83.7195 32.7883 84.1929C32.7247 84.3307 32.6364 84.4558 32.5279 84.5619ZM14.3629 54.1383C14.8577 53.834 15.3979 53.6104 15.9631 53.476C16.6131 53.2544 17.2645 53.027 17.9338 52.8711C19.3179 52.6236 20.675 52.2435 21.9862 51.736C23.2769 51.1058 24.4901 50.3278 25.6013 49.4177C26.1989 48.9668 26.7776 48.4836 27.3899 48.0578C27.6498 47.8768 27.918 47.7102 28.1827 47.5456C28.2329 47.5163 28.5412 47.3358 28.7957 47.1868C28.9161 47.4837 29.1116 47.7441 29.3632 47.9424C29.0134 48.1803 28.6901 48.4551 28.3989 48.762C27.834 49.3028 27.2289 49.8002 26.5889 50.2498C25.4143 51.0649 24.1787 51.7882 22.8929 52.4133C21.4748 53.0245 20.0105 53.5227 18.5139 53.9033C17.8224 54.1299 17.1114 54.2915 16.3899 54.3861C15.8835 54.4419 14.8509 54.5361 14.3629 54.1383ZM42.1447 79.6449C40.0234 78.3068 38.7077 75.9195 37.7311 73.6754C35.6017 68.8043 35.195 63.4061 35.0624 58.1555C34.9909 55.2132 35.1303 52.2773 35.1408 49.3351C35.1484 47.8434 35.0747 46.3607 34.9783 44.8721C34.9327 44.1528 34.8813 43.432 34.8193 42.7175L34.7724 42.1769C35.9556 43.2228 37.2141 44.1801 38.5379 45.0411C38.5635 45.4308 38.6283 45.817 38.7313 46.1937C38.8833 46.7934 38.9969 47.4021 39.0713 48.0163C39.2027 49.3015 39.4669 50.5668 39.6019 51.8499C39.883 54.4433 39.8953 57.0545 40.1671 59.6485C40.4184 62.2317 40.8359 64.7961 41.4169 67.3256C42.0527 69.9906 42.9109 72.5831 43.6839 75.2111C44.1095 76.4436 44.4178 77.7136 44.6046 79.004C44.6624 79.6537 44.6491 80.5519 43.7689 80.3885C43.1855 80.245 42.6345 79.9927 42.1447 79.6449ZM17.4389 29.7012C17.0394 29.4875 15.7403 28.7317 16.1107 28.1395C16.3383 27.78 17.2485 28.0029 17.6335 28.1097C18.1315 28.2817 18.6072 28.5121 19.0509 28.7961C19.9694 29.2984 20.8315 29.8974 21.6227 30.583C22.3781 31.2659 23.0701 32.016 23.6901 32.8239C24.0765 33.3196 24.3965 33.9073 24.8238 34.3743C24.7261 34.5627 24.6579 34.765 24.6214 34.9741C24.2436 34.5009 23.8384 34.0502 23.4078 33.6244C22.6886 32.8837 21.9183 32.1942 21.1027 31.5612C20.3977 31.0613 19.6326 30.6521 18.8254 30.3432C18.3473 30.1514 17.8722 29.9482 17.4389 29.7012ZM29.7679 47.4745C29.4059 47.0944 29.3178 46.6068 29.7844 46.2856C30.2341 45.992 30.7198 45.7578 31.2296 45.5888C32.1451 45.2306 33.1136 45.0264 34.0958 44.9844C34.1119 44.9848 34.1279 44.9806 34.1418 44.9725C34.1557 44.9643 34.1671 44.9525 34.1747 44.9382C34.1772 45.033 34.1798 45.1278 34.1787 45.2247C34.1884 45.8608 34.1905 46.4837 34.1848 47.0934C33.616 47.2185 33.057 47.3848 32.5123 47.5911C31.6573 47.8654 30.4986 48.2212 29.7679 47.4745ZM27.3166 37.5309C26.9708 37.5294 26.6308 37.4415 26.3276 37.2752C26.0243 37.109 25.7674 36.8696 25.5801 36.5789C25.2968 36.0949 25.1072 35.1133 25.6062 34.6912C25.9499 34.3986 26.6053 34.7947 26.9456 34.9565C27.4 35.1991 27.873 35.405 28.3602 35.5724C29.1864 35.852 30.0852 35.8276 30.895 35.5037C30.927 35.978 31.0098 36.4475 31.142 36.9041C29.9477 37.4273 28.6399 37.6379 27.3417 37.5163L27.3166 37.5309ZM21.6314 21.7504C21.0483 21.2402 20.3802 20.8363 19.6574 20.5571C19.9585 20.5952 20.2566 20.6539 20.5496 20.7327C21.4247 20.9573 22.2344 21.3855 22.9127 21.9823C23.2628 22.3148 23.5552 22.7032 23.778 23.1315C23.9666 23.5596 24.1156 24.0041 24.2231 24.4593C24.2625 24.5759 24.3081 24.7032 24.3594 24.832C24.2167 24.7132 24.083 24.5839 23.9597 24.4451C23.559 24.0154 23.2681 23.5022 22.8919 23.0485C22.5135 22.5807 22.1005 22.1419 21.6565 21.7357L21.6314 21.7504ZM40.5717 55.1183L40.5025 53.479L40.4542 52.7468C40.5357 52.6558 40.6058 52.5618 40.6801 52.475C40.9852 52.0877 41.3241 51.7283 41.6927 51.4009C42.0418 51.0908 42.4335 50.8323 42.8559 50.6334L42.9168 50.5977C42.9033 51.1255 42.9089 51.6613 42.9309 52.1923C42.3297 52.6884 41.8013 53.2667 41.3613 53.91C41.0831 54.2924 40.8278 54.691 40.5968 55.1036L40.5717 55.1183ZM27.8385 30.6603C27.4857 30.5693 27.182 30.3451 26.991 30.0348C27.0757 29.6532 26.9223 29.2761 26.9621 28.8918C26.9926 28.6048 27.0953 28.3301 27.2607 28.0936C27.4261 27.857 27.6488 27.6663 27.9079 27.5392C28.1797 27.425 28.4752 27.3784 28.769 27.4034C29.0628 27.4284 29.3462 27.5243 29.5948 27.6828C30.2565 28.0897 30.3853 28.6304 30.3048 29.3562C30.2422 29.8741 30.1693 30.35 29.6347 30.5714C29.067 30.7824 28.447 30.8084 27.8636 30.6456L27.8385 30.6603ZM48.7548 65.6198C47.7813 64.4032 46.9544 63.0762 46.2913 61.6662C46.7125 61.7279 47.137 61.7639 47.5626 61.774C48.1826 61.7337 48.7965 61.6277 49.3941 61.4576C50.6268 61.1655 51.8085 60.6896 52.8996 60.0458C54.0129 59.4336 55.0081 58.6277 55.8385 57.6661C56.214 57.2349 56.5287 56.7544 56.7737 56.2378C56.884 55.9761 56.9758 55.7069 57.0481 55.4322C57.965 56.7284 58.7238 58.1296 59.3083 59.6058C59.2241 59.9274 59.1021 60.238 58.9449 60.5309C58.6331 61.056 58.2567 61.54 57.8244 61.9714C57.0356 62.8144 56.1477 63.5588 55.18 64.1883C53.3528 65.359 50.9868 65.7572 48.7799 65.6051L48.7548 65.6198ZM35.0538 41.3913C34.103 40.465 33.3438 39.3607 32.8192 38.1413C32.861 38.1249 32.8967 38.0958 32.9213 38.0581C32.9458 38.0205 32.958 37.9761 32.9561 37.9312C32.8948 36.9865 33.1352 36.0468 33.6428 35.2478C34.2378 34.447 35.7647 33.635 35.7173 35.256C35.6987 36.0466 35.5716 36.6023 36.3977 36.9611C36.7238 37.1071 37.0969 37.062 37.4125 37.1901C37.8126 37.3554 37.7197 38.2328 37.7244 38.5862C37.7408 39.3708 37.6493 40.3245 38.2124 40.9575C38.7219 41.5401 39.5219 41.6734 40.246 41.7839C40.6279 41.8443 41.0115 41.8171 41.3979 41.9182C41.5891 41.9651 41.8926 42.0233 42.0334 42.1815C42.2182 42.4151 42.0863 42.9544 42.0451 43.2047C41.991 43.6458 41.88 44.078 41.7149 44.4906C41.6967 44.5253 41.2434 45.3297 41.1109 45.3254C41.0622 45.3241 41.0144 45.3383 40.9744 45.3661C40.9343 45.3938 40.9042 45.4337 40.8884 45.4798C38.7496 44.4284 36.794 43.0394 35.0968 41.3662L35.0538 41.3913ZM49.9611 67.0556C49.7428 66.8224 49.5316 66.585 49.3219 66.3419C50.2144 66.3482 51.1049 66.2563 51.9773 66.0679C53.2584 65.8327 54.4808 65.3477 55.5748 64.6407C56.6368 63.9299 57.5937 63.0733 58.4172 62.0961C58.7924 61.6764 59.096 61.1978 59.3159 60.6795C59.3897 60.4747 59.4468 60.2642 59.4866 60.0502C59.6391 60.4422 59.7772 60.8427 59.9118 61.2452C60.2846 62.4172 60.5721 63.6146 60.7721 64.8281C60.578 65.277 60.3324 65.7018 60.0402 66.094C59.3935 66.9294 58.5845 67.6256 57.6621 68.1407C55.9918 69.091 54.0401 69.4223 52.1499 69.0762L52.0715 69.0739C51.3421 68.4348 50.6517 67.7523 50.0041 67.0304L49.9611 67.0556ZM32.4867 37.3348C32.4173 37.1588 32.3495 36.9771 32.2852 36.7933C31.9875 35.9585 31.8192 35.0831 31.7862 34.1975C31.7952 33.7752 31.8264 33.3537 31.8796 32.9347C32.267 32.598 32.5944 32.1981 32.8478 31.7518L33.0784 31.381C33.4855 32.0765 34.0033 32.813 34.8598 32.9278C35.2556 32.9457 35.6508 32.8794 36.0191 32.7335C36.3875 32.5875 36.7208 32.3652 36.997 32.081C37.4801 31.6154 37.906 30.904 37.5811 30.2422C37.4163 29.9531 37.1909 29.703 36.9204 29.5091C36.6498 29.3152 36.3406 29.1821 36.0139 29.1188C36.5101 29.0786 37.0112 29.0548 37.4938 29.0322C38.0069 29.029 38.5158 28.9394 38.9992 28.7671C39.389 28.9481 39.8028 29.0957 40.1496 29.3018C40.9047 29.7651 41.5844 30.3411 42.1651 31.01C42.8945 31.8118 43.5239 32.6992 44.0394 33.6527C43.7986 33.4872 43.541 33.3476 43.2709 33.2362C42.3467 32.8578 41.405 32.5812 40.4925 32.1816C39.5027 31.7406 37.6752 31.5541 37.5324 33.0287C37.3896 34.5033 39.0259 34.9798 40.0857 35.4665C40.3795 35.5498 40.6409 35.7209 40.8349 35.9569C41.0278 36.229 40.9873 36.349 40.8894 36.6421C40.7544 36.9607 40.6442 37.2891 40.5596 37.6246C40.5021 37.9074 40.5473 38.2015 40.6872 38.454C40.827 38.7065 41.0524 38.9008 41.3226 39.0021C42.0745 39.308 42.9493 39.2484 43.7262 39.482C44.503 39.7155 45.4725 40.385 45.5301 41.3139C45.2706 41.2981 45.0107 41.34 44.7694 41.4368C44.5323 41.5481 44.3301 41.7218 44.1844 41.9394C44.0387 42.157 43.955 42.4102 43.9424 42.6717C43.7647 44.0127 44.4066 45.3312 45.2848 46.3381C45.1968 46.6075 45.0141 46.8359 44.7706 46.9809C44.2292 47.2977 43.701 46.7983 43.21 46.5515C42.719 46.3046 42.0957 46.0293 41.5371 45.7739C41.9523 45.5174 42.2831 45.1447 42.4884 44.702C42.6832 44.2572 42.8077 43.7849 42.8576 43.3018C42.9553 42.9079 42.9632 42.4969 42.8806 42.0995C42.6677 41.4396 41.8496 41.2591 41.2356 41.1805C40.3319 41.0838 38.7944 41.2281 38.4772 40.119C38.2025 39.1728 38.595 38.1248 38.3439 37.1695C38.125 36.335 37.2892 36.6751 36.7211 36.3049C36.0228 35.852 36.6659 34.6237 35.9914 34.0222C35.7568 33.8516 35.4761 33.7559 35.1861 33.7478C34.8962 33.7397 34.6106 33.8196 34.3668 33.9768C33.0973 34.6285 32.6282 35.9813 32.5339 37.3168L32.4867 37.3348ZM45.9458 60.9443C45.5177 59.8928 45.1663 58.8115 44.8944 57.7092C46.8182 57.8875 48.9392 57.0214 50.5776 56.1778C51.6433 55.633 52.6058 54.9067 53.4221 54.0314C53.863 53.5894 54.2356 53.0842 54.5276 52.5324C55.3002 53.2806 56.02 54.0816 56.6817 54.9295C56.4458 55.9394 55.9195 56.8582 55.1676 57.5726C54.3649 58.4017 53.433 59.0951 52.4083 59.6258C51.3387 60.2198 50.1848 60.6469 48.9863 60.8925C48.36 61.0577 47.7097 61.1126 47.0645 61.0548C46.7439 60.9922 46.3716 60.9646 45.993 60.9263L45.9458 60.9443ZM30.2616 32.2838C29.9146 32.0525 29.6426 31.7249 29.4789 31.3413C29.6075 31.3182 29.7347 31.2887 29.8603 31.2528C30.1948 31.1456 30.4897 30.9411 30.7072 30.6654C30.9248 30.3897 31.0552 30.0553 31.0818 29.7051C31.2225 28.819 31.2303 28.0347 30.5529 27.3627C30.3162 27.1281 30.0409 26.9359 29.7391 26.7946C29.9519 26.4541 30.2006 26.1375 30.481 25.8501C30.6362 25.6933 30.8447 25.6004 31.0651 25.59C31.305 25.618 31.5481 25.5924 31.7769 25.5151C32.0426 25.4001 32.2812 25.2309 32.4776 25.0182C32.5831 24.9324 32.6773 24.8336 32.758 24.7242C32.7928 24.6605 32.7993 24.5893 32.8342 24.5255C32.9075 24.4277 33.0041 24.3496 33.1152 24.2985C33.2426 24.2095 33.3768 24.1309 33.5167 24.0635C33.9046 23.9597 34.3024 23.8978 34.7035 23.879C34.6784 24.2114 34.7112 24.5455 34.8004 24.8667C35.0511 25.7885 35.7388 26.1657 36.5804 26.4769C36.8987 26.6252 37.2541 26.6752 37.601 26.6204C37.948 26.5657 38.2707 26.4087 38.5279 26.1695C38.6187 26.0779 38.7109 25.9806 38.7954 25.8782C39.0486 26.2098 39.1998 26.6081 39.2304 27.0242C39.2218 27.1647 39.1842 27.302 39.1201 27.4273C39.056 27.5526 38.9666 27.6634 38.8577 27.7525C38.5946 27.9691 38.1209 27.8999 37.8086 27.9912C37.6992 28.0264 37.5988 28.0852 37.4936 28.1275C37.3358 28.1834 37.1722 28.221 37.0058 28.2397C36.2166 28.3266 35.4419 28.5148 34.7008 28.7997L34.6398 28.8353C34.6197 28.8416 34.6013 28.8523 34.586 28.8668L34.1487 29.1228C34.129 29.13 34.1108 29.1407 34.0949 29.1543C33.2644 29.7993 31.5267 32.8909 30.3089 32.2658L30.2616 32.2838ZM25.5385 25.2922C25.7044 25.2384 25.8732 25.1732 26.0325 25.1329C26.4832 25.0231 26.9418 24.9761 27.3992 24.9105C28.1462 24.8053 29.2008 24.7897 29.8761 25.2608L29.8331 25.286C29.0506 24.9113 27.8742 25.056 27.0901 25.1636C26.5929 25.2453 26.0895 25.2823 25.5857 25.2741L25.5385 25.2922ZM41.2591 50.9809C40.9301 51.2614 40.629 51.5731 40.3599 51.9115C40.2827 50.8834 40.1798 49.8606 40.0327 48.8445C39.9396 48.1674 39.9612 47.4809 39.8424 46.8092C39.786 46.4909 39.689 46.1771 39.614 45.8599C39.5784 45.799 39.5729 45.7156 39.5473 45.6391C40.7921 46.2773 42.0966 46.8037 43.3414 47.442C43.2673 47.6793 43.2167 47.9234 43.1903 48.1706C43.0958 48.7409 42.9744 49.2982 42.9304 49.8726C42.3251 50.1304 41.7741 50.5003 41.3063 50.9628L41.2591 50.9809ZM44.7271 56.9793C44.5804 56.3095 44.458 55.6399 44.3569 54.9819C44.2956 54.5894 44.2492 54.1978 44.2122 53.8056C44.7044 53.7648 45.1922 53.6821 45.6703 53.5585C46.5037 53.3429 47.3074 53.026 48.0636 52.6148C48.851 52.1803 49.5618 51.6195 50.1676 50.9548C50.4256 50.6727 50.6633 50.3727 50.879 50.0571C50.9642 49.9422 51.0329 49.8161 51.0833 49.6824C51.4326 49.9256 51.7768 50.1765 52.1145 50.4409C52.8407 51.0073 53.5587 51.6171 54.2435 52.2607C54.0754 52.5401 53.8905 52.8091 53.6897 53.0661C53.3547 53.5084 52.9703 53.9111 52.544 54.2663C51.7821 54.9207 50.9264 55.4573 50.0055 55.8581C49.1078 56.2812 48.1654 56.602 47.196 56.8144C46.6888 56.9372 46.1722 57.0174 45.6517 57.0541C45.3963 57.0207 45.0868 56.9853 44.7743 56.9613L44.7271 56.9793ZM55.0143 71.2645C54.3933 70.8531 53.7782 70.419 53.1819 69.9594C54.8244 70.052 56.6147 69.3939 57.9411 68.6174C58.9099 68.0426 59.7523 67.2777 60.4177 66.3688C60.5941 66.129 60.7517 65.8758 60.889 65.6116C60.9801 66.3155 61.0549 67.0162 61.1134 67.7136C61.256 69.6757 61.1431 71.5467 60.3011 73.3151C58.3843 73.1568 56.6954 72.3356 55.0579 71.2485L55.0143 71.2645ZM45.7025 52.8899C45.1973 53.0314 44.6799 53.1248 44.1571 53.1688C44.1088 52.4943 44.077 51.815 44.0509 51.1372C44.0266 50.5449 44.0009 49.9583 44.0323 49.3623C44.0501 49.0391 44.0642 48.7179 44.0572 48.3852C44.0591 48.2733 44.0385 48.1313 44.035 47.9938C44.5991 47.9172 45.126 47.6693 45.5445 47.2835C45.7343 47.1393 45.8692 46.9347 45.927 46.7034L45.9442 46.626C46.1385 46.7204 46.3251 46.8301 46.502 46.954C46.7824 47.1124 47.0694 47.2573 47.3662 47.4108C47.9013 47.6752 48.4002 47.9848 48.9083 48.2938C49.5198 48.6723 50.115 49.0314 50.7232 49.4455C50.6655 49.5694 50.596 49.6875 50.5157 49.7981C50.2914 50.0806 50.0499 50.349 49.7924 50.6017C49.2557 51.1564 48.6419 51.6309 47.9697 52.0103C47.2656 52.3826 46.5206 52.6717 45.7497 52.8718L45.7025 52.8899ZM34.6682 32.3949C34.0558 32.171 33.7125 31.5104 33.4196 30.9936C33.4093 30.9631 33.3929 30.935 33.3713 30.9111C33.7178 30.3518 34.1093 29.8217 34.5419 29.3259C34.8586 29.2551 35.1788 29.201 35.5011 29.1638C36.1672 29.3279 36.7483 29.7342 37.1309 30.3036C37.4814 30.9022 36.9558 31.542 36.4896 31.8967C36.0234 32.2514 35.3655 32.6077 34.7417 32.3808L34.6682 32.3949ZM38.3198 34.0695C37.9053 33.6575 37.734 32.8385 38.315 32.4743C38.7021 32.2477 39.283 32.3601 39.6835 32.477C40.122 32.6568 40.55 32.861 40.9657 33.0887C41.4019 33.2665 41.8544 33.3818 42.3017 33.5292C42.7953 33.6591 43.274 33.8403 43.7299 34.0697C43.9873 34.226 44.2287 34.4071 44.4508 34.6104C44.5854 34.957 44.6996 35.3113 44.7926 35.6713C45.177 37.1502 45.6558 38.7904 45.6973 40.3497C45.5308 40.0543 45.3095 39.7935 45.0452 39.581C44.3091 39.006 43.3697 38.8483 42.4749 38.7175C42.0332 38.6536 41.2886 38.6562 41.0506 38.2084C40.8125 37.7605 41.1421 37.2547 41.2832 36.8544C41.3572 36.7097 41.3996 36.5509 41.4078 36.3886C41.4159 36.2263 41.3896 36.0641 41.3305 35.9127C41.2715 35.7613 41.181 35.6241 41.0651 35.5102C40.9491 35.3963 40.8104 35.3082 40.658 35.2518C39.9649 34.8489 39.0171 34.6769 38.3933 34.0553L38.3198 34.0695ZM45.3252 45.6261C44.7908 44.9763 44.2167 44.3161 44.2118 43.4526C44.1748 42.9995 44.2591 42.5448 44.4562 42.1351C44.7046 41.8432 45.0504 41.651 45.4295 41.5942C45.4333 41.6445 45.4543 41.692 45.4889 41.7287C45.5235 41.7654 45.5697 41.789 45.6197 41.7958C45.5404 42.7375 45.4389 43.6825 45.3545 44.6319C45.4192 44.9069 45.4261 45.2639 45.3988 45.612L45.3252 45.6261ZM33.3854 23.2306L33.3388 23.2579C33.2622 22.4364 33.7742 21.535 34.246 20.9267C34.5164 20.5663 34.7783 20.1916 35.1091 19.8439C35.2258 19.7226 35.3617 19.6094 35.4898 19.4911C35.2422 19.9505 34.9524 20.386 34.6244 20.7919C34.1439 21.4101 33.4418 22.3649 33.3854 23.2306ZM46.8009 46.0667C46.5719 45.9701 46.3345 45.8948 46.0916 45.8418C46.1445 44.4438 46.3206 43.0508 46.3735 41.6529C46.4134 41.721 46.4834 41.7667 46.537 41.8171C46.7733 42.0398 46.9994 42.2781 47.2529 42.481C47.7804 42.9135 48.3897 43.2307 48.9309 43.6455C49.7449 44.2713 50.6006 44.8533 51.427 45.4429C51.0001 45.5114 50.5809 45.6214 50.1753 45.7713C49.531 45.9569 48.9287 46.2654 48.4015 46.6797C47.8898 46.4305 47.3481 46.2615 46.8045 46.0646L46.8009 46.0667ZM36.7037 25.6105C36.0494 25.3148 35.623 24.9483 35.5923 24.1721C35.5757 23.8777 35.6309 23.5837 35.7529 23.3153C35.8749 23.0469 36.0602 22.812 36.2929 22.6309C36.5313 22.4673 36.8071 22.3665 37.0948 22.3377C37.3826 22.309 37.6729 22.3532 37.939 22.4664C38.2935 22.6198 38.5437 22.9403 38.9179 23.0533C39.0953 23.3716 39.1421 23.7463 39.0483 24.0984C38.8966 24.6981 38.5576 25.2337 38.0807 25.6275C37.6366 25.9789 37.1944 25.8238 36.7037 25.6105ZM49.084 47.0069L49.1485 46.9692C49.5277 46.699 49.9436 46.4847 50.3837 46.3328C50.8494 46.1711 51.3288 46.0516 51.8159 45.9757L52.1636 45.9118C52.368 46.0473 52.576 46.1806 52.7819 46.3104C53.2371 46.6055 53.6977 46.899 54.1637 47.1909C53.6921 47.1916 53.2209 47.2184 52.7523 47.2711C51.9747 47.3414 51.2108 47.5196 50.4824 47.8008C50.0117 47.5228 49.5508 47.2535 49.0861 47.0105L49.084 47.0069ZM47.2704 41.1953C46.9924 40.921 46.6874 40.6754 46.3601 40.4623C46.2543 38.8873 46.0346 37.322 45.7027 35.7788C45.8568 35.8859 46.0124 35.9873 46.151 36.0843C46.7437 36.4883 47.347 36.8859 47.9519 37.2779C49.2027 38.0908 50.463 38.8788 51.7638 39.6047C54.338 41.0339 56.9563 42.3411 59.4932 43.8547C64.0065 46.541 68.5144 49.5385 71.7228 53.778C73.1977 55.7304 74.6388 58.0443 74.767 60.5491C74.8232 61.1452 74.7688 61.7465 74.6067 62.3228C74.3219 63.1682 73.5286 62.7421 72.994 62.3715C71.961 61.5785 71.0063 60.6884 70.1432 59.7132C68.2302 57.7526 66.3754 55.7434 64.3773 53.8758C62.4574 52.1301 60.427 50.51 58.2987 49.0253C56.1664 47.5204 53.8992 46.2291 51.7719 44.7164C50.7227 43.9684 49.7452 43.1207 48.6889 42.3769C48.1915 42.0135 47.7177 41.6188 47.2704 41.1953ZM34.4752 16.8698C34.2127 16.4648 34.0173 16.02 33.8967 15.5527C33.7103 14.6688 33.7334 13.7537 33.9642 12.8804C34.0401 12.5855 34.1361 12.2961 34.2514 12.0143C34.1374 12.781 34.1625 13.562 34.3254 14.3198C34.4565 14.9082 34.6334 15.4853 34.8546 16.0461C35.0623 16.5983 35.3675 17.1032 35.5495 17.6608C35.6071 17.8377 35.6532 18.0181 35.6876 18.2009C35.6183 18.0826 35.5118 17.991 35.4294 17.8996C35.0805 17.5863 34.7611 17.2416 34.4752 16.8698ZM42.8705 30.0195C42.537 29.6807 42.1682 29.3786 41.7703 29.1185C42.4511 28.5708 42.9154 27.7993 43.0805 26.9413C43.1702 26.4349 43.221 25.9224 43.2325 25.4083C43.2579 25.0324 43.2334 24.267 43.6569 24.1106C44.2692 23.8822 45.0287 24.5301 45.3156 25.012C45.4776 25.3171 45.5609 25.6578 45.5581 26.0032C45.5552 26.3486 45.4662 26.6879 45.2992 26.9902C44.7617 28.1893 43.9269 29.2313 42.8741 30.0174L42.8705 30.0195ZM48.6609 36.7377C48.5795 36.6891 48.4981 36.6405 48.4132 36.594C48.4293 36.5943 48.4452 36.5902 48.4591 36.582C48.473 36.5739 48.4844 36.5621 48.492 36.5478C49.0101 35.7123 49.6622 34.9679 50.4223 34.3445C50.8196 33.9832 51.2616 33.6743 51.7375 33.4255C52.246 33.176 52.6316 33.4893 52.7821 33.9932C53.0827 34.9917 52.2051 35.8279 51.5381 36.4398C51.0919 36.814 50.6732 37.22 50.2853 37.6544C49.7467 37.3536 49.2064 37.0474 48.6645 36.7356L48.6609 36.7377ZM43.8057 23.263C43.6077 22.6617 43.252 22.0951 43.0125 21.5133C42.6105 20.5779 42.294 19.608 42.0671 18.6156C41.8587 17.5898 41.7585 16.545 41.7682 15.4983C41.7378 14.9724 41.7698 14.4447 41.8636 13.9263C41.959 13.5383 42.2103 12.6356 42.6351 12.6131C43.333 12.5801 43.3559 14.0828 43.3467 14.5358C43.3375 14.9888 43.2753 15.5403 43.2234 16.0519C43.0976 16.907 43.0798 17.7744 43.1705 18.6339C43.3288 19.6614 43.5594 20.6764 43.8607 21.6713C44.02 22.2558 44.2134 22.8305 44.4398 23.3924C44.2382 23.3144 44.0252 23.27 43.8093 23.2609L43.8057 23.263ZM54.5735 33.4356C54.1633 33.5389 53.7654 33.6862 53.3868 33.8751C53.3371 33.5587 53.2058 33.2606 53.0058 33.0104C53.2496 32.8677 53.5722 32.6788 53.6188 32.6515C53.8913 32.492 54.1601 32.3347 54.4536 32.211C55.1246 31.8856 55.8293 31.6175 56.515 31.3172C57.8526 30.7938 59.1249 30.1169 60.3063 29.3001C61.392 28.4045 62.3891 27.4066 63.2838 26.3202C63.7557 25.822 64.2526 25.348 64.7725 24.9001C65.1664 24.4731 65.6258 24.1115 66.1334 23.8291C66.2351 24.4386 65.6536 25.3036 65.3613 25.725C64.9255 26.3078 64.4365 26.8486 63.9004 27.3406C62.8358 28.4593 61.6845 29.4921 60.4572 30.4295C59.2826 31.2445 58.047 31.9678 56.7613 32.593C56.0586 32.9248 55.3321 33.2036 54.5879 33.4272L54.5735 33.4356ZM66.5854 47.1396L67.4401 47.4238C68.0634 47.5874 68.6753 47.792 69.2716 48.0364C70.3945 48.5972 71.4854 49.22 72.5392 49.902C74.6054 51.1377 76.8791 51.8234 79.1714 52.508C80.3375 52.8554 81.5399 53.1335 82.6674 53.5468C83.0337 53.6612 83.3848 53.8192 83.7132 54.0177C83.9077 54.1444 84.2088 54.3051 83.7699 54.5668C83.6216 54.6096 83.4664 54.6236 83.3128 54.6082C82.7838 54.5836 82.2581 54.5112 81.7421 54.3917C80.6152 54.185 79.5421 53.8649 78.4399 53.5523C77.187 53.2307 75.9573 52.8249 74.7591 52.3376C72.5986 51.3931 70.8858 49.758 68.7286 48.8355C68.6876 48.8185 68.6442 48.8082 68.6 48.8049C67.9658 48.2231 67.2814 47.6707 66.5854 47.1396Z" fill="black"/>
</svg>
